<?xml version="1.0" encoding="utf-8"?>
<!-- Generator: Adobe Illustrator 16.0.0, SVG Export Plug-In . SVG Version: 6.00 Build 0)  -->
<!DOCTYPE svg PUBLIC "-//W3C//DTD SVG 1.1//EN" "http://www.w3.org/Graphics/SVG/1.1/DTD/svg11.dtd">
<svg version="1.1" id="Layer_1" xmlns="http://www.w3.org/2000/svg" xmlns:xlink="http://www.w3.org/1999/xlink" x="0px" y="0px"
	 width="134.268px" height="132.394px" viewBox="0 0 134.268 132.394" enable-background="new 0 0 134.268 132.394"
	 xml:space="preserve">
<path fill="#ED6754" d="M67.854,104.967h-0.059c-0.925,0-1.65-0.642-1.618-1.568c0.045-1.337-2.012-3.177-3.866-4.44l-3.884,3.819
	c-0.664,0.646-1.726,0.651-2.372-0.012c-0.646-0.664-0.631-1.716,0.033-2.361l4.827-4.69c0.535-0.521,1.349-0.622,1.998-0.254
	c0.066,0.038,1.631,0.933,3.194,2.28c2.336,2.014,3.488,3.846,3.422,5.772C69.499,104.419,68.754,104.967,67.854,104.967"/>
<path fill="#ED6754" d="M64.387,108.984c-1.035,0-1.899-0.305-2.434-0.632l-0.172-0.104l-0.143-0.144
	c-3.814-3.829-9.992-9.503-11.786-10.129c-3.059-1.066-6.063-2.739-7.323-7.717c-1.087-4.291-5.901-14.956-7.359-16.303
	c-2.081-1.922-4.651-9.345-5.224-11.059L19.005,39.418l-6.27-4.867L0.792,27.128c-0.787-0.489-1.028-1.523-0.539-2.31
	c0.489-0.786,1.523-1.027,2.31-0.539l12.091,7.516l7.049,5.471l11.394,24.48c1.326,3.979,3.366,8.838,4.349,9.746
	c2.36,2.18,7.325,13.958,8.334,17.943c0.833,3.289,2.462,4.426,5.177,5.373c3.052,1.064,10.831,8.704,12.852,10.724
	c0.352,0.128,1.196,0.275,2.263-0.615c1.607-1.344,1.696-4.424,1.461-5.422c-0.167-0.709-0.27-2.427-0.295-3.492
	c-3.692-4.229-17.167-20.142-17.146-29.252c0.022-10.451,8.532-18.784,18.978-18.784h0.042c5.069,0,9.831,1.842,13.408,5.436
	c3.576,3.592,5.54,8.285,5.528,13.354c-0.02,9.228-14.014,25.596-17.278,29.298c0.08,0.762,0.177,1.862,0.29,3.325
	c0.299,3.848,0.866,5.337,2.093,5.521c0.854,0.131,3.402-2.357,5.147-5.01l0.117-0.181l5.543-5.012
	c0.961-1.554,6.814-10.962,9.933-14.921c1.135-1.441,2.142-2.51,2.949-3.366c1.641-1.742,2.161-2.354,2.185-3.612
	c0.051-2.743-2.463-20.072-5.503-25.823c-0.969-1.833-1.533-4.131-2.13-6.563c-1.092-4.444-2.221-9.039-5.79-10.601
	c-0.813-0.355-3.11-1.075-5.769-1.905c-5.351-1.675-12.68-3.968-17.13-6.115c-2.986-1.441-6.9-2.829-10.354-4.053
	c-4.499-1.596-8.064-2.859-9.754-4.155c-4.602-3.046-10.672-8.624-10.929-8.861c-0.681-0.627-0.725-1.688-0.097-2.37
	c0.628-0.681,1.688-0.724,2.369-0.097c0.062,0.056,6.178,5.676,10.558,8.563l0.116,0.084c1.229,0.97,5.107,2.345,8.858,3.674
	c3.534,1.253,7.54,2.673,10.691,4.193c4.229,2.041,11.422,4.292,16.674,5.936c2.978,0.931,5.129,1.604,6.11,2.033
	c5.089,2.226,6.478,7.883,7.703,12.873c0.547,2.227,1.063,4.33,1.839,5.798c3.404,6.439,5.948,24.362,5.891,27.45
	c-0.047,2.615-1.394,4.043-3.098,5.852c-0.802,0.851-1.712,1.816-2.755,3.141c-3.213,4.081-9.772,14.703-9.838,14.81l-0.126,0.204
	l-5.581,5.045c-1.166,1.742-4.552,6.334-7.827,6.335c-0.166,0-0.331-0.013-0.496-0.037c-1.521-0.227-2.554-0.986-3.266-2.007
	c-0.326,0.471-0.713,0.906-1.17,1.289C66.881,108.613,65.53,108.984,64.387,108.984 M69.069,50.967
	c-8.6,0-15.605,7.01-15.624,15.614c-0.014,6.462,9.289,19.014,15.569,26.338c6.04-6.969,15.666-19.721,15.68-26.252
	c0.01-4.173-1.607-8.121-4.552-11.079c-2.945-2.957-6.865-4.621-11.038-4.621H69.069z"/>
<path fill="#ED6754" d="M69.073,72.967h-0.017c-4.105,0-7.438-3.519-7.429-7.624c0.004-1.989,0.783-4.33,2.192-5.733
	c1.405-1.398,3.27-2.643,5.253-2.643h0.017c1.987,0,3.856,1.175,5.26,2.585c1.403,1.409,2.173,3.476,2.169,5.465
	c-0.005,1.989-0.783,4.117-2.191,5.521C72.92,71.937,71.055,72.967,69.073,72.967 M69.073,60.967c-1.09,0-2.114,0.493-2.887,1.261
	c-0.774,0.771-1.202,2.173-1.205,3.266c-0.005,2.255,1.827,4.474,4.082,4.474h0.01c1.09,0,2.115-0.762,2.887-1.531
	c0.773-0.771,1.202-1.968,1.204-3.06c0.003-1.093-0.421-2.276-1.192-3.05c-0.771-0.774-1.797-1.359-2.89-1.359H69.073z"/>
<path fill="#ED6754" d="M69.073,132.394c-17.415,0-33.787-8.782-46.101-21.097C10.658,98.983,3.876,82.611,3.876,65.197
	c0-8.898,1.761-17.523,5.233-25.636c0.365-0.852,1.351-1.246,2.202-0.882c0.852,0.364,1.247,1.351,0.882,2.201
	c-3.293,7.694-4.963,15.875-4.963,24.316c0,34.1,27.742,63.842,61.842,63.842c34.1,0,61.842-29.742,61.842-63.842
	S103.172,3.355,69.073,3.355c-7.894,0-15.583,1.466-22.852,4.359c-0.861,0.342-1.836-0.078-2.179-0.939
	C43.7,5.915,44.12,4.94,44.981,4.598C52.646,1.547,60.751,0,69.073,0c17.415,0,33.787,6.782,46.102,19.097
	c12.313,12.313,19.094,28.686,19.094,46.101c0,17.414-6.78,33.786-19.094,46.1C102.86,123.611,86.488,132.394,69.073,132.394"/>
<path fill="#ED6754" d="M84.105,107.758c-0.33,0-0.659-0.097-0.943-0.289c-0.146-0.1-3.562-2.481-3.26-7.672
	c0.053-0.924,0.844-1.63,1.771-1.576c0.926,0.054,1.631,0.847,1.578,1.771c-0.113,1.95,0.542,3.243,1.098,3.974
	c0.599-0.409,1.229-0.911,1.578-1.365c0.142-0.184,0.368-0.468,0.657-0.828c1.445-1.802,4.829-6.021,5.946-8.572
	c1.115-2.551,6.584-9.17,12.09-15.731c1.066-1.271,1.908-2.274,2.314-2.784c0.912-1.145-0.78-4.833-1.594-6.606
	c-0.233-0.509-0.453-0.99-0.63-1.413c-0.25-0.602-1.387-2.776-2.702-5.296c-3.854-7.377-10.307-19.724-11.755-25.173
	c-0.237-0.896,0.296-1.813,1.19-2.051c0.895-0.239,1.814,0.294,2.052,1.189c1.353,5.087,7.695,17.228,11.485,24.48
	c1.656,3.171,2.535,4.858,2.828,5.564c0.151,0.366,0.359,0.819,0.58,1.3c1.42,3.097,3.366,7.337,1.168,10.096
	c-0.433,0.543-1.287,1.561-2.368,2.85c-3.431,4.089-10.57,12.598-11.587,14.919c-1.295,2.96-4.744,7.261-6.401,9.327
	c-0.271,0.337-0.483,0.603-0.616,0.774c-1.201,1.562-3.439,2.782-3.691,2.916C84.645,107.693,84.375,107.758,84.105,107.758"/>
</svg>
