<?xml version="1.0" encoding="utf-8"?>
<!-- Generator: Adobe Illustrator 16.0.0, SVG Export Plug-In . SVG Version: 6.00 Build 0)  -->
<!DOCTYPE svg PUBLIC "-//W3C//DTD SVG 1.1//EN" "http://www.w3.org/Graphics/SVG/1.1/DTD/svg11.dtd">
<svg version="1.1" id="Layer_1" xmlns="http://www.w3.org/2000/svg" xmlns:xlink="http://www.w3.org/1999/xlink" x="0px" y="0px"
	 width="429.71px" height="429.71px" viewBox="0 0 429.71 429.71" enable-background="new 0 0 429.71 429.71" xml:space="preserve">
<text transform="matrix(1 0 0 1 92.0713 247.8545)"><tspan x="0" y="0" fill="#999999" font-family="'OpenSans-Bold'" font-size="77.8987" letter-spacing="-1">H</tspan><tspan x="57.656" y="0" fill="#999999" font-family="'OpenSans-Bold'" font-size="77.8987" letter-spacing="-1">APP</tspan><tspan x="203.622" y="0" fill="#999999" font-family="'OpenSans-Bold'" font-size="77.8987">Y</tspan></text>
<text transform="matrix(1 0 0 1 93.3174 326.0645)"><tspan x="0" y="0" fill="#999999" font-family="'OpenSans-Light'" font-size="77.8987" letter-spacing="-1">FI</tspan><tspan x="54.989" y="0" fill="#999999" font-family="'OpenSans-Light'" font-size="77.8987" letter-spacing="-1">ND</tspan><tspan x="162.274" y="0" fill="#999999" font-family="'OpenSans-Light'" font-size="77.8987" letter-spacing="-1">E</tspan><tspan x="203.387" y="0" fill="#999999" font-family="'OpenSans-Light'" font-size="77.8987">R</tspan></text>
<g opacity="0.3">
	<g>
		<defs>
			<rect id="SVGID_1_" width="429.71" height="429.71"/>
		</defs>
		<clipPath id="SVGID_2_">
			<use xlink:href="#SVGID_1_"  overflow="visible"/>
		</clipPath>
		<path clip-path="url(#SVGID_2_)" fill="none" stroke="#ED6754" stroke-width="14" stroke-miterlimit="10" d="M422.707,214.854
			c0,63.321-28.316,120.03-72.977,158.154c-36.303,30.99-83.405,49.699-134.877,49.699c-68.549,0-129.347-33.182-167.208-84.361
			C22.102,303.819,6.998,261.101,6.998,214.854C6.998,100.06,100.058,7,214.854,7C329.647,7,422.707,100.06,422.707,214.854z"/>
	</g>
</g>
<path fill="none" stroke="#ED6754" stroke-width="14" stroke-miterlimit="10" d="M214.853,7
	c114.794,0,207.854,93.059,207.854,207.854c0,63.323-28.316,120.032-72.977,158.156c-36.303,30.989-83.406,49.698-134.877,49.698
	c-68.548,0-129.346-33.183-167.208-84.36"/>
<path fill="#B3B3B3" d="M191.72,91.142c-15.528,0-28.16,12.633-28.16,28.16c0,15.528,12.632,28.16,28.16,28.16
	c15.528,0,28.16-12.632,28.16-28.16C219.88,103.774,207.248,91.142,191.72,91.142 M176.36,136.462
	c-4.712-4.223-7.68-10.35-7.68-17.16c0-6.808,2.968-12.938,7.68-17.158V136.462z M189.16,142.2c-2.732-0.303-5.32-1.086-7.68-2.261
	V98.665c2.36-1.176,4.948-1.957,7.68-2.262V142.2z M201.96,139.939c-2.36,1.175-4.949,1.957-7.68,2.261V96.403
	c2.731,0.305,5.32,1.086,7.68,2.262V139.939z M207.08,136.462v-34.318c4.712,4.221,7.68,10.351,7.68,17.158
	C214.76,126.112,211.792,132.239,207.08,136.462 M248.043,116.742c-7.059,0-12.801,5.743-12.801,12.8
	c0,7.058,5.742,12.8,12.801,12.8c7.057,0,12.8-5.742,12.8-12.8C260.843,122.485,255.1,116.742,248.043,116.742 M248.043,137.222
	c-4.236,0-7.68-3.443-7.68-7.68c0-4.235,3.443-7.68,7.68-7.68c4.234,0,7.68,3.444,7.68,7.68
	C255.723,133.778,252.277,137.222,248.043,137.222 M258.279,73.222h-87.04c-11.292,0-20.48,9.188-20.48,20.48v56.319
	c0,5.648,4.594,10.24,10.24,10.24h2.56v2.56c0,2.823,2.296,5.12,5.12,5.12h7.68c2.824,0,5.12-2.297,5.12-5.12v-2.56h66.561v2.56
	c0,2.823,2.298,5.12,5.12,5.12h7.68c2.822,0,5.12-2.297,5.12-5.12v-2.56h2.56c5.647,0,10.24-4.592,10.24-10.24V93.702
	C278.76,82.41,269.572,73.222,258.279,73.222 M176.36,162.821h-7.68v-2.56h7.68V162.821z M260.84,162.821h-7.68v-2.56h7.68V162.821z
	 M273.64,150.021c0,2.823-2.298,5.12-5.12,5.12H161c-2.824,0-5.12-2.297-5.12-5.12V93.702c0-8.47,6.89-15.36,15.36-15.36h87.04
	c8.471,0,15.36,6.891,15.36,15.36V150.021z M227.56,106.502h38.4v-15.36h-38.4V106.502z M255.72,96.262h5.12v5.12h-5.12V96.262z
	 M232.68,96.262h17.92v5.12h-17.92V96.262z"/>
</svg>
