<?xml version="1.0" encoding="utf-8"?>
<!-- Generator: Adobe Illustrator 16.0.0, SVG Export Plug-In . SVG Version: 6.00 Build 0)  -->
<!DOCTYPE svg PUBLIC "-//W3C//DTD SVG 1.1//EN" "http://www.w3.org/Graphics/SVG/1.1/DTD/svg11.dtd">
<svg version="1.1" id="Layer_1" xmlns="http://www.w3.org/2000/svg" xmlns:xlink="http://www.w3.org/1999/xlink" x="0px" y="0px"
	 width="429.71px" height="429.71px" viewBox="0 0 429.71 429.71" enable-background="new 0 0 429.71 429.71" xml:space="preserve">
<g enable-background="new    ">
	<path fill="#999999" d="M144.638,247.854h-11.753v-24.001h-22.023v24.001H99.07v-55.609h11.792v21.795h22.023v-21.795h11.753
		V247.854z"/>
</g>
<g enable-background="new    ">
	<path fill="#999999" d="M190.769,247.854l-4.032-13.236h-20.273l-4.032,13.236h-12.704l19.627-55.838h14.416l19.703,55.838H190.769
		z M183.922,224.728c-3.728-11.994-5.826-18.777-6.295-20.35c-0.47-1.572-0.806-2.814-1.008-3.728
		c-0.836,3.246-3.233,11.271-7.188,24.077H183.922z"/>
	<path fill="#999999" d="M247.954,209.589c0,5.984-1.87,10.562-5.61,13.731s-9.059,4.754-15.957,4.754h-5.059v19.779h-11.791
		v-55.609H227.3c6.744,0,11.873,1.452,15.385,4.355S247.954,203.833,247.954,209.589z M221.328,218.414h3.881
		c3.625,0,6.338-0.716,8.139-2.148s2.701-3.519,2.701-6.258c0-2.764-0.755-4.805-2.264-6.123s-3.873-1.979-7.094-1.979h-5.363
		V218.414z"/>
	<path fill="#999999" d="M295.934,209.589c0,5.984-1.87,10.562-5.61,13.731s-9.059,4.754-15.957,4.754h-5.059v19.779h-11.791
		v-55.609h17.764c6.744,0,11.873,1.452,15.385,4.355S295.934,203.833,295.934,209.589z M269.308,218.414h3.881
		c3.625,0,6.338-0.716,8.139-2.148s2.701-3.519,2.701-6.258c0-2.764-0.755-4.805-2.264-6.123s-3.873-1.979-7.094-1.979h-5.363
		V218.414z"/>
</g>
<g enable-background="new    ">
	<path fill="#999999" d="M319.999,215.143l11.601-22.898h12.705l-18.447,33.967v21.643h-11.716v-21.263l-18.448-34.347h12.781
		L319.999,215.143z"/>
</g>
<g enable-background="new    ">
	<path fill="#999999" d="M105.071,326.064h-3.88v-55.609h30.467v3.575h-26.587v23.583h25.104v3.613h-25.104V326.064z"/>
	<path fill="#999999" d="M139.357,326.064v-55.609h3.88v55.609H139.357z"/>
</g>
<g enable-background="new    ">
	<path fill="#999999" d="M196.613,326.064h-3.917l-32.939-49.371h-0.305c0.305,5.883,0.457,10.32,0.457,13.312v36.059h-3.728
		v-55.609h3.88l32.901,49.295h0.228c-0.228-4.564-0.342-8.9-0.342-13.008v-36.287h3.766V326.064z"/>
	<path fill="#999999" d="M253.646,297.727c0,9.332-2.447,16.388-7.342,21.167c-4.894,4.78-12.082,7.17-21.566,7.17h-13.312v-55.609
		h15.024c8.875,0,15.626,2.32,20.255,6.961C251.332,282.056,253.646,288.827,253.646,297.727z M249.423,297.879
		c0-7.963-2.021-13.953-6.066-17.973c-4.045-4.019-9.984-6.029-17.82-6.029h-10.231v48.764h9.204
		C241.119,322.641,249.423,314.387,249.423,297.879z"/>
</g>
<g enable-background="new    ">
	<path fill="#999999" d="M293.856,326.064h-30.392v-55.609h30.392v3.575h-26.511v21.034h25.027v3.576h-25.027v23.849h26.511V326.064
		z"/>
</g>
<g enable-background="new    ">
	<path fill="#999999" d="M308.458,301.834v24.229h-3.881v-55.609h13.237c6.897,0,11.993,1.274,15.29,3.822
		c3.297,2.549,4.945,6.385,4.945,11.507c0,3.728-0.982,6.872-2.947,9.433c-1.966,2.562-4.951,4.399-8.958,5.516l15.101,25.332
		h-4.641l-14.34-24.229H308.458z M308.458,298.488h10.611c4.691,0,8.33-1.046,10.916-3.139c2.587-2.092,3.881-5.179,3.881-9.262
		c0-4.234-1.269-7.315-3.805-9.242c-2.535-1.927-6.669-2.892-12.399-2.892h-9.204V298.488z"/>
</g>
<g opacity="0.3">
	<g>
		<g>
			<defs>
				<rect id="SVGID_1_" width="429.71" height="429.71"/>
			</defs>
			<clipPath id="SVGID_2_">
				<use xlink:href="#SVGID_1_"  overflow="visible"/>
			</clipPath>
			<path clip-path="url(#SVGID_2_)" fill="none" stroke="#ED6754" stroke-width="14" stroke-miterlimit="10" d="M422.707,214.854
				c0,63.321-28.316,120.03-72.977,158.153c-36.303,30.99-83.404,49.699-134.877,49.699c-68.549,0-129.347-33.182-167.208-84.36
				C22.102,303.819,6.998,261.101,6.998,214.854C6.998,100.06,100.058,7,214.854,7C329.646,7,422.707,100.06,422.707,214.854z"/>
		</g>
	</g>
</g>
<path fill="none" stroke="#ED6754" stroke-width="14" stroke-miterlimit="10" d="M214.853,7
	c114.793,0,207.854,93.059,207.854,207.854c0,63.323-28.316,120.032-72.977,158.155c-36.303,30.99-83.406,49.699-134.877,49.699
	c-68.548,0-129.346-33.184-167.208-84.36"/>
<path fill="#B3B3B3" d="M191.72,91.142c-15.528,0-28.16,12.633-28.16,28.16c0,15.528,12.632,28.16,28.16,28.16
	c15.528,0,28.16-12.632,28.16-28.16C219.88,103.774,207.248,91.142,191.72,91.142 M176.36,136.462
	c-4.712-4.223-7.68-10.35-7.68-17.16c0-6.808,2.968-12.938,7.68-17.158V136.462z M189.16,142.2c-2.732-0.303-5.32-1.086-7.68-2.261
	V98.665c2.36-1.176,4.948-1.957,7.68-2.262V142.2z M201.96,139.939c-2.36,1.175-4.949,1.957-7.68,2.261V96.403
	c2.731,0.305,5.32,1.086,7.68,2.262V139.939z M207.08,136.462v-34.318c4.712,4.221,7.68,10.351,7.68,17.158
	C214.76,126.112,211.792,132.239,207.08,136.462 M248.042,116.742c-7.059,0-12.801,5.743-12.801,12.8
	c0,7.058,5.742,12.8,12.801,12.8c7.058,0,12.801-5.742,12.801-12.8C260.843,122.485,255.1,116.742,248.042,116.742 M248.042,137.222
	c-4.235,0-7.68-3.443-7.68-7.68c0-4.235,3.443-7.68,7.68-7.68c4.234,0,7.681,3.444,7.681,7.68S252.277,137.222,248.042,137.222
	 M258.279,73.222h-87.04c-11.292,0-20.48,9.188-20.48,20.48v56.319c0,5.648,4.594,10.24,10.24,10.24h2.56v2.56
	c0,2.823,2.296,5.12,5.12,5.12h7.68c2.824,0,5.12-2.297,5.12-5.12v-2.56h66.562v2.56c0,2.823,2.297,5.12,5.119,5.12h7.68
	c2.822,0,5.121-2.297,5.121-5.12v-2.56h2.56c5.647,0,10.239-4.592,10.239-10.24V93.702C278.759,82.41,269.572,73.222,258.279,73.222
	 M176.36,162.821h-7.68v-2.56h7.68V162.821z M260.839,162.821h-7.68v-2.56h7.68V162.821z M273.64,150.021
	c0,2.823-2.299,5.12-5.12,5.12H161c-2.824,0-5.12-2.297-5.12-5.12V93.702c0-8.47,6.89-15.36,15.36-15.36h87.04
	c8.472,0,15.36,6.891,15.36,15.36V150.021L273.64,150.021z M227.56,106.502h38.4v-15.36h-38.4V106.502z M255.72,96.262h5.119v5.12
	h-5.119V96.262z M232.68,96.262h17.92v5.12h-17.92V96.262z"/>
</svg>
