<?xml version="1.0" encoding="utf-8"?>
<!-- Generator: Adobe Illustrator 16.0.0, SVG Export Plug-In . SVG Version: 6.00 Build 0)  -->
<!DOCTYPE svg PUBLIC "-//W3C//DTD SVG 1.1//EN" "http://www.w3.org/Graphics/SVG/1.1/DTD/svg11.dtd">
<svg version="1.1" id="Layer_1" xmlns="http://www.w3.org/2000/svg" xmlns:xlink="http://www.w3.org/1999/xlink" x="0px" y="0px"
	 width="145.005px" height="130.235px" viewBox="0 0 145.005 130.235" enable-background="new 0 0 145.005 130.235"
	 xml:space="preserve">
<path fill="#8CC63F" d="M46.674,70.948c2.262,0.136,4.219,0.112,6.13,0.399c3.858,0.579,5.903,3.414,4.92,7.157
	c-0.326,1.241-1.738,2.196-2.762,3.411c3.365,0.527,7.058,1.298,10.792,1.646c6.198,0.578,12.44,0.71,18.625,1.386
	c2.59,0.283,5.097,1.428,7.603,2.291c0.574,0.197,0.991,0.85,1.48,1.293c-0.111,0.194-0.223,0.388-0.333,0.583
	c-0.659-0.22-1.314-0.449-1.976-0.657c-2.188-0.688-4.338-1.758-6.571-1.983c-6.768-0.682-13.589-0.842-20.347-1.588
	c-4.442-0.489-8.807-1.659-13.214-2.487c-1.276-0.24-2.579-0.333-3.866-0.523c-2.49-0.367-4.327-1.555-5.077-4.093
	c-0.731-2.479,0.042-4.386,2.14-5.837c0.463-0.32,0.832-0.773,1.549-1.454c-9.409-2.162-16.495-8.415-24.904-12.008
	c-1.855-0.793-3.771-1.483-5.713-2.028c-2.868-0.805-5.716-0.733-8.389,0.873c-0.083-0.218-0.167-0.437-0.251-0.656
	c1.746-0.746,3.492-1.491,5.019-2.143c-2.784-1.288-5.154-1.131-8.439,0.729c-0.081-0.201-0.161-0.403-0.242-0.605
	c1.584-0.565,3.214-1.698,4.739-1.571c2.671,0.224,5.327,1.073,7.897,1.935c2.491,0.836,4.866,2.016,7.292,3.045
	c0.118-0.23,0.236-0.46,0.355-0.69c-2.323-1.325-4.646-2.649-6.842-3.902c2.72-0.235,5.126,1.157,6.956,3.231
	c2.362,2.679,5.326,4.385,8.311,6.133c0.342,0.2,0.705,0.364,1.151,0.4c-2.143-2.568-3.997-5.443-7.589-6.251
	c0.044-0.209,0.088-0.419,0.132-0.628c1.167,0.166,2.476,0.056,3.465,0.566c1.245,0.645,2.232,1.79,3.325,2.728
	c3.01,2.581,5.889,5.34,9.066,7.694c2.502,1.854,5.202,2.387,8.5,0.966c2.96-1.275,6.413-1.712,9.684-1.892
	c4.977-0.273,9.992-0.173,14.977,0.067c8.186,0.394,16.146-1.168,24.161-2.361c5.942-0.885,11.874-1.889,17.843,0.053
	c4.071,1.325,7.332,3.591,9.9,7.033c5.582,7.483,11.3,14.866,16.88,22.352c0.596,0.8,0.647,2.005,0.952,3.021
	c-0.229,0.11-0.456,0.22-0.684,0.33c-1.674-2.131-3.375-4.242-5.014-6.399c-4.859-6.397-9.609-12.881-14.566-19.2
	c-3.851-4.908-9.422-6.591-15.28-6.364c-6.265,0.243-12.48,1.546-18.742,2.111c-5.462,0.492-10.955,0.724-16.44,0.85
	c-6.078,0.14-12.163-0.03-18.244,0.055C52.086,68.007,49.381,68.995,46.674,70.948 M49.847,71.893
	c-0.007,0.058-0.015,0.114-0.022,0.173c-0.723,0-1.449-0.044-2.168,0.007c-3.051,0.22-4.8,1.609-4.94,3.889
	c-0.151,2.453,1.632,4.564,4.519,4.921c1.989,0.247,4.037,0.177,6.046,0.048c1.848-0.118,3.694-0.537,4.001-2.861
	c0.354-2.687-0.814-4.793-3.177-5.492C52.738,72.171,51.27,72.109,49.847,71.893"/>
<path fill="none" stroke="#8CC63F" stroke-width="1.668" stroke-miterlimit="10" d="M46.674,70.948
	c2.262,0.136,4.219,0.112,6.13,0.399c3.858,0.579,5.903,3.414,4.92,7.157c-0.326,1.241-1.738,2.196-2.762,3.411
	c3.365,0.527,7.058,1.298,10.792,1.646c6.198,0.578,12.44,0.71,18.625,1.386c2.59,0.283,5.097,1.428,7.603,2.291
	c0.574,0.197,0.991,0.85,1.48,1.293c-0.111,0.194-0.223,0.388-0.333,0.583c-0.659-0.22-1.314-0.449-1.976-0.657
	c-2.188-0.688-4.338-1.758-6.571-1.983c-6.768-0.682-13.589-0.842-20.347-1.588c-4.442-0.489-8.807-1.659-13.214-2.487
	c-1.276-0.24-2.579-0.333-3.866-0.523c-2.49-0.367-4.327-1.555-5.077-4.093c-0.731-2.479,0.042-4.386,2.14-5.837
	c0.463-0.32,0.832-0.773,1.549-1.454c-9.409-2.162-16.495-8.415-24.904-12.008c-1.855-0.793-3.771-1.483-5.713-2.028
	c-2.868-0.805-5.716-0.733-8.389,0.873c-0.083-0.218-0.167-0.437-0.251-0.656c1.746-0.746,3.492-1.491,5.019-2.143
	c-2.784-1.288-5.154-1.131-8.439,0.729c-0.081-0.201-0.161-0.403-0.242-0.605c1.584-0.565,3.214-1.698,4.739-1.571
	c2.671,0.224,5.327,1.073,7.897,1.935c2.491,0.836,4.866,2.016,7.292,3.045c0.118-0.23,0.236-0.46,0.355-0.69
	c-2.323-1.325-4.646-2.649-6.842-3.902c2.72-0.235,5.126,1.157,6.956,3.231c2.362,2.679,5.326,4.385,8.311,6.133
	c0.342,0.2,0.705,0.364,1.151,0.4c-2.143-2.568-3.997-5.443-7.589-6.251c0.044-0.209,0.088-0.419,0.132-0.628
	c1.167,0.166,2.476,0.056,3.465,0.566c1.245,0.645,2.232,1.79,3.325,2.728c3.01,2.581,5.889,5.34,9.066,7.694
	c2.502,1.854,5.202,2.387,8.5,0.966c2.96-1.275,6.413-1.712,9.684-1.892c4.977-0.273,9.992-0.173,14.977,0.067
	c8.186,0.394,16.146-1.168,24.161-2.361c5.942-0.885,11.874-1.889,17.843,0.053c4.071,1.325,7.332,3.591,9.9,7.033
	c5.582,7.483,11.3,14.866,16.88,22.352c0.596,0.8,0.647,2.005,0.952,3.021c-0.229,0.11-0.456,0.22-0.684,0.33
	c-1.674-2.131-3.375-4.242-5.014-6.399c-4.859-6.397-9.609-12.881-14.566-19.2c-3.851-4.908-9.422-6.591-15.28-6.364
	c-6.265,0.243-12.48,1.546-18.742,2.111c-5.462,0.492-10.955,0.724-16.44,0.85c-6.078,0.14-12.163-0.03-18.244,0.055
	C52.086,68.007,49.381,68.995,46.674,70.948z M49.847,71.893c-0.007,0.058-0.015,0.114-0.022,0.173
	c-0.723,0-1.449-0.044-2.168,0.007c-3.051,0.22-4.8,1.609-4.94,3.889c-0.151,2.453,1.632,4.564,4.519,4.921
	c1.989,0.247,4.037,0.177,6.046,0.048c1.848-0.118,3.694-0.537,4.001-2.861c0.354-2.687-0.814-4.793-3.177-5.492
	C52.738,72.171,51.27,72.109,49.847,71.893z"/>
<path fill="#8CC63F" d="M123.577,111.256c-2.388,0-4.777,0.05-7.162-0.032c-0.664-0.023-1.441-0.283-1.954-0.697
	c-9.116-7.345-19.844-8.576-30.979-8.15c-6.354,0.242-12.711,1.329-19.032-0.215c-1.466-0.357-2.993-0.753-4.283-1.493
	c-11.848-6.811-24.068-13.023-34.879-21.515c-0.057-0.044-0.111-0.099-0.176-0.126c-5.306-2.271-8.97-6.106-12.1-10.988
	c-1.791-2.791-5.354-4.445-8.118-6.613c-0.451-0.354-0.892-0.721-1.732-1.4c3.222,0.647,5.096,2.456,6.968,4.313
	c1.378,1.366,1.523,1.314,2.866-0.224c-0.51-0.546-1.028-1.098-1.545-1.65c1.799,0.862,3.048,1.954,1.557,3.86
	c1.281,1.898,2.337,3.808,3.73,5.426c1.29,1.497,2.842,2.822,4.456,3.975c2.169,1.548,4.495,2.878,6.775,4.264
	c8.648,5.259,17.304,10.502,25.96,15.746c0.495,0.3,1.076,0.481,1.517,0.841c6.508,5.303,14.029,5.502,21.859,4.523
	c11.138-1.393,22.148-0.958,32.701,3.3c4.672,1.885,9.178,4.181,13.758,6.29C123.702,110.879,123.64,111.066,123.577,111.256"/>
<path fill="none" stroke="#8CC63F" stroke-width="1.668" stroke-miterlimit="10" d="M123.577,111.256
	c-2.388,0-4.777,0.05-7.162-0.032c-0.664-0.023-1.441-0.283-1.954-0.697c-9.116-7.345-19.844-8.576-30.979-8.15
	c-6.354,0.242-12.711,1.329-19.032-0.215c-1.466-0.357-2.993-0.753-4.283-1.493c-11.848-6.811-24.068-13.023-34.879-21.515
	c-0.057-0.044-0.111-0.099-0.176-0.126c-5.306-2.271-8.97-6.106-12.1-10.988c-1.791-2.791-5.354-4.445-8.118-6.613
	c-0.451-0.354-0.892-0.721-1.732-1.4c3.222,0.647,5.096,2.456,6.968,4.313c1.378,1.366,1.523,1.314,2.866-0.224
	c-0.51-0.546-1.028-1.098-1.545-1.65c1.799,0.862,3.048,1.954,1.557,3.86c1.281,1.898,2.337,3.808,3.73,5.426
	c1.29,1.497,2.842,2.822,4.456,3.975c2.169,1.548,4.495,2.878,6.775,4.264c8.648,5.259,17.304,10.502,25.96,15.746
	c0.495,0.3,1.076,0.481,1.517,0.841c6.508,5.303,14.029,5.502,21.859,4.523c11.138-1.393,22.148-0.958,32.701,3.3
	c4.672,1.885,9.178,4.181,13.758,6.29C123.702,110.879,123.64,111.066,123.577,111.256z"/>
<path fill="#8CC63F" d="M58.984,97.309c-0.682-0.638-1.525-1.17-2.015-1.932c-1.743-2.701-4.195-4.496-6.912-6.117
	c-3.846-2.295-7.528-4.864-11.328-7.238c-1.893-1.184-3.804-2.421-5.866-3.229c-3.711-1.454-6.9-3.555-9.792-6.281
	c-2.756-2.6-5.738-4.958-8.708-7.498c1.199,0.604,2.453,1.104,3.56,1.825c1.328,0.868,2.628,1.825,3.772,2.921
	c3.91,3.741,8.127,6.932,13.38,8.617c1.41,0.452,2.651,1.455,3.938,2.256c4.23,2.636,8.339,5.485,12.7,7.881
	c3.255,1.789,5.444,4.468,7.586,7.293c0.188,0.248,0.165,0.654,0.24,0.987C59.354,96.967,59.169,97.138,58.984,97.309"/>
<path fill="none" stroke="#8CC63F" stroke-width="1.668" stroke-miterlimit="10" d="M58.984,97.309
	c-0.682-0.638-1.525-1.17-2.015-1.932c-1.743-2.701-4.195-4.496-6.912-6.117c-3.846-2.295-7.528-4.864-11.328-7.238
	c-1.893-1.184-3.804-2.421-5.866-3.229c-3.711-1.454-6.9-3.555-9.792-6.281c-2.756-2.6-5.738-4.958-8.708-7.498
	c1.199,0.604,2.453,1.104,3.56,1.825c1.328,0.868,2.628,1.825,3.772,2.921c3.91,3.741,8.127,6.932,13.38,8.617
	c1.41,0.452,2.651,1.455,3.938,2.256c4.23,2.636,8.339,5.485,12.7,7.881c3.255,1.789,5.444,4.468,7.586,7.293
	c0.188,0.248,0.165,0.654,0.24,0.987C59.354,96.967,59.169,97.138,58.984,97.309z"/>
<path fill="none" stroke="#8CC63F" stroke-width="3.274" stroke-linecap="round" stroke-miterlimit="10" d="M70.414,14.896
	c-9.166,0-16.597,7.431-16.597,16.597c0,9.167,16.597,27.661,16.597,27.661s16.597-18.494,16.597-27.661
	C87.011,22.326,79.579,14.896,70.414,14.896z M70.414,35.643c-3.056,0-5.533-2.477-5.533-5.533c0-3.056,2.477-5.534,5.533-5.534
	s5.533,2.479,5.533,5.534C75.946,33.166,73.47,35.643,70.414,35.643z"/>
<path fill="none" stroke="#8CC63F" stroke-width="3.801" stroke-linecap="round" stroke-miterlimit="10" d="M102.169,119.793
	c-9.331,5.431-20.18,8.542-31.755,8.542c-34.914,0-63.217-28.304-63.217-63.217C7.197,30.204,35.5,1.9,70.414,1.9
	s63.217,28.304,63.217,63.218"/>
</svg>
