<?xml version="1.0" encoding="utf-8"?>
<!-- Generator: Adobe Illustrator 19.1.0, SVG Export Plug-In . SVG Version: 6.00 Build 0)  -->
<svg version="1.1" id="Calque_1" xmlns="http://www.w3.org/2000/svg" xmlns:xlink="http://www.w3.org/1999/xlink" x="0px" y="0px"
	 viewBox="0 0 226.1 226.1" style="enable-background:new 0 0 226.1 226.1;" xml:space="preserve">
<style type="text/css">
	.st0{fill-rule:evenodd;clip-rule:evenodd;fill:#FFFFFF;}
	.st1{fill:#FFFFFF;}
	.st2{fill:#ED6754;}
	.st3{fill-rule:evenodd;clip-rule:evenodd;fill:#8CC63F;}
	.st4{fill-rule:evenodd;clip-rule:evenodd;fill:#595959;}
	.st5{fill:#8CC63F;}
	.st6{fill:#595959;}
	.st7{fill:#999999;}
	.st8{fill:#29ABE2;}
	.st9{fill:#FBB07F;}
	.st10{fill:#0071BC;}
	.st11{fill:#CBE021;}
	.st12{fill:#00A99D;}
	.st13{fill:#FF99AC;}
	.st14{fill:none;stroke:#8CC63F;stroke-width:5;stroke-miterlimit:10;}
	.st15{fill:none;stroke:#CBE021;stroke-width:5;stroke-miterlimit:10;}
	.st16{fill:none;stroke:#FBB07F;stroke-width:5;stroke-miterlimit:10;}
	.st17{fill:none;stroke:#00A99D;stroke-width:5;stroke-miterlimit:10;}
	.st18{fill:none;stroke:#29ABE2;stroke-width:5;stroke-miterlimit:10;}
	.st19{fill:none;stroke:#0071BC;stroke-width:5;stroke-miterlimit:10;}
	.st20{fill:none;stroke:#ED6754;stroke-width:5;stroke-miterlimit:10;}
	.st21{fill:none;stroke:#FF99AC;stroke-width:5;stroke-miterlimit:10;}
	.st22{fill:none;stroke:#999999;stroke-width:5;stroke-miterlimit:10;}
</style>
<g>
	<g>
		<g>
			<path class="st7" d="M112.6,181.8c-0.7,0-1.4-0.2-2-0.5c-1.2-0.7-2-2-2-3.5v-66.3c0-1.4,0.8-2.8,2-3.5l51-28.6
				c1.9-1.1,4.4-0.4,5.4,1.5c1.1,1.9,0.4,4.4-1.5,5.4l-49,27.5V171l43-24.1V114c0-2.2,1.8-4,4-4s4,1.8,4,4v35.2c0,1.4-0.8,2.8-2,3.5
				l-51,28.6C113.9,181.6,113.3,181.8,112.6,181.8z"/>
		</g>
		<g>
			<path class="st7" d="M112.6,181.8c-0.7,0-1.3-0.2-1.9-0.5l-52-28.6c-1.3-0.7-2.1-2-2.1-3.5v-34.7c0-2.2,1.8-4,4-4s4,1.8,4,4v32.3
				l44,24.2v-57.2L58.7,86.4c-1.9-1.1-2.6-3.5-1.6-5.4c1.1-1.9,3.5-2.6,5.4-1.6l52,28.6c1.3,0.7,2.1,2,2.1,3.5v66.3
				c0,1.4-0.7,2.7-2,3.4C114,181.6,113.3,181.8,112.6,181.8z"/>
		</g>
		<g>
			<path class="st7" d="M60.6,86.9c-1.4,0-2.8-0.8-3.5-2.1c-1-1.9-0.3-4.4,1.6-5.4l52-28.1c1.9-1,4.4-0.3,5.4,1.6
				c1,1.9,0.3,4.4-1.6,5.4l-52,28.1C61.9,86.8,61.2,86.9,60.6,86.9z"/>
		</g>
		<g>
			<path class="st7" d="M112.6,122.5c-2.2,0-4-1.8-4-4V54.9c0-2.2,1.8-4,4-4s4,1.8,4,4v63.6C116.6,120.7,114.8,122.5,112.6,122.5z"
				/>
		</g>
		<g>
			<g>
				<path class="st7" d="M163.6,86.9c-0.7,0-1.3-0.2-1.9-0.5l-51-28.1c-1.6-0.9-2.4-2.7-1.9-4.5c0.5-1.8,2-3,3.9-3h30.7
					c2.2,0,4,1.8,4,4c0,2.2-1.8,4-4,4h-15.1l37.4,20.6c1.9,1.1,2.6,3.5,1.6,5.4C166.4,86.2,165,86.9,163.6,86.9z"/>
			</g>
			<g>
				<path class="st7" d="M194.2,87c-0.7,0-1.3-0.2-1.9-0.5l-51-28.1c-1.9-1.1-2.6-3.5-1.6-5.4c1.1-1.9,3.5-2.6,5.4-1.6l51,28.1
					c1.9,1.1,2.6,3.5,1.6,5.4C197,86.2,195.6,87,194.2,87z"/>
			</g>
			<g>
				<path class="st7" d="M194.3,87h-30.7c-2.2,0-4-1.8-4-4c0-2.2,1.8-4,4-4h30.7c2.2,0,4,1.8,4,4C198.3,85.2,196.5,87,194.3,87z"/>
			</g>
		</g>
		<g>
			<g>
				<path class="st7" d="M113,58.9H82.4c-2.2,0-4-1.8-4-4c0-2.2,1.8-4,4-4H113c2.2,0,4,1.8,4,4C117,57.1,115.3,58.9,113,58.9z"/>
			</g>
			<g>
				<path class="st7" d="M31.4,87c-1.4,0-2.8-0.7-3.5-2.1c-1.1-1.9-0.4-4.4,1.6-5.4l51-28.1c1.9-1.1,4.4-0.4,5.4,1.6
					c1.1,1.9,0.4,4.4-1.6,5.4l-51,28.1C32.8,86.8,32.1,87,31.4,87z"/>
			</g>
			<g>
				<path class="st7" d="M60.6,87H31.4c-2.2,0-4-1.8-4-4c0-2.2,1.8-4,4-4h29.2c2.2,0,4,1.8,4,4C64.6,85.2,62.8,87,60.6,87z"/>
			</g>
		</g>
		<g>
			<path class="st7" d="M91.6,134.3c-0.7,0-1.3-0.2-1.9-0.5l-52-28.4c-1.1-0.6-1.9-1.8-2.1-3s0.3-2.6,1.3-3.4l21-19.1
				c1.6-1.5,4.2-1.4,5.7,0.3c1.5,1.6,1.4,4.2-0.3,5.7l-16.8,15.3L91,125.5l18.9-17.2c1.6-1.5,4.2-1.4,5.7,0.3
				c1.5,1.6,1.4,4.2-0.3,5.7l-21,19.1C93.5,134,92.6,134.3,91.6,134.3z"/>
		</g>
		<g>
			<path class="st7" d="M133.6,134.3c-1,0-1.9-0.4-2.7-1l-21-19.1c-1.6-1.5-1.8-4-0.3-5.7c1.5-1.6,4-1.8,5.7-0.3l18.9,17.2
				l44.6-24.3l-16.8-15.3c-1.6-1.5-1.8-4-0.3-5.7c1.5-1.6,4-1.8,5.7-0.3l21,19.1c1,0.9,1.4,2.2,1.3,3.4s-0.9,2.4-2.1,3l-52,28.4
				C134.9,134.2,134.3,134.3,133.6,134.3z"/>
		</g>
	</g>
</g>
<g>
	<circle class="st22" cx="113.2" cy="112.8" r="109.7"/>
</g>
</svg>
