<?xml version="1.0" encoding="utf-8"?>
<!-- Generator: Adobe Illustrator 19.1.0, SVG Export Plug-In . SVG Version: 6.00 Build 0)  -->
<svg version="1.1" id="Calque_1" xmlns="http://www.w3.org/2000/svg" xmlns:xlink="http://www.w3.org/1999/xlink" x="0px" y="0px"
	 viewBox="0 0 219.3 219.3" style="enable-background:new 0 0 219.3 219.3;" xml:space="preserve">
<style type="text/css">
	.st0{fill-rule:evenodd;clip-rule:evenodd;fill:#FFFFFF;}
	.st1{fill:#FFFFFF;}
	.st2{fill:#ED6754;}
	.st3{fill-rule:evenodd;clip-rule:evenodd;fill:#8CC63F;}
	.st4{fill-rule:evenodd;clip-rule:evenodd;fill:#595959;}
	.st5{fill:#8CC63F;}
	.st6{fill:#595959;}
	.st7{fill:#999999;}
	.st8{fill:#29ABE2;}
	.st9{fill:#FBB07F;}
	.st10{fill:#0071BC;}
	.st11{fill:#CBE021;}
	.st12{fill:#00A99D;}
	.st13{fill:#FF99AC;}
	.st14{fill:none;stroke:#8CC63F;stroke-width:5;stroke-miterlimit:10;}
	.st15{fill:none;stroke:#CBE021;stroke-width:5;stroke-miterlimit:10;}
	.st16{fill:none;stroke:#FBB07F;stroke-width:5;stroke-miterlimit:10;}
	.st17{fill:none;stroke:#00A99D;stroke-width:5;stroke-miterlimit:10;}
	.st18{fill:none;stroke:#29ABE2;stroke-width:5;stroke-miterlimit:10;}
	.st19{fill:none;stroke:#0071BC;stroke-width:5;stroke-miterlimit:10;}
	.st20{fill:none;stroke:#ED6754;stroke-width:5;stroke-miterlimit:10;}
	.st21{fill:none;stroke:#FF99AC;stroke-width:5;stroke-miterlimit:10;}
	.st22{fill:none;stroke:#999999;stroke-width:5;stroke-miterlimit:10;}
</style>
<g>
	<g>
		<circle class="st2" cx="109.7" cy="109.7" r="109.7"/>
	</g>
	<g>
		<g>
			<path class="st1" d="M147.6,172.1H69.9c-1,0-2-0.4-2.7-1.1c-0.7-0.7-1.1-1.7-1.1-2.7l0.3-66H52.8c-1.7,0-3.2-1.1-3.7-2.8
				l-9.9-33.9c-0.5-1.8,0.4-3.8,2.1-4.6l41-18.4c0.5-0.2,1-0.3,1.6-0.3h49.8c0.5,0,1.1,0.1,1.6,0.3l41,18.4c1.7,0.8,2.6,2.7,2.1,4.6
				l-9.9,33.9c-0.5,1.6-2,2.8-3.7,2.8h-13.6l0.3,66c0,1-0.4,2-1.1,2.7C149.6,171.7,148.6,172.1,147.6,172.1z M73.8,164.5h70l-0.3-66
				c0-1,0.4-2,1.1-2.7c0.7-0.7,1.7-1.1,2.7-1.1h14.6l8.2-28l-37.2-16.7H84.7L47.4,66.7l8.2,28h14.6c1,0,2,0.4,2.7,1.1
				c0.7,0.7,1.1,1.7,1.1,2.7L73.8,164.5z"/>
		</g>
		<g>
			<path class="st1" d="M108.8,68C93.4,68,81,58.2,81,46.1c0-2.1,1.7-3.8,3.8-3.8s3.8,1.7,3.8,3.8c0,7.9,9,14.3,20.1,14.3
				s20.1-6.4,20.1-14.3c0-2.1,1.7-3.8,3.8-3.8s3.8,1.7,3.8,3.8C136.5,58.2,124.1,68,108.8,68z"/>
		</g>
	</g>
</g>
</svg>
