<?xml version="1.0" encoding="utf-8"?>
<!-- Generator: Adobe Illustrator 19.1.0, SVG Export Plug-In . SVG Version: 6.00 Build 0)  -->
<svg version="1.1" id="Calque_1" xmlns="http://www.w3.org/2000/svg" xmlns:xlink="http://www.w3.org/1999/xlink" x="0px" y="0px"
	 viewBox="0 0 219.3 219.3" style="enable-background:new 0 0 219.3 219.3;" xml:space="preserve">
<style type="text/css">
	.st0{fill-rule:evenodd;clip-rule:evenodd;fill:#FFFFFF;}
	.st1{fill:#FFFFFF;}
	.st2{fill:#ED6754;}
	.st3{fill-rule:evenodd;clip-rule:evenodd;fill:#8CC63F;}
	.st4{fill-rule:evenodd;clip-rule:evenodd;fill:#595959;}
	.st5{fill:#8CC63F;}
	.st6{fill:#595959;}
	.st7{fill:#999999;}
	.st8{fill:#29ABE2;}
	.st9{fill:#FBB07F;}
	.st10{fill:#0071BC;}
	.st11{fill:#CBE021;}
	.st12{fill:#00A99D;}
	.st13{fill:#FF99AC;}
</style>
<g>
	<g>
		<path class="st11" d="M109.7,0c60.6,0,109.7,49.1,109.7,109.7s-49.1,109.7-109.7,109.7S0,170.2,0,109.7S49.1,0,109.7,0"/>
	</g>
	<g>
		<g>
			<path class="st1" d="M166.2,157.7h-55.1c-8.2,0-14.8-6.6-14.8-14.8V79.7c0-8.2,6.6-14.8,14.8-14.8h55.1c8.2,0,14.8,6.6,14.8,14.8
				v63.2C181,151,174.4,157.7,166.2,157.7z M111.2,72.8c-3.8,0-6.8,3.1-6.8,6.8v63.2c0,3.8,3.1,6.8,6.8,6.8h55.1
				c3.8,0,6.8-3.1,6.8-6.8V79.7c0-3.8-3.1-6.8-6.8-6.8H111.2z"/>
		</g>
		<g>
			<path class="st1" d="M100.4,147.6c-0.8,0-1.6-0.2-2.3-0.7c-1.8-1.3-2.2-3.8-1-5.6l15.2-21.7c0.7-1,1.8-1.6,3.1-1.7
				c1.2-0.1,2.4,0.5,3.2,1.4l9.7,11.3l19.4-25.8c0.7-1,1.9-1.6,3.2-1.6c1.2,0,2.4,0.6,3.2,1.6l26.1,33.7c1.4,1.7,1,4.3-0.7,5.6
				c-1.7,1.4-4.3,1-5.6-0.7L151,113.7l-19.2,25.6c-0.7,1-1.9,1.6-3.1,1.6c-1.2,0-2.4-0.5-3.2-1.4l-9.6-11.2l-12.3,17.5
				C102.9,147,101.6,147.6,100.4,147.6z"/>
		</g>
		<g>
			<polygon class="st11" points="120.5,111.1 47.1,111.1 57,54 110.6,54 			"/>
			<path class="st1" d="M120.5,115.1H47.1c-1.2,0-2.3-0.5-3.1-1.4c-0.8-0.9-1.1-2.1-0.9-3.3l9.9-57c0.3-1.9,2-3.3,3.9-3.3h53.6
				c1.9,0,3.6,1.4,3.9,3.3l9.9,57c0.2,1.2-0.1,2.4-0.9,3.3C122.8,114.5,121.7,115.1,120.5,115.1z M51.9,107.1h63.9l-8.5-49H60.4
				L51.9,107.1z"/>
		</g>
		<g>
			<path class="st1" d="M83.8,170.6c-2.2,0-4-1.8-4-4v-54.9c0-2.2,1.8-4,4-4s4,1.8,4,4v54.9C87.8,168.8,86,170.6,83.8,170.6z"/>
		</g>
		<g>
			<path class="st1" d="M99.1,173.3H68.5c-2.2,0-4-1.8-4-4s1.8-4,4-4h30.6c2.2,0,4,1.8,4,4S101.3,173.3,99.1,173.3z"/>
		</g>
		<g>
			<path class="st1" d="M66,131.9c-2.2,0-4-1.8-4-4v-16.2c0-2.2,1.8-4,4-4s4,1.8,4,4v16.2C70,130.1,68.2,131.9,66,131.9z"/>
		</g>
		<g>
			<path class="st1" d="M66,145.9c-5.5,0-10-4.5-10-10s4.5-10,10-10s10,4.5,10,10S71.5,145.9,66,145.9z M66,133.9c-1.1,0-2,0.9-2,2
				s0.9,2,2,2c1.1,0,2-0.9,2-2S67.1,133.9,66,133.9z"/>
		</g>
	</g>
</g>
</svg>
