<?xml version="1.0" encoding="utf-8"?>
<!-- Generator: Adobe Illustrator 19.1.0, SVG Export Plug-In . SVG Version: 6.00 Build 0)  -->
<svg version="1.1" id="Calque_1" xmlns="http://www.w3.org/2000/svg" xmlns:xlink="http://www.w3.org/1999/xlink" x="0px" y="0px"
	 viewBox="0 0 219.3 219.3" style="enable-background:new 0 0 219.3 219.3;" xml:space="preserve">
<style type="text/css">
	.st0{fill-rule:evenodd;clip-rule:evenodd;fill:#FFFFFF;}
	.st1{fill:#FFFFFF;}
	.st2{fill:#ED6754;}
	.st3{fill-rule:evenodd;clip-rule:evenodd;fill:#8CC63F;}
	.st4{fill-rule:evenodd;clip-rule:evenodd;fill:#595959;}
	.st5{fill:#8CC63F;}
	.st6{fill:#595959;}
	.st7{fill:#999999;}
	.st8{fill:#29ABE2;}
	.st9{fill:#FBB07F;}
	.st10{fill:#0071BC;}
	.st11{fill:#CBE021;}
	.st12{fill:#00A99D;}
	.st13{fill:#FF99AC;}
	.st14{fill:none;stroke:#8CC63F;stroke-width:5;stroke-miterlimit:10;}
	.st15{fill:none;stroke:#CBE021;stroke-width:5;stroke-miterlimit:10;}
	.st16{fill:none;stroke:#FBB07F;stroke-width:5;stroke-miterlimit:10;}
	.st17{fill:none;stroke:#00A99D;stroke-width:5;stroke-miterlimit:10;}
	.st18{fill:none;stroke:#29ABE2;stroke-width:5;stroke-miterlimit:10;}
	.st19{fill:none;stroke:#0071BC;stroke-width:5;stroke-miterlimit:10;}
	.st20{fill:none;stroke:#ED6754;stroke-width:5;stroke-miterlimit:10;}
	.st21{fill:none;stroke:#FF99AC;stroke-width:5;stroke-miterlimit:10;}
	.st22{fill:none;stroke:#999999;stroke-width:5;stroke-miterlimit:10;}
</style>
<g>
	<g>
		<circle class="st8" cx="109.7" cy="109.7" r="109.7"/>
	</g>
	<g>
		<path class="st1" d="M165.2,155.7H55.9c-6.9,0-12.5-5.6-12.5-12.5V69c0-6.9,5.6-12.5,12.5-12.5h109.3c6.9,0,12.5,5.6,12.5,12.5
			v74.2C177.7,150.1,172.1,155.7,165.2,155.7z M55.9,64.5c-2.5,0-4.5,2-4.5,4.5v74.2c0,2.5,2,4.5,4.5,4.5h109.3c2.5,0,4.5-2,4.5-4.5
			V69c0-2.5-2-4.5-4.5-4.5H55.9z"/>
	</g>
	<g>
		<path class="st1" d="M157.4,141.6H63.7c-3.5,0-6.3-2.8-6.3-6.3V76.9c0-3.5,2.8-6.3,6.3-6.3h93.7c3.5,0,6.3,2.8,6.3,6.3v58.4
			C163.7,138.8,160.9,141.6,157.4,141.6z M65.4,133.6h90.2v-55H65.4V133.6z"/>
	</g>
	<g>
		<path class="st1" d="M136.7,177.7H84.4l0.2-4.2c0.6-13.9,12-24.8,26-24.8c14,0,25.4,10.9,26,24.8L136.7,177.7z M93.2,169.7h34.6
			c-2.2-7.6-9.1-13-17.3-13C102.4,156.7,95.4,162.2,93.2,169.7z"/>
	</g>
</g>
</svg>
