<?xml version="1.0" encoding="utf-8"?>
<!-- Generator: Adobe Illustrator 19.1.0, SVG Export Plug-In . SVG Version: 6.00 Build 0)  -->
<svg version="1.1" id="Calque_1" xmlns="http://www.w3.org/2000/svg" xmlns:xlink="http://www.w3.org/1999/xlink" x="0px" y="0px"
	 viewBox="0 0 249.1 241.9" style="enable-background:new 0 0 249.1 241.9;" xml:space="preserve">
<style type="text/css">
	.st0{fill-rule:evenodd;clip-rule:evenodd;fill:#FFFFFF;}
	.st1{fill:#FFFFFF;}
	.st2{fill:#ED6754;}
	.st3{fill-rule:evenodd;clip-rule:evenodd;fill:#8CC63F;}
	.st4{fill-rule:evenodd;clip-rule:evenodd;fill:#595959;}
	.st5{fill:#8CC63F;}
	.st6{fill:#595959;}
	.st7{fill:#999999;}
	.st8{fill:#29ABE2;}
	.st9{fill:#FBB07F;}
	.st10{fill:#0071BC;}
	.st11{fill:#CBE021;}
	.st12{fill:#00A99D;}
	.st13{fill:#FF99AC;}
</style>
<g>
	<g>
		<g>
			<path class="st1" d="M125.9,195.3c0,0-0.1,0-0.1,0c-1.7-0.1-3.1-1.5-3-3.2c0.1-2.5-3.7-6-7.2-8.4l-7.2,7
				c-1.2,1.2-3.2,1.2-4.4-0.1c-1.2-1.2-1.2-3.2,0.1-4.4l9-8.7c1-1,2.5-1.2,3.7-0.5c0.1,0.1,3,1.7,5.9,4.2c4.3,3.7,6.5,7.4,6.3,11
				C128.9,194,127.6,195.3,125.9,195.3z"/>
		</g>
	</g>
	<g>
		<g>
			<g>
				<path class="st1" d="M119.5,202.2c-1.9,0-3.5-0.6-4.5-1.2l-0.3-0.2l-0.3-0.3c-7.1-7.1-18.5-17.6-21.9-18.8
					c-5.7-2-11.2-5.1-13.6-14.3c-2-8-10.9-27.7-13.7-30.2c-3.9-3.6-8.6-17.3-9.7-20.5L35.3,73.1l-11.6-9L1.5,50.3
					c-1.5-0.9-1.9-2.8-1-4.3s2.8-1.9,4.3-1L27.2,59l13.1,10.2l21.1,45.4c2.5,7.4,6.2,16.4,8.1,18.1c4.4,4,13.6,25.9,15.5,33.3
					c1.5,6.1,4.6,8.2,9.6,10c5.7,2,20.1,16.1,23.8,19.9c0.7,0.2,2.2,0.5,4.2-1.1c3-2.5,3.1-8.2,2.7-10.1c-0.3-1.3-0.5-4.5-0.5-6.5
					c-6.8-7.8-31.8-37.4-31.8-54.3c0-19.4,15.8-34.9,35.2-34.9c0,0,0.1,0,0.1,0c9.4,0,18.2,3.4,24.9,10.1
					c6.6,6.7,10.3,15.4,10.3,24.8c0,17.1-26,47.5-32.1,54.4c0.1,1.4,0.3,3.5,0.5,6.2c0.6,7.1,1.6,9.9,3.9,10.2
					c1.6,0.2,6.3-4.4,9.5-9.3l0.2-0.3l10.3-9.3c1.8-2.9,12.6-20.3,18.4-27.7c2.1-2.7,4-4.7,5.5-6.2c3-3.2,4-4.4,4.1-6.7
					c0.1-5.1-4.6-37.2-10.2-47.9c-1.8-3.4-2.8-7.7-4-12.2c-2-8.2-4.1-16.8-10.7-19.7c-1.5-0.7-5.8-2-10.7-3.5
					c-9.9-3.1-23.5-7.4-31.8-11.3c-5.5-2.7-12.8-5.2-19.2-7.5c-8.3-3-15-5.3-18.1-7.7c-8.5-5.7-19.8-16-20.3-16.4
					c-1.3-1.2-1.3-3.1-0.2-4.4C59.7,3.1,61.7,3,63,4.2c0.1,0.1,11.5,10.5,19.6,15.9l0.2,0.2C85,22,92.2,24.6,99.2,27
					c6.6,2.3,14,5,19.8,7.8c7.8,3.8,21.2,8,30.9,11c5.5,1.7,9.5,3,11.3,3.8c9.4,4.1,12,14.6,14.3,23.9c1,4.1,2,8,3.4,10.8
					c6.3,11.9,11,45.2,10.9,50.9c-0.1,4.9-2.6,7.5-5.7,10.9c-1.5,1.6-3.2,3.4-5.1,5.8c-6,7.6-18.1,27.3-18.3,27.5l-0.2,0.4
					l-10.4,9.4c-2.2,3.2-8.4,11.8-14.5,11.8c-0.3,0-0.6,0-0.9-0.1c-2.8-0.4-4.7-1.8-6.1-3.7c-0.6,0.9-1.3,1.7-2.2,2.4
					C124.1,201.5,121.6,202.2,119.5,202.2z M128.1,94.9c-16,0-28.9,12.8-29,28.8c0,12,17.2,35.2,28.9,48.8
					c11.2-12.9,29.1-36.6,29.1-48.7c0-7.7-3-14.9-8.4-20.4C143.2,97.9,135.9,94.9,128.1,94.9C128.2,94.9,128.2,94.9,128.1,94.9z"/>
			</g>
		</g>
		<g>
			<g>
				<path class="st1" d="M128.1,134.9C128.1,134.9,128.1,134.9,128.1,134.9c-7.6,0-13.8-6.3-13.8-13.9c0-3.7,1.5-7.3,4.1-9.9
					c2.6-2.6,6.1-4.2,9.7-4.2c0,0,0,0,0,0c3.7,0,7.2,1.6,9.8,4.2c2.6,2.6,4,6.1,4,9.8c0,3.7-1.5,7.3-4.1,9.9
					C135.3,133.4,131.8,134.9,128.1,134.9z M128.1,112.9c-2,0-3.9,1-5.4,2.4c-1.4,1.4-2.2,3.6-2.2,5.7c0,4.2,3.4,7.9,7.6,7.9
					c0,0,0,0,0,0c2,0,3.9-1,5.4-2.4c1.4-1.4,2.2-3.4,2.2-5.5c0-2-0.8-4.2-2.2-5.6C132.1,114,130.2,112.9,128.1,112.9
					C128.2,112.9,128.1,112.9,128.1,112.9z"/>
			</g>
		</g>
	</g>
	<g>
		<g>
			<path class="st1" d="M128.1,241.9c-32.3,0-62.7-12.6-85.5-35.4C19.8,183.6,7.2,153.3,7.2,121c0-16.5,3.3-32.5,9.7-47.6
				c0.7-1.6,2.5-2.3,4.1-1.6c1.6,0.7,2.3,2.5,1.6,4.1c-6.1,14.3-9.2,29.4-9.2,45.1c0,63.3,51.5,114.7,114.7,114.7
				S242.9,184.2,242.9,121S191.4,6.2,128.1,6.2c-14.6,0-28.9,2.7-42.4,8.1c-1.6,0.6-3.4-0.1-4-1.7c-0.6-1.6,0.1-3.4,1.7-4
				C97.7,2.9,112.7,0,128.1,0c32.3,0,62.7,12.6,85.5,35.4c22.8,22.8,35.4,53.2,35.4,85.5c0,32.3-12.6,62.7-35.4,85.5
				C190.8,229.3,160.5,241.9,128.1,241.9z"/>
		</g>
	</g>
	<g>
		<g>
			<path class="st1" d="M156,199.9c-0.6,0-1.2-0.2-1.7-0.5c-0.3-0.2-6.6-4.6-6-14.2c0.1-1.7,1.6-3,3.3-2.9c1.7,0.1,3,1.6,2.9,3.3
				c-0.2,3.6,1,6,2,7.4c1.1-0.8,2.3-1.7,2.9-2.5c0.3-0.3,0.7-0.9,1.2-1.5c2.7-3.3,9-11.2,11-15.9c2.1-4.7,12.2-17,22.4-29.2
				c2-2.4,3.5-4.2,4.3-5.2c1.7-2.1-1.4-9-3-12.3c-0.4-0.9-0.8-1.8-1.2-2.6c-0.5-1.1-2.6-5.2-5-9.8c-7.2-13.7-19.1-36.6-21.8-46.7
				c-0.4-1.7,0.5-3.4,2.2-3.8c1.7-0.4,3.4,0.5,3.8,2.2c2.5,9.4,14.3,32,21.3,45.4c3.1,5.9,4.7,9,5.2,10.3c0.3,0.7,0.7,1.5,1.1,2.4
				c2.6,5.7,6.2,13.6,2.2,18.7c-0.8,1-2.4,2.9-4.4,5.3c-6.4,7.6-19.6,23.4-21.5,27.7c-2.4,5.5-8.8,13.5-11.9,17.3
				c-0.5,0.6-0.9,1.1-1.1,1.4c-2.2,2.9-6.4,5.2-6.8,5.4C157,199.8,156.5,199.9,156,199.9z"/>
		</g>
	</g>
</g>
</svg>
