<?xml version="1.0" encoding="utf-8"?>
<!-- Generator: Adobe Illustrator 19.1.0, SVG Export Plug-In . SVG Version: 6.00 Build 0)  -->
<svg version="1.1" id="Calque_1" xmlns="http://www.w3.org/2000/svg" xmlns:xlink="http://www.w3.org/1999/xlink" x="0px" y="0px"
	 viewBox="0 0 219.3 219.3" style="enable-background:new 0 0 219.3 219.3;" xml:space="preserve">
<style type="text/css">
	.st0{fill-rule:evenodd;clip-rule:evenodd;fill:#FFFFFF;}
	.st1{fill:#FFFFFF;}
	.st2{fill:#ED6754;}
	.st3{fill-rule:evenodd;clip-rule:evenodd;fill:#8CC63F;}
	.st4{fill-rule:evenodd;clip-rule:evenodd;fill:#595959;}
	.st5{fill:#8CC63F;}
	.st6{fill:#595959;}
	.st7{fill:#999999;}
	.st8{fill:#29ABE2;}
	.st9{fill:#FBB07F;}
	.st10{fill:#0071BC;}
	.st11{fill:#CBE021;}
	.st12{fill:#00A99D;}
	.st13{fill:#FF99AC;}
	.st14{fill:none;stroke:#8CC63F;stroke-width:5;stroke-miterlimit:10;}
	.st15{fill:none;stroke:#CBE021;stroke-width:5;stroke-miterlimit:10;}
	.st16{fill:none;stroke:#FBB07F;stroke-width:5;stroke-miterlimit:10;}
	.st17{fill:none;stroke:#00A99D;stroke-width:5;stroke-miterlimit:10;}
	.st18{fill:none;stroke:#29ABE2;stroke-width:5;stroke-miterlimit:10;}
	.st19{fill:none;stroke:#0071BC;stroke-width:5;stroke-miterlimit:10;}
	.st20{fill:none;stroke:#ED6754;stroke-width:5;stroke-miterlimit:10;}
	.st21{fill:none;stroke:#FF99AC;stroke-width:5;stroke-miterlimit:10;}
	.st22{fill:none;stroke:#999999;stroke-width:5;stroke-miterlimit:10;}
</style>
<g>
	<g>
		<path class="st5" d="M109.7,0c60.6,0,109.7,49.1,109.7,109.7s-49.1,109.7-109.7,109.7S0,170.2,0,109.7S49.1,0,109.7,0"/>
	</g>
	<g>
		<path class="st1" d="M154.7,86.9c-2.1,0-3.8-1.7-3.8-3.8V70.4c0-11.8-9.6-21.4-21.4-21.4H89.9c-11.8,0-21.4,9.6-21.4,21.4v12.7
			c0,2.1-1.7,3.8-3.8,3.8s-3.8-1.7-3.8-3.8V70.4c0-16,13-29,29-29h39.6c16,0,29,13,29,29v12.7C158.5,85.2,156.8,86.9,154.7,86.9z"/>
	</g>
	<g>
		<path class="st1" d="M70.1,172.2c-2.1,0-3.8-1.7-3.8-3.8V96.5c0-5.7-4.3-10.2-9.8-10.2c-5.5,0-9.8,4.5-9.8,10.2
			c0,5.7,4.4,10.2,9.9,10.2c2.1,0,3.8,1.7,3.8,3.8s-1.7,3.8-3.8,3.8c-9.7,0-17.6-8-17.6-17.9c0-10,7.7-17.9,17.5-17.9
			S74,86.5,74,96.5v71.8C74,170.4,72.3,172.2,70.1,172.2z"/>
	</g>
	<g>
		<path class="st1" d="M158.3,172h-97c-6.8,0-12.4-5.6-12.4-12.5v-46.1c0-2.1,1.7-3.8,3.8-3.8s3.8,1.7,3.8,3.8v46.1
			c0,2.6,2.1,4.8,4.7,4.8h97c2.6,0,4.7-2.2,4.7-4.8v-46.4c0-2.1,1.7-3.8,3.8-3.8s3.8,1.7,3.8,3.8v46.4
			C170.7,166.4,165.1,172,158.3,172z"/>
	</g>
	<g>
		<path class="st1" d="M147.9,117.3H70.1c-2.1,0-3.8-1.7-3.8-3.8s1.7-3.8,3.8-3.8h77.8c2.1,0,3.8,1.7,3.8,3.8S150,117.3,147.9,117.3
			z"/>
	</g>
	<g>
		<path class="st1" d="M149.2,171.2c-2.1,0-3.8-1.7-3.8-3.8V95.5c0-9.8,8-17.8,17.8-17.8s17.8,8,17.8,17.9c0,9.9-8,17.9-17.8,17.9
			c-2.1,0-3.8-1.7-3.8-3.8s1.7-3.8,3.8-3.8c5.6,0,10.1-4.6,10.1-10.2c0-5.6-4.5-10.2-10.1-10.2S153,89.9,153,95.5v71.8
			C153,169.5,151.3,171.2,149.2,171.2z"/>
	</g>
</g>
</svg>
