<?xml version="1.0" encoding="utf-8"?>
<!-- Generator: Adobe Illustrator 19.1.0, SVG Export Plug-In . SVG Version: 6.00 Build 0)  -->
<svg version="1.1" id="Calque_1" xmlns="http://www.w3.org/2000/svg" xmlns:xlink="http://www.w3.org/1999/xlink" x="0px" y="0px"
	 viewBox="0 0 226.1 226.1" style="enable-background:new 0 0 226.1 226.1;" xml:space="preserve">
<style type="text/css">
	.st0{fill-rule:evenodd;clip-rule:evenodd;fill:#FFFFFF;}
	.st1{fill:#FFFFFF;}
	.st2{fill:#ED6754;}
	.st3{fill-rule:evenodd;clip-rule:evenodd;fill:#8CC63F;}
	.st4{fill-rule:evenodd;clip-rule:evenodd;fill:#595959;}
	.st5{fill:#8CC63F;}
	.st6{fill:#595959;}
	.st7{fill:#999999;}
	.st8{fill:#29ABE2;}
	.st9{fill:#FBB07F;}
	.st10{fill:#0071BC;}
	.st11{fill:#CBE021;}
	.st12{fill:#00A99D;}
	.st13{fill:#FF99AC;}
	.st14{fill:none;stroke:#8CC63F;stroke-width:5;stroke-miterlimit:10;}
	.st15{fill:none;stroke:#CBE021;stroke-width:5;stroke-miterlimit:10;}
	.st16{fill:none;stroke:#FBB07F;stroke-width:5;stroke-miterlimit:10;}
	.st17{fill:none;stroke:#00A99D;stroke-width:5;stroke-miterlimit:10;}
	.st18{fill:none;stroke:#29ABE2;stroke-width:5;stroke-miterlimit:10;}
	.st19{fill:none;stroke:#0071BC;stroke-width:5;stroke-miterlimit:10;}
	.st20{fill:none;stroke:#ED6754;stroke-width:5;stroke-miterlimit:10;}
	.st21{fill:none;stroke:#FF99AC;stroke-width:5;stroke-miterlimit:10;}
	.st22{fill:none;stroke:#999999;stroke-width:5;stroke-miterlimit:10;}
</style>
<g id="location_-_pin_map_9_">
	<g>
		<path class="st0" d="M-364.9-937.8l6.6-22h-4.4l-8.8,26.4h26.4l-4.4-4.4H-364.9z M-336.3-990.6c-6.1,0-11,4.9-11,11
			c0,6.1,4.9,11,11,11c6.1,0,11-4.9,11-11C-325.3-985.7-330.2-990.6-336.3-990.6z M-336.3-973c-3.6,0-6.6-3-6.6-6.6
			c0-3.6,3-6.6,6.6-6.6c3.6,0,6.6,3,6.6,6.6C-329.7-975.9-332.6-973-336.3-973z M-336.3-1003.8c-14.6,0-26.4,11.8-26.4,26.4
			c0,14.6,26.4,44,26.4,44s26.4-29.4,26.4-44C-309.9-992-321.7-1003.8-336.3-1003.8z M-358.3-977.1c0-12.3,9.8-22.3,22-22.3
			c12.1,0,22,10,22,22.3c0,12.3-22,37.1-22,37.1S-358.3-964.8-358.3-977.1z M-309.9-959.8h-4.4l6.6,22h-15.4l-4.4,4.4h26.4
			L-309.9-959.8z"/>
	</g>
</g>
<g>
	<path class="st1" d="M-337.6-888.1c-43.1,0-78.2-35.1-78.2-78.2s35.1-78.2,78.2-78.2s78.2,35.1,78.2,78.2S-294.4-888.1-337.6-888.1
		z M-337.6-1039.6c-40.4,0-73.2,32.9-73.2,73.2c0,40.4,32.9,73.2,73.2,73.2s73.2-32.9,73.2-73.2
		C-264.3-1006.8-297.2-1039.6-337.6-1039.6z"/>
</g>
<g>
	<path class="st1" d="M-337.6-1107.1c-43.1,0-78.2-35.1-78.2-78.2c0-43.1,35.1-78.2,78.2-78.2s78.2,35.1,78.2,78.2
		C-259.3-1142.2-294.4-1107.1-337.6-1107.1z M-337.6-1258.6c-40.4,0-73.2,32.9-73.2,73.2c0,40.4,32.9,73.2,73.2,73.2
		s73.2-32.9,73.2-73.2C-264.3-1225.8-297.2-1258.6-337.6-1258.6z"/>
</g>
<g id="interface_-_bell_notification_8_">
	<g>
		<path class="st0" d="M-328.8-1219.8c-11.9-3.1-24.1,3.8-27.3,15.5c0,0-0.8,3-1.9,7.1l-0.4,1.3l0,0c-0.7,2.6-1.5,5.4-2.2,8.2
			c-1.8,6.7-13.3,14.9-13.3,14.9l25.3,6.7c-0.7,1.5-1.1,3.1-1.1,4.8c0,6.1,4.9,11,11,11c5.8,0,10.6-4.6,11-10.3l14,3.7
			c0,0-5.8-12.6-4-19.3c0.8-2.8,1.6-5.8,2.3-8.4l0,0l1.2-4.2l0,0c0.7-2.6,1.2-4.2,1.2-4.2C-309.9-1204.7-316.9-1216.7-328.8-1219.8z
			 M-338.7-1154.6c-3.6,0-6.6-3-6.6-6.6c0-1.4,0.4-2.6,1.1-3.7l12.1,3.2c0,0.2,0,0.3,0,0.5C-332.1-1157.5-335-1154.6-338.7-1154.6z
			 M-364.1-1174.7c0,0,5.8-5,7.8-11.6l34.4,9.1c-1.8,6.7,0.8,13.8,0.8,13.8L-364.1-1174.7z M-320.8-1181.4l-34.4-9.1
			c0.4-1.5,0.8-2.9,1.2-4.2l34.4,9.1C-320-1184.3-320.4-1182.9-320.8-1181.4z M-352.9-1198.9c0.7-2.6,1.2-4.2,1.2-4.2
			c2.5-9.4,12.3-14.9,21.8-12.4c9.5,2.5,15.1,12.1,12.6,21.5c0,0-0.5,1.7-1.2,4.2L-352.9-1198.9z"/>
	</g>
</g>
<g>
	<path class="st1" d="M-337.6-1326.1c-43.1,0-78.2-35.1-78.2-78.2s35.1-78.2,78.2-78.2s78.2,35.1,78.2,78.2
		S-294.4-1326.1-337.6-1326.1z M-337.6-1477.6c-40.4,0-73.2,32.9-73.2,73.2s32.9,73.2,73.2,73.2s73.2-32.9,73.2-73.2
		S-297.2-1477.6-337.6-1477.6z"/>
</g>
<g id="setting_-_gear_9_">
	<g>
		<path class="st0" d="M-337.1-1417.7c-7.3,0-13.2,5.9-13.2,13.2c0,7.3,5.9,13.2,13.2,13.2c7.3,0,13.2-5.9,13.2-13.2
			C-323.9-1411.7-329.8-1417.7-337.1-1417.7z M-337.1-1395.6c-4.9,0-8.8-3.9-8.8-8.8c0-4.9,4-8.8,8.8-8.8c4.9,0,8.8,4,8.8,8.8
			C-328.3-1399.6-332.3-1395.6-337.1-1395.6z M-301.8-1404.4c0-4.6-3.5-8.4-8-8.8c-0.5-1.5-1.1-2.9-1.8-4.3
			c2.9-3.5,2.7-8.6-0.6-11.9c-3.2-3.2-8.4-3.4-11.9-0.6c-1.4-0.7-2.8-1.3-4.3-1.8c-0.4-4.5-4.2-8-8.8-8c-4.6,0-8.4,3.5-8.8,8
			c-1.5,0.5-2.9,1.1-4.3,1.8c-3.5-2.9-8.6-2.7-11.9,0.6c-3.2,3.2-3.4,8.4-0.6,11.9c-0.7,1.4-1.3,2.8-1.8,4.3c-4.5,0.4-8,4.2-8,8.8
			c0,4.6,3.5,8.4,8,8.8c0.5,1.5,1.1,2.9,1.8,4.3c-2.9,3.5-2.7,8.6,0.6,11.9c3.2,3.2,8.4,3.4,11.9,0.6c1.4,0.7,2.8,1.3,4.3,1.8
			c0.4,4.5,4.2,8,8.8,8c4.6,0,8.4-3.5,8.8-8c1.5-0.5,2.9-1.1,4.3-1.8c3.5,2.9,8.6,2.7,11.9-0.6c3.2-3.3,3.4-8.4,0.6-11.9
			c0.7-1.4,1.3-2.8,1.8-4.3C-305.4-1396.1-301.8-1399.8-301.8-1404.4z M-313.3-1400c-0.6,3.4-2,6.6-3.9,9.3l1.9,1.9
			c1.7,1.7,1.7,4.5,0,6.2c-1.7,1.7-4.5,1.7-6.2,0l-1.9-1.9c-2.8,1.9-5.9,3.3-9.3,3.9v2.6c0,2.4-2,4.4-4.4,4.4c-2.4,0-4.4-2-4.4-4.4
			v-2.6c-3.4-0.6-6.6-2-9.3-3.9l-1.9,1.9c-1.7,1.7-4.5,1.7-6.2,0c-1.7-1.7-1.7-4.5,0-6.2l1.9-1.9c-1.9-2.8-3.3-5.9-3.9-9.3h-2.6
			c-2.4,0-4.4-2-4.4-4.4c0-2.4,2-4.4,4.4-4.4h2.6c0.6-3.4,2-6.6,3.9-9.3l-1.9-1.9c-1.7-1.7-1.7-4.5,0-6.2c1.7-1.7,4.5-1.7,6.2,0
			l1.9,1.9c2.8-1.9,5.9-3.3,9.3-3.9v-2.6c0-2.4,2-4.4,4.4-4.4c2.4,0,4.4,2,4.4,4.4v2.6c3.4,0.6,6.6,2,9.3,3.9l1.9-1.9
			c1.7-1.7,4.5-1.7,6.2,0c1.7,1.7,1.7,4.5,0,6.2l-1.9,1.9c1.9,2.8,3.3,5.9,3.9,9.3h2.6c2.4,0,4.4,2,4.4,4.4c0,2.4-2,4.4-4.4,4.4
			H-313.3z"/>
	</g>
</g>
<path class="st1" d="M-301.6-1864.6c-77.8,0-141.1,63.3-141.1,141.1s63.3,141.1,141.1,141.1s141.1-63.3,141.1-141.1
	S-223.8-1864.6-301.6-1864.6z"/>
<g>
	<path class="st2" d="M-347.8-1774.1c0.8,2.2,2.9,3.8,5.3,3.8c0.6,0,1.3-0.1,1.9-0.3c1.4-0.5,2.6-1.5,3.2-2.9
		c0.6-1.4,0.7-2.9,0.2-4.3l-7.1-19.9c-0.5-1.4-1.5-2.6-2.9-3.2c-1.4-0.6-2.9-0.7-4.3-0.2c-2.9,1-4.5,4.3-3.4,7.2L-347.8-1774.1z"/>
	<path class="st2" d="M-301.7-1777.6L-301.7-1777.6c3.1,0,5.6-2.5,5.6-5.6l0-21.2c0-3.1-2.5-5.6-5.6-5.6c-3.1,0-5.6,2.5-5.6,5.6
		l0,21.2C-307.3-1780.1-304.8-1777.6-301.7-1777.6z"/>
	<path class="st2" d="M-262.7-1770.7L-262.7-1770.7c0.6,0,1.3,0.3,1.9,0.3c2.4,0,4.5-1.5,5.3-3.8l7.1-19.9c1-2.9-0.5-6.2-3.4-7.2
		c-2.9-1-6.2,0.5-7.2,3.4l-7.1,19.9C-267.2-1775-265.6-1771.7-262.7-1770.7z"/>
	<path class="st2" d="M-208-1775.6c-1.2-1-2.6-1.4-4.1-1.2c-1.5,0.2-2.9,0.9-3.8,2.1l-13.3,16.3c-1,1.2-1.4,2.6-1.2,4.1
		c0.2,1.5,0.9,2.9,2.1,3.8c1,0.8,2.3,1.3,3.6,1.3c1.7,0,3.3-0.8,4.4-2.1l13.3-16.3C-205.2-1770.1-205.6-1773.6-208-1775.6z"/>
	<path class="st2" d="M-378.5-1749.3c1.3,0,2.5-0.4,3.6-1.3c1.2-1,1.9-2.3,2.1-3.8c0.2-1.5-0.3-3-1.2-4.1l-13.3-16.4
		c-0.9-1.2-2.3-1.9-3.8-2.1c-1.5-0.2-3,0.3-4.2,1.2c-2.4,2-2.8,5.5-0.8,7.9l13.3,16.3C-381.8-1750.1-380.2-1749.3-378.5-1749.3z"/>
	<path class="st2" d="M-301.9-1763.6c-50.9,0-80,33.6-90.2,48.1c-3.8,5.4-3.8,12.7,0,18.1c10.2,14.5,39.4,48.1,90.2,48.1
		c51.3,0,80.2-33.6,90.3-48.1c3.8-5.5,3.8-12.5,0-18C-221.8-1730-250.9-1763.6-301.9-1763.6z M-220.9-1703.9
		c-9.1,13-35.1,43.3-81,43.3c-45.5,0-71.8-30.3-81-43.3c-1.1-1.5-1.1-3.5,0-5.1c9.2-13,35.4-43.3,81-43.3c45.8,0,71.9,30.3,81,43.3
		C-219.8-1707.5-219.8-1705.5-220.9-1703.9z"/>
	<path class="st2" d="M-301.8-1737.9c-17.3,0-31.4,14.1-31.4,31.4s14.1,31.4,31.4,31.4s31.4-14.1,31.4-31.4
		S-284.5-1737.9-301.8-1737.9z M-281.7-1706.5c0,11.1-9,20.1-20.1,20.1c-11.1,0-20.1-9-20.1-20.1s9-20.1,20.1-20.1
		C-290.7-1726.6-281.7-1717.6-281.7-1706.5z"/>
</g>
<g id="interface_-_arrow_left_7_">
	<g>
		<path class="st0" d="M225.4-1725.7h-38.9l18.3-16.7c0.8-0.8,0.8-2,0-2.8c-0.8-0.8-2-0.8-2.8,0l-21.6,19.7
			c-0.2,0.1-0.3,0.2-0.5,0.3c-0.4,0.4-0.6,0.9-0.6,1.4c0,0,0,0,0,0c0,0,0,0,0,0c0,0.5,0.2,1,0.6,1.4c0.1,0.1,0.3,0.3,0.5,0.3
			l21.6,19.7c0.8,0.8,2,0.8,2.8,0c0.8-0.8,0.8-2,0-2.8l-18.3-16.7h38.9c1.1,0,2-0.9,2-2S226.5-1725.7,225.4-1725.7z"/>
	</g>
</g>
<g id="interface_-_arrow_left_1_">
	<g>
		<path class="st3" d="M225.4-1830.7h-38.9l18.3-16.7c0.8-0.8,0.8-2,0-2.8c-0.8-0.8-2-0.8-2.8,0l-21.6,19.7
			c-0.2,0.1-0.3,0.2-0.5,0.3c-0.4,0.4-0.6,0.9-0.6,1.4c0,0,0,0,0,0c0,0,0,0,0,0c0,0.5,0.2,1,0.6,1.4c0.1,0.1,0.3,0.3,0.5,0.3
			l21.6,19.7c0.8,0.8,2,0.8,2.8,0c0.8-0.8,0.8-2,0-2.8l-18.3-16.7h38.9c1.1,0,2-0.9,2-2S226.5-1830.7,225.4-1830.7z"/>
	</g>
</g>
<g id="interface_-_clock_time_7_">
	<g>
		<path class="st4" d="M212.4-1535.7c-13.3,0-24,10.8-24,24s10.8,24,24,24c13.3,0,24-10.8,24-24S225.7-1535.7,212.4-1535.7z
			 M212.4-1490.7c-11.6,0-21-9.4-21-21s9.4-21,21-21c11.6,0,21,9.4,21,21S224.1-1490.7,212.4-1490.7z M224.5-1511.7h-12v-12
			c0-0.8-0.7-1.5-1.5-1.5c-0.8,0-1.5,0.7-1.5,1.5v13.5c0,0,0,0,0,0.1c0,0.3,0.1,0.6,0.3,0.8c0.3,0.4,0.7,0.7,1.2,0.7
			c0,0,0.1,0,0.1,0h13.4c0.8,0,1.5-0.7,1.5-1.5C226-1511,225.3-1511.7,224.5-1511.7z"/>
	</g>
</g>
<g>
	<circle class="st5" cx="-99.3" cy="-1180.9" r="84.2"/>
	<g>
		<path class="st1" d="M-99.3-1190.7C-99.3-1190.7-99.3-1190.7-99.3-1190.7c-2.8,0-5.4,0.8-7.4,2.7c-2,2-3.1,4.3-3.1,7.1
			c0,5.7,4.6,10.2,10.4,10.2c0,0,0,0,0,0c2.8,0,5.4-0.8,7.3-2.8c2-2,3.1-4.3,3.1-7.1c0-2.8-1.1-5.3-3-7.2S-96.5-1190.7-99.3-1190.7z
			 M-96.3-1177.8c-0.8,0.8-1.9,1.1-3,1.1c0,0,0,0,0,0c-2.4,0-4.3-1.7-4.3-4.1c0-1.2,0.5-2,1.3-2.8c0.8-0.8,1.9-1.1,3-1.1
			c0,0,0,0,0,0c1.2,0,2.2,0.2,3.1,1.1c0.8,0.8,1.3,1.7,1.3,2.9C-95-1179.6-95.5-1178.6-96.3-1177.8z"/>
		<path class="st1" d="M-48.4-1179.1c-0.3-0.6-0.5-1.2-0.7-1.6c-0.4-0.9-1.5-3.1-3.6-7.2c-4.3-8.2-12.1-23.2-14.3-30.1
			c-0.1-0.2-0.1-0.3-0.2-0.5c0-0.1-0.1-0.3-0.1-0.4c0,0,0-0.1,0-0.1c-1.5-4.7-3.9-9.3-8.8-11.4c-1.3-0.6-4.1-1.4-7.9-2.6
			c-6.7-2.1-15.8-4.9-21.1-7.5c-4.1-2-9.2-3.8-13.7-5.4c-4.5-1.6-9.6-3.4-11-4.5l-0.2-0.2c-5.5-3.6-13.3-10.8-13.3-10.8
			c-1.2-1.1-3.2-1.1-4.3,0.2c-1.1,1.2-1.1,3.2,0.2,4.3c0.3,0.3,8.1,7.4,14,11.4c2.2,1.6,6.2,3.1,12.7,5.4c4.4,1.6,9.4,3.3,13.1,5.1
			c5.7,2.8,15.1,5.7,22,7.8c3.2,1,6.3,2,7.3,2.4c2.8,1.2,4.4,4.2,5.5,7.8c0.1,0.4,0.2,0.8,0.4,1.3c0.4,1.3,0.7,2.6,1,3.9
			c0.8,3.2,1.5,6.1,2.8,8.6c3.8,7.2,7,29,6.9,32.5c0,1.2-0.4,1.8-2.5,4c-1,1.1-2.3,2.5-3.8,4.4c-3.9,5-11.2,16.7-12.7,19l-7.1,6.4
			l-0.2,0.3c-1.9,2.9-4.6,5.7-5.8,6c-1-0.2-1.5-2.1-1.8-6.2c-0.1-1.6-0.2-2.9-0.3-3.9c1.9-2.1,6.2-7.2,10.5-13.3
			c7.6-10.6,11.4-18.7,11.5-24.3c0-13.8-11.2-25-25-25c0,0,0,0-0.1,0c-13.8,0-25.1,11.1-25.1,24.9c0,11.8,16.8,31.9,21.9,37.7
			c0,1.4,0.2,3.4,0.4,4.3c0.2,0.9,0.2,4.6-1.6,6c-0.9,0.7-1.5,0.7-1.8,0.7c-3.4-3.4-12.6-12.3-16.6-13.7c-3.3-1.2-5.1-2.4-6-6.2
			c-1.2-4.7-7.5-20.2-10.9-23.3c-1-0.9-3.5-6.6-5.3-12.1l-14.7-31.5l-9.1-7l-15.6-9.7c-1.4-0.9-3.3-0.4-4.2,1
			c-0.9,1.4-0.4,3.3,1,4.2l15.2,9.4l7.8,6l13.8,29.7c1,3,4.1,11.9,6.9,14.4c1.8,1.7,7.8,15.2,9.1,20.4c1.7,6.8,5.8,9,9.9,10.5
			c1.9,0.7,9.1,7.1,14.7,12.7l0.3,0.3l0.3,0.2c0.8,0.5,2.1,0.9,3.6,0.9c1.6,0,3.6-0.5,5.5-2.1c0.3-0.3,0.6-0.6,0.9-0.9
			c1,1,2.3,1.8,4,2c3.5,0.5,7.1-2.8,9.5-5.7c1,2.3,2.5,3.9,3.5,4.6c0.5,0.3,1.1,0.5,1.7,0.5c0.5,0,1-0.1,1.4-0.4
			c0.3-0.2,3.3-1.8,5-4c0.2-0.2,0.4-0.5,0.8-1c2.1-2.7,6.6-8.2,8.3-12.1c1.2-2.8,10.6-14,14.6-18.8c1.4-1.7,2.5-3,3-3.7
			C-43.9-1169.3-46.6-1175.2-48.4-1179.1z M-99.4-1146.6c-7.6-9-19-24.4-19-32.1c0-10.5,8.6-18.9,19-18.9c0,0,0,0,0,0
			c10.5,0,19,8.5,19,19C-80.3-1171.4-91-1156.5-99.4-1146.6z M-51.7-1169.1c-0.5,0.7-1.6,1.9-2.9,3.5c-7.1,8.4-14.1,16.9-15.5,20.3
			c-1.4,3.1-5.6,8.5-7.5,10.7c-0.4,0.5-0.7,0.8-0.9,1.1c-0.2,0.3-0.6,0.7-1.1,1c-0.4-0.8-0.8-2-0.7-3.6l4-3.6l0.2-0.4
			c0.1-0.1,8.4-13.6,12.5-18.8c1.3-1.7,2.5-2.9,3.5-3.9c2.2-2.3,4.1-4.4,4.2-8.1c0-1.7-0.6-7.1-1.6-13.2c1.4,2.7,2.6,5,2.9,5.6
			c0.2,0.5,0.5,1.2,0.8,1.8C-51.9-1172.3-51.2-1169.8-51.7-1169.1z"/>
	</g>
</g>
<g id="location_-_pin_map_23_">
	<g>
		<path class="st4" d="M198.8-1445.3c-5.7,0-10.4,4.6-10.4,10.4c0,5.7,10.4,17.3,10.4,17.3s10.4-11.5,10.4-17.3
			C209.1-1440.6,204.5-1445.3,198.8-1445.3z M190.1-1434.8c0-4.8,3.9-8.7,8.6-8.7c4.8,0,8.6,3.9,8.6,8.7c0,4.8-8.6,14.6-8.6,14.6
			S190.1-1430,190.1-1434.8z M198.8-1440.1c-2.4,0-4.3,1.9-4.3,4.3c0,2.4,1.9,4.3,4.3,4.3c2.4,0,4.3-1.9,4.3-4.3
			C203.1-1438.2,201.2-1440.1,198.8-1440.1z M198.8-1433.2c-1.4,0-2.6-1.2-2.6-2.6c0-1.4,1.2-2.6,2.6-2.6s2.6,1.2,2.6,2.6
			C201.4-1434.4,200.2-1433.2,198.8-1433.2z"/>
	</g>
</g>
<g id="user_-_single_7_">
	<g>
		<path class="st6" d="M202.8-1379.2c2.4-1.4,4-3.9,4-6.9c0-4.3-3.5-7.9-7.9-7.9s-7.9,3.5-7.9,7.9c0,2.9,1.6,5.5,4,6.9
			c-3.9,1.5-6.6,5.3-6.6,9.8v1.8h1.8v-1.8c0-4.8,3.9-8.8,8.8-8.8c4.8,0,8.8,3.9,8.8,8.8v1.8h1.8v-1.8
			C209.4-1373.8,206.7-1377.6,202.8-1379.2z M192.8-1386c0-3.4,2.7-6.1,6.1-6.1c3.4,0,6.1,2.7,6.1,6.1c0,3.4-2.7,6.1-6.1,6.1
			C195.5-1379.9,192.8-1382.7,192.8-1386z"/>
	</g>
</g>
<g>
	<circle class="st1" cx="183.9" cy="-1645.2" r="4.5"/>
	<circle class="st1" cx="183.9" cy="-1632.7" r="4.5"/>
	<circle class="st1" cx="183.9" cy="-1620.2" r="4.5"/>
</g>
<g>
	<g>
		<g>
			<path class="st5" d="M-1589.6-1659.2c0,0-0.1,0-0.1,0c-1.7-0.1-3.1-1.5-3-3.2c0.1-2.5-3.7-6-7.2-8.4l-7.2,7
				c-1.2,1.2-3.2,1.2-4.4-0.1c-1.2-1.2-1.2-3.2,0.1-4.4l9-8.7c1-1,2.5-1.2,3.7-0.5c0.1,0.1,3,1.7,5.9,4.2c4.3,3.7,6.5,7.4,6.3,11
				C-1586.5-1660.6-1587.9-1659.2-1589.6-1659.2z"/>
		</g>
	</g>
	<g>
		<g>
			<g>
				<path class="st5" d="M-1596-1652.4c-1.9,0-3.5-0.6-4.5-1.2l-0.3-0.2l-0.3-0.3c-7.1-7.1-18.5-17.6-21.9-18.8
					c-5.7-2-11.2-5.1-13.6-14.3c-2-8-10.9-27.7-13.7-30.2c-3.9-3.6-8.6-17.3-9.7-20.5l-20.3-43.6l-11.6-9l-22.2-13.8
					c-1.5-0.9-1.9-2.8-1-4.3c0.9-1.5,2.8-1.9,4.3-1l22.4,13.9l13.1,10.2l21.1,45.4c2.5,7.4,6.2,16.4,8.1,18.1
					c4.4,4,13.6,25.9,15.5,33.3c1.5,6.1,4.6,8.2,9.6,10c5.7,2,20.1,16.1,23.8,19.9c0.7,0.2,2.2,0.5,4.2-1.1c3-2.5,3.1-8.2,2.7-10.1
					c-0.3-1.3-0.5-4.5-0.5-6.5c-6.8-7.8-31.8-37.4-31.8-54.3c0-19.4,15.8-34.9,35.2-34.9c0,0,0.1,0,0.1,0c9.4,0,18.2,3.4,24.9,10.1
					c6.6,6.7,10.3,15.4,10.3,24.8c0,17.1-26,47.5-32.1,54.4c0.1,1.4,0.3,3.5,0.5,6.2c0.6,7.1,1.6,9.9,3.9,10.2
					c1.6,0.2,6.3-4.4,9.5-9.3l0.2-0.3l10.3-9.3c1.8-2.9,12.6-20.3,18.4-27.7c2.1-2.7,4-4.7,5.5-6.2c3-3.2,4-4.4,4.1-6.7
					c0.1-5.1-4.6-37.2-10.2-47.9c-1.8-3.4-2.8-7.7-4-12.2c-2-8.2-4.1-16.8-10.7-19.7c-1.5-0.7-5.8-2-10.7-3.5
					c-9.9-3.1-23.5-7.4-31.8-11.3c-5.5-2.7-12.8-5.2-19.2-7.5c-8.3-3-15-5.3-18.1-7.7c-8.5-5.7-19.8-16-20.3-16.4
					c-1.3-1.2-1.3-3.1-0.2-4.4c1.2-1.3,3.1-1.3,4.4-0.2c0.1,0.1,11.5,10.5,19.6,15.9l0.2,0.2c2.3,1.8,9.5,4.3,16.4,6.8
					c6.6,2.3,14,5,19.8,7.8c7.8,3.8,21.2,8,30.9,11c5.5,1.7,9.5,3,11.3,3.8c9.4,4.1,12,14.6,14.3,23.9c1,4.1,2,8,3.4,10.8
					c6.3,11.9,11,45.2,10.9,50.9c-0.1,4.9-2.6,7.5-5.7,10.9c-1.5,1.6-3.2,3.4-5.1,5.8c-6,7.6-18.1,27.3-18.3,27.5l-0.2,0.4
					l-10.4,9.4c-2.2,3.2-8.4,11.8-14.5,11.8c-0.3,0-0.6,0-0.9-0.1c-2.8-0.4-4.7-1.8-6.1-3.7c-0.6,0.9-1.3,1.7-2.2,2.4
					C-1591.4-1653.1-1593.9-1652.4-1596-1652.4z M-1587.3-1759.7c-16,0-28.9,12.8-29,28.8c0,12,17.2,35.2,28.9,48.8
					c11.2-12.9,29.1-36.6,29.1-48.7c0-7.7-3-14.9-8.4-20.4C-1572.2-1756.7-1579.5-1759.7-1587.3-1759.7
					C-1587.3-1759.7-1587.3-1759.7-1587.3-1759.7z"/>
			</g>
		</g>
		<g>
			<g>
				<path class="st5" d="M-1587.3-1719.7C-1587.3-1719.7-1587.3-1719.7-1587.3-1719.7c-7.6,0-13.8-6.3-13.8-13.9
					c0-3.7,1.5-7.3,4.1-9.9c2.6-2.6,6.1-4.2,9.7-4.2c0,0,0,0,0,0c3.7,0,7.2,1.6,9.8,4.2s4,6.1,4,9.8c0,3.7-1.5,7.3-4.1,9.9
					C-1580.2-1721.2-1583.6-1719.7-1587.3-1719.7z M-1587.3-1741.7c-2,0-3.9,1-5.4,2.4c-1.4,1.4-2.2,3.6-2.2,5.7
					c0,4.2,3.4,7.9,7.6,7.9c0,0,0,0,0,0c2,0,3.9-1,5.4-2.4c1.4-1.4,2.2-3.4,2.2-5.5c0-2-0.8-4.2-2.2-5.6
					C-1583.4-1740.6-1585.3-1741.7-1587.3-1741.7C-1587.3-1741.7-1587.3-1741.7-1587.3-1741.7z"/>
			</g>
		</g>
	</g>
	<g>
		<g>
			<path class="st5" d="M-1587.3-1612.7c-32.3,0-62.7-12.6-85.5-35.4c-22.8-22.8-35.4-53.2-35.4-85.5c0-16.5,3.3-32.5,9.7-47.6
				c0.7-1.6,2.5-2.3,4.1-1.6c1.6,0.7,2.3,2.5,1.6,4.1c-6.1,14.3-9.2,29.4-9.2,45.1c0,63.3,51.5,114.7,114.7,114.7
				s114.7-51.5,114.7-114.7s-51.5-114.7-114.7-114.7c-14.6,0-28.9,2.7-42.4,8.1c-1.6,0.6-3.4-0.1-4-1.7c-0.6-1.6,0.1-3.4,1.7-4
				c14.2-5.7,29.3-8.5,44.7-8.5c32.3,0,62.7,12.6,85.5,35.4c22.8,22.8,35.4,53.2,35.4,85.5c0,32.3-12.6,62.7-35.4,85.5
				C-1524.6-1625.3-1555-1612.7-1587.3-1612.7z"/>
		</g>
	</g>
	<g>
		<g>
			<path class="st5" d="M-1559.4-1654.7c-0.6,0-1.2-0.2-1.7-0.5c-0.3-0.2-6.6-4.6-6-14.2c0.1-1.7,1.6-3,3.3-2.9
				c1.7,0.1,3,1.6,2.9,3.3c-0.2,3.6,1,6,2,7.4c1.1-0.8,2.3-1.7,2.9-2.5c0.3-0.3,0.7-0.9,1.2-1.5c2.7-3.3,9-11.2,11-15.9
				c2.1-4.7,12.2-17,22.4-29.2c2-2.4,3.5-4.2,4.3-5.2c1.7-2.1-1.4-9-3-12.3c-0.4-0.9-0.8-1.8-1.2-2.6c-0.5-1.1-2.6-5.2-5-9.8
				c-7.2-13.7-19.1-36.6-21.8-46.7c-0.4-1.7,0.5-3.4,2.2-3.8c1.7-0.4,3.4,0.5,3.8,2.2c2.5,9.4,14.3,32,21.3,45.4
				c3.1,5.9,4.7,9,5.2,10.3c0.3,0.7,0.7,1.5,1.1,2.4c2.6,5.7,6.2,13.6,2.2,18.7c-0.8,1-2.4,2.9-4.4,5.3
				c-6.4,7.6-19.6,23.4-21.5,27.7c-2.4,5.5-8.8,13.5-11.9,17.3c-0.5,0.6-0.9,1.1-1.1,1.4c-2.2,2.9-6.4,5.2-6.8,5.4
				C-1558.4-1654.8-1558.9-1654.7-1559.4-1654.7z"/>
		</g>
	</g>
	<g>
		<path class="st5" d="M-1734.5-1571.6c0-1.7,0.9-2.7,2.6-2.7h2.1c1.7,0,2.7,1,2.7,2.7v24.6c0,2.5-0.4,4.5-0.4,4.5h0.2
			c0,0,4.8-11.3,18.9-11.3c14.7,0,23.9,11.8,23.9,28.7c0,17.5-10.4,28.8-24.8,28.8c-13.3,0-18.4-11.5-18.4-11.5h-0.2
			c0,0,0.4,1.6,0.4,4v3.6c0,1.5-1,2.5-2.7,2.5h-1.7c-1.7,0-2.6-1-2.6-2.7V-1571.6z M-1710-1502.8c9.8,0,17.8-8.1,17.8-22.1
			c0-13.4-7.2-22.1-17.4-22.1c-9.2,0-17.8,6.6-17.8,22.1C-1727.3-1513.7-1721.6-1502.8-1710-1502.8z"/>
		<path class="st5" d="M-1675.1-1549.7c0-1.7,0.9-2.7,2.6-2.7h2.1c1.7,0,2.7,1,2.7,2.7v30.3c0,8.6,1.3,16.3,11.9,16.3
			c12.6,0,20.3-11,20.3-22.9v-23.6c0-1.7,1-2.7,2.7-2.7h2.1c1.7,0,2.6,1,2.6,2.7v49.5c0,1.7-0.9,2.7-2.6,2.7h-2
			c-1.7,0-2.6-1-2.6-2.7v-6.3c0-2.2,0.3-3.9,0.3-3.9h-0.2c-2.1,5.4-9.5,14.3-21.6,14.3c-13,0-18.4-7-18.4-21.3V-1549.7z"/>
		<path class="st5" d="M-1614.3-1571.6c0-1.7,0.9-2.7,2.6-2.7h2.1c1.7,0,2.7,1,2.7,2.7v59.8c0,6.9,3.3,7.6,5.7,8
			c1.3,0.1,2.3,0.8,2.3,2.4v1.6c0,1.6-0.8,2.7-2.8,2.7c-4.5,0-12.6-1.4-12.6-13.4V-1571.6z"/>
		<path class="st5" d="M-1589.8-1571.6c0-1.7,0.9-2.7,2.6-2.7h2.1c1.7,0,2.7,1,2.7,2.7v40.1h8.8l15.2-19.3c0.9-1.1,1.9-1.6,3.3-1.6
			h2.7c2.2,0,3,1.5,1.5,3.3l-16.6,20.6v0.2l19,27.5c1.2,1.9,0.4,3.3-1.9,3.3h-2.8c-1.5,0-2.4-0.5-3.2-1.9l-17.2-25.6h-9v24.7
			c0,1.7-1,2.7-2.7,2.7h-2.1c-1.7,0-2.6-1-2.6-2.7V-1571.6z"/>
		<path class="st5" d="M-1516.4-1553.8c14.6,0,22.9,10.6,22.9,26.2c0,1.5-1.2,2.7-2.8,2.7h-39.5c0.3,14,9.9,22,21.3,22
			c6.9,0,11.9-3.1,14.4-5c1.5-1,2.7-0.8,3.6,0.7l0.9,1.3c0.8,1.3,0.5,2.6-0.8,3.6c-3,2.2-9.5,6.1-18.4,6.1
			c-16.4,0-28.7-11.8-28.7-28.7C-1543.5-1542.9-1531.2-1553.8-1516.4-1553.8z M-1501-1530.4c-0.4-11.6-7.4-17.3-15.6-17.3
			c-9.2,0-17.2,6.1-18.9,17.3H-1501z"/>
		<path class="st5" d="M-1459.1-1553.8c14.6,0,22.9,10.6,22.9,26.2c0,1.5-1.2,2.7-2.8,2.7h-39.5c0.3,14,9.9,22,21.3,22
			c6.9,0,11.9-3.1,14.4-5c1.5-1,2.7-0.8,3.6,0.7l0.9,1.3c0.8,1.3,0.5,2.6-0.8,3.6c-2.9,2.2-9.5,6.1-18.4,6.1
			c-16.4,0-28.7-11.8-28.7-28.7C-1486.2-1542.9-1474-1553.8-1459.1-1553.8z M-1443.7-1530.4c-0.4-11.6-7.4-17.3-15.6-17.3
			c-9.2,0-17.2,6.1-18.9,17.3H-1443.7z"/>
	</g>
</g>
<g>
	<g>
		<g>
			<path class="st1" d="M-1589.6-1188.2c0,0-0.1,0-0.1,0c-1.7-0.1-3.1-1.5-3-3.2c0.1-2.5-3.7-6-7.2-8.4l-7.2,7
				c-1.2,1.2-3.2,1.2-4.4-0.1c-1.2-1.2-1.2-3.2,0.1-4.4l9-8.7c1-1,2.5-1.2,3.7-0.5c0.1,0.1,3,1.7,5.9,4.2c4.3,3.7,6.5,7.4,6.3,11
				C-1586.5-1189.6-1587.9-1188.2-1589.6-1188.2z"/>
		</g>
	</g>
	<g>
		<g>
			<g>
				<path class="st1" d="M-1596-1181.4c-1.9,0-3.5-0.6-4.5-1.2l-0.3-0.2l-0.3-0.3c-7.1-7.1-18.5-17.6-21.9-18.8
					c-5.7-2-11.2-5.1-13.6-14.3c-2-8-10.9-27.7-13.7-30.2c-3.9-3.6-8.6-17.3-9.7-20.5l-20.3-43.6l-11.6-9l-22.2-13.8
					c-1.5-0.9-1.9-2.8-1-4.3c0.9-1.5,2.8-1.9,4.3-1l22.4,13.9l13.1,10.2l21.1,45.4c2.5,7.4,6.2,16.4,8.1,18.1
					c4.4,4,13.6,25.9,15.5,33.3c1.5,6.1,4.6,8.2,9.6,10c5.7,2,20.1,16.1,23.8,19.9c0.7,0.2,2.2,0.5,4.2-1.1c3-2.5,3.1-8.2,2.7-10.1
					c-0.3-1.3-0.5-4.5-0.5-6.5c-6.8-7.8-31.8-37.4-31.8-54.3c0-19.4,15.8-34.9,35.2-34.9c0,0,0.1,0,0.1,0c9.4,0,18.2,3.4,24.9,10.1
					c6.6,6.7,10.3,15.4,10.3,24.8c0,17.1-26,47.5-32.1,54.4c0.1,1.4,0.3,3.5,0.5,6.2c0.6,7.1,1.6,9.9,3.9,10.2
					c1.6,0.2,6.3-4.4,9.5-9.3l0.2-0.3l10.3-9.3c1.8-2.9,12.6-20.3,18.4-27.7c2.1-2.7,4-4.7,5.5-6.2c3-3.2,4-4.4,4.1-6.7
					c0.1-5.1-4.6-37.2-10.2-47.9c-1.8-3.4-2.8-7.7-4-12.2c-2-8.2-4.1-16.8-10.7-19.7c-1.5-0.7-5.8-2-10.7-3.5
					c-9.9-3.1-23.5-7.4-31.8-11.3c-5.5-2.7-12.8-5.2-19.2-7.5c-8.3-3-15-5.3-18.1-7.7c-8.5-5.7-19.8-16-20.3-16.4
					c-1.3-1.2-1.3-3.1-0.2-4.4c1.2-1.3,3.1-1.3,4.4-0.2c0.1,0.1,11.5,10.5,19.6,15.9l0.2,0.2c2.3,1.8,9.5,4.3,16.4,6.8
					c6.6,2.3,14,5,19.8,7.8c7.8,3.8,21.2,8,30.9,11c5.5,1.7,9.5,3,11.3,3.8c9.4,4.1,12,14.6,14.3,23.9c1,4.1,2,8,3.4,10.8
					c6.3,11.9,11,45.2,10.9,50.9c-0.1,4.9-2.6,7.5-5.7,10.9c-1.5,1.6-3.2,3.4-5.1,5.8c-6,7.6-18.1,27.3-18.3,27.5l-0.2,0.4
					l-10.4,9.4c-2.2,3.2-8.4,11.8-14.5,11.8c-0.3,0-0.6,0-0.9-0.1c-2.8-0.4-4.7-1.8-6.1-3.7c-0.6,0.9-1.3,1.7-2.2,2.4
					C-1591.4-1182.1-1593.9-1181.4-1596-1181.4z M-1587.3-1288.7c-16,0-28.9,12.8-29,28.8c0,12,17.2,35.2,28.9,48.8
					c11.2-12.9,29.1-36.6,29.1-48.7c0-7.7-3-14.9-8.4-20.4C-1572.2-1285.7-1579.5-1288.7-1587.3-1288.7
					C-1587.3-1288.7-1587.3-1288.7-1587.3-1288.7z"/>
			</g>
		</g>
		<g>
			<g>
				<path class="st1" d="M-1587.3-1248.7C-1587.3-1248.7-1587.3-1248.7-1587.3-1248.7c-7.6,0-13.8-6.3-13.8-13.9
					c0-3.7,1.5-7.3,4.1-9.9c2.6-2.6,6.1-4.2,9.7-4.2c0,0,0,0,0,0c3.7,0,7.2,1.6,9.8,4.2s4,6.1,4,9.8c0,3.7-1.5,7.3-4.1,9.9
					C-1580.2-1250.2-1583.6-1248.7-1587.3-1248.7z M-1587.3-1270.7c-2,0-3.9,1-5.4,2.4c-1.4,1.4-2.2,3.6-2.2,5.7
					c0,4.2,3.4,7.9,7.6,7.9c0,0,0,0,0,0c2,0,3.9-1,5.4-2.4c1.4-1.4,2.2-3.4,2.2-5.5c0-2-0.8-4.2-2.2-5.6
					C-1583.4-1269.6-1585.3-1270.7-1587.3-1270.7C-1587.3-1270.7-1587.3-1270.7-1587.3-1270.7z"/>
			</g>
		</g>
	</g>
	<g>
		<g>
			<path class="st1" d="M-1587.3-1141.7c-32.3,0-62.7-12.6-85.5-35.4c-22.8-22.8-35.4-53.2-35.4-85.5c0-16.5,3.3-32.5,9.7-47.6
				c0.7-1.6,2.5-2.3,4.1-1.6c1.6,0.7,2.3,2.5,1.6,4.1c-6.1,14.3-9.2,29.4-9.2,45.1c0,63.3,51.5,114.7,114.7,114.7
				s114.7-51.5,114.7-114.7s-51.5-114.7-114.7-114.7c-14.6,0-28.9,2.7-42.4,8.1c-1.6,0.6-3.4-0.1-4-1.7c-0.6-1.6,0.1-3.4,1.7-4
				c14.2-5.7,29.3-8.5,44.7-8.5c32.3,0,62.7,12.6,85.5,35.4c22.8,22.8,35.4,53.2,35.4,85.5c0,32.3-12.6,62.7-35.4,85.5
				C-1524.6-1154.3-1555-1141.7-1587.3-1141.7z"/>
		</g>
	</g>
	<g>
		<g>
			<path class="st1" d="M-1559.4-1183.7c-0.6,0-1.2-0.2-1.7-0.5c-0.3-0.2-6.6-4.6-6-14.2c0.1-1.7,1.6-3,3.3-2.9
				c1.7,0.1,3,1.6,2.9,3.3c-0.2,3.6,1,6,2,7.4c1.1-0.8,2.3-1.7,2.9-2.5c0.3-0.3,0.7-0.9,1.2-1.5c2.7-3.3,9-11.2,11-15.9
				c2.1-4.7,12.2-17,22.4-29.2c2-2.4,3.5-4.2,4.3-5.2c1.7-2.1-1.4-9-3-12.3c-0.4-0.9-0.8-1.8-1.2-2.6c-0.5-1.1-2.6-5.2-5-9.8
				c-7.2-13.7-19.1-36.6-21.8-46.7c-0.4-1.7,0.5-3.4,2.2-3.8c1.7-0.4,3.4,0.5,3.8,2.2c2.5,9.4,14.3,32,21.3,45.4
				c3.1,5.9,4.7,9,5.2,10.3c0.3,0.7,0.7,1.5,1.1,2.4c2.6,5.7,6.2,13.6,2.2,18.7c-0.8,1-2.4,2.9-4.4,5.3
				c-6.4,7.6-19.6,23.4-21.5,27.7c-2.4,5.5-8.8,13.5-11.9,17.3c-0.5,0.6-0.9,1.1-1.1,1.4c-2.2,2.9-6.4,5.2-6.8,5.4
				C-1558.4-1183.8-1558.9-1183.7-1559.4-1183.7z"/>
		</g>
	</g>
	<g>
		<path class="st1" d="M-1734.5-1100.6c0-1.7,0.9-2.7,2.6-2.7h2.1c1.7,0,2.7,1,2.7,2.7v24.6c0,2.5-0.4,4.5-0.4,4.5h0.2
			c0,0,4.8-11.3,18.9-11.3c14.7,0,23.9,11.8,23.9,28.7c0,17.5-10.4,28.8-24.8,28.8c-13.3,0-18.4-11.5-18.4-11.5h-0.2
			c0,0,0.4,1.6,0.4,4v3.6c0,1.5-1,2.5-2.7,2.5h-1.7c-1.7,0-2.6-1-2.6-2.7V-1100.6z M-1710-1031.8c9.8,0,17.8-8.1,17.8-22.1
			c0-13.4-7.2-22.1-17.4-22.1c-9.2,0-17.8,6.6-17.8,22.1C-1727.3-1042.7-1721.6-1031.8-1710-1031.8z"/>
		<path class="st1" d="M-1675.1-1078.7c0-1.7,0.9-2.7,2.6-2.7h2.1c1.7,0,2.7,1,2.7,2.7v30.3c0,8.6,1.3,16.3,11.9,16.3
			c12.6,0,20.3-11,20.3-22.9v-23.6c0-1.7,1-2.7,2.7-2.7h2.1c1.7,0,2.6,1,2.6,2.7v49.5c0,1.7-0.9,2.7-2.6,2.7h-2
			c-1.7,0-2.6-1-2.6-2.7v-6.3c0-2.2,0.3-3.9,0.3-3.9h-0.2c-2.1,5.4-9.5,14.3-21.6,14.3c-13,0-18.4-7-18.4-21.3V-1078.7z"/>
		<path class="st1" d="M-1614.3-1100.6c0-1.7,0.9-2.7,2.6-2.7h2.1c1.7,0,2.7,1,2.7,2.7v59.8c0,6.9,3.3,7.6,5.7,8
			c1.3,0.1,2.3,0.8,2.3,2.4v1.6c0,1.6-0.8,2.7-2.8,2.7c-4.5,0-12.6-1.4-12.6-13.4V-1100.6z"/>
		<path class="st1" d="M-1589.8-1100.6c0-1.7,0.9-2.7,2.6-2.7h2.1c1.7,0,2.7,1,2.7,2.7v40.1h8.8l15.2-19.3c0.9-1.1,1.9-1.6,3.3-1.6
			h2.7c2.2,0,3,1.5,1.5,3.3l-16.6,20.6v0.2l19,27.5c1.2,1.9,0.4,3.3-1.9,3.3h-2.8c-1.5,0-2.4-0.5-3.2-1.9l-17.2-25.6h-9v24.7
			c0,1.7-1,2.7-2.7,2.7h-2.1c-1.7,0-2.6-1-2.6-2.7V-1100.6z"/>
		<path class="st1" d="M-1516.4-1082.8c14.6,0,22.9,10.6,22.9,26.2c0,1.5-1.2,2.7-2.8,2.7h-39.5c0.3,14,9.9,22,21.3,22
			c6.9,0,11.9-3.1,14.4-5c1.5-1,2.7-0.8,3.6,0.7l0.9,1.3c0.8,1.3,0.5,2.6-0.8,3.6c-3,2.2-9.5,6.1-18.4,6.1
			c-16.4,0-28.7-11.8-28.7-28.7C-1543.5-1071.9-1531.2-1082.8-1516.4-1082.8z M-1501-1059.4c-0.4-11.6-7.4-17.3-15.6-17.3
			c-9.2,0-17.2,6.1-18.9,17.3H-1501z"/>
		<path class="st1" d="M-1459.1-1082.8c14.6,0,22.9,10.6,22.9,26.2c0,1.5-1.2,2.7-2.8,2.7h-39.5c0.3,14,9.9,22,21.3,22
			c6.9,0,11.9-3.1,14.4-5c1.5-1,2.7-0.8,3.6,0.7l0.9,1.3c0.8,1.3,0.5,2.6-0.8,3.6c-2.9,2.2-9.5,6.1-18.4,6.1
			c-16.4,0-28.7-11.8-28.7-28.7C-1486.2-1071.9-1474-1082.8-1459.1-1082.8z M-1443.7-1059.4c-0.4-11.6-7.4-17.3-15.6-17.3
			c-9.2,0-17.2,6.1-18.9,17.3H-1443.7z"/>
	</g>
</g>
<g>
	<g>
		<g>
			<path class="st5" d="M-1186.6-1659.2c0,0-0.1,0-0.1,0c-1.7-0.1-3.1-1.5-3-3.2c0.1-2.5-3.7-6-7.2-8.4l-7.2,7
				c-1.2,1.2-3.2,1.2-4.4-0.1c-1.2-1.2-1.2-3.2,0.1-4.4l9-8.7c1-1,2.5-1.2,3.7-0.5c0.1,0.1,3,1.7,5.9,4.2c4.3,3.7,6.5,7.4,6.3,11
				C-1183.5-1660.6-1184.9-1659.2-1186.6-1659.2z"/>
		</g>
	</g>
	<g>
		<g>
			<g>
				<path class="st5" d="M-1193-1652.4c-1.9,0-3.5-0.6-4.5-1.2l-0.3-0.2l-0.3-0.3c-7.1-7.1-18.5-17.6-21.9-18.8
					c-5.7-2-11.2-5.1-13.6-14.3c-2-8-10.9-27.7-13.7-30.2c-3.9-3.6-8.6-17.3-9.7-20.5l-20.3-43.6l-11.6-9l-22.2-13.8
					c-1.5-0.9-1.9-2.8-1-4.3c0.9-1.5,2.8-1.9,4.3-1l22.4,13.9l13.1,10.2l21.1,45.4c2.5,7.4,6.2,16.4,8.1,18.1
					c4.4,4,13.6,25.9,15.5,33.3c1.5,6.1,4.6,8.2,9.6,10c5.7,2,20.1,16.1,23.8,19.9c0.7,0.2,2.2,0.5,4.2-1.1c3-2.5,3.1-8.2,2.7-10.1
					c-0.3-1.3-0.5-4.5-0.5-6.5c-6.8-7.8-31.8-37.4-31.8-54.3c0-19.4,15.8-34.9,35.2-34.9c0,0,0.1,0,0.1,0c9.4,0,18.2,3.4,24.9,10.1
					c6.6,6.7,10.3,15.4,10.3,24.8c0,17.1-26,47.5-32.1,54.4c0.1,1.4,0.3,3.5,0.5,6.2c0.6,7.1,1.6,9.9,3.9,10.2
					c1.6,0.2,6.3-4.4,9.5-9.3l0.2-0.3l10.3-9.3c1.8-2.9,12.6-20.3,18.4-27.7c2.1-2.7,4-4.7,5.5-6.2c3-3.2,4-4.4,4.1-6.7
					c0.1-5.1-4.6-37.2-10.2-47.9c-1.8-3.4-2.8-7.7-4-12.2c-2-8.2-4.1-16.8-10.7-19.7c-1.5-0.7-5.8-2-10.7-3.5
					c-9.9-3.1-23.5-7.4-31.8-11.3c-5.5-2.7-12.8-5.2-19.2-7.5c-8.3-3-15-5.3-18.1-7.7c-8.5-5.7-19.8-16-20.3-16.4
					c-1.3-1.2-1.3-3.1-0.2-4.4c1.2-1.3,3.1-1.3,4.4-0.2c0.1,0.1,11.5,10.5,19.6,15.9l0.2,0.2c2.3,1.8,9.5,4.3,16.4,6.8
					c6.6,2.3,14,5,19.8,7.8c7.8,3.8,21.2,8,30.9,11c5.5,1.7,9.5,3,11.3,3.8c9.4,4.1,12,14.6,14.3,23.9c1,4.1,2,8,3.4,10.8
					c6.3,11.9,11,45.2,10.9,50.9c-0.1,4.9-2.6,7.5-5.7,10.9c-1.5,1.6-3.2,3.4-5.1,5.8c-6,7.6-18.1,27.3-18.3,27.5l-0.2,0.4
					l-10.4,9.4c-2.2,3.2-8.4,11.8-14.5,11.8c-0.3,0-0.6,0-0.9-0.1c-2.8-0.4-4.7-1.8-6.1-3.7c-0.6,0.9-1.3,1.7-2.2,2.4
					C-1188.4-1653.1-1190.9-1652.4-1193-1652.4z M-1184.3-1759.7c-16,0-28.9,12.8-29,28.8c0,12,17.2,35.2,28.9,48.8
					c11.2-12.9,29.1-36.6,29.1-48.7c0-7.7-3-14.9-8.4-20.4C-1169.2-1756.7-1176.5-1759.7-1184.3-1759.7
					C-1184.3-1759.7-1184.3-1759.7-1184.3-1759.7z"/>
			</g>
		</g>
		<g>
			<g>
				<path class="st5" d="M-1184.3-1719.7C-1184.3-1719.7-1184.3-1719.7-1184.3-1719.7c-7.6,0-13.8-6.3-13.8-13.9
					c0-3.7,1.5-7.3,4.1-9.9c2.6-2.6,6.1-4.2,9.7-4.2c0,0,0,0,0,0c3.7,0,7.2,1.6,9.8,4.2s4,6.1,4,9.8c0,3.7-1.5,7.3-4.1,9.9
					C-1177.2-1721.2-1180.6-1719.7-1184.3-1719.7z M-1184.3-1741.7c-2,0-3.9,1-5.4,2.4c-1.4,1.4-2.2,3.6-2.2,5.7
					c0,4.2,3.4,7.9,7.6,7.9c0,0,0,0,0,0c2,0,3.9-1,5.4-2.4c1.4-1.4,2.2-3.4,2.2-5.5c0-2-0.8-4.2-2.2-5.6
					C-1180.4-1740.6-1182.3-1741.7-1184.3-1741.7C-1184.3-1741.7-1184.3-1741.7-1184.3-1741.7z"/>
			</g>
		</g>
	</g>
	<g>
		<g>
			<path class="st5" d="M-1184.3-1612.7c-32.3,0-62.7-12.6-85.5-35.4c-22.8-22.8-35.4-53.2-35.4-85.5c0-16.5,3.3-32.5,9.7-47.6
				c0.7-1.6,2.5-2.3,4.1-1.6c1.6,0.7,2.3,2.5,1.6,4.1c-6.1,14.3-9.2,29.4-9.2,45.1c0,63.3,51.5,114.7,114.7,114.7
				s114.7-51.5,114.7-114.7s-51.5-114.7-114.7-114.7c-14.6,0-28.9,2.7-42.4,8.1c-1.6,0.6-3.4-0.1-4-1.7c-0.6-1.6,0.1-3.4,1.7-4
				c14.2-5.7,29.3-8.5,44.7-8.5c32.3,0,62.7,12.6,85.5,35.4c22.8,22.8,35.4,53.2,35.4,85.5c0,32.3-12.6,62.7-35.4,85.5
				C-1121.6-1625.3-1152-1612.7-1184.3-1612.7z"/>
		</g>
	</g>
	<g>
		<g>
			<path class="st5" d="M-1156.4-1654.7c-0.6,0-1.2-0.2-1.7-0.5c-0.3-0.2-6.6-4.6-6-14.2c0.1-1.7,1.6-3,3.3-2.9
				c1.7,0.1,3,1.6,2.9,3.3c-0.2,3.6,1,6,2,7.4c1.1-0.8,2.3-1.7,2.9-2.5c0.3-0.3,0.7-0.9,1.2-1.5c2.7-3.3,9-11.2,11-15.9
				c2.1-4.7,12.2-17,22.4-29.2c2-2.4,3.5-4.2,4.3-5.2c1.7-2.1-1.4-9-3-12.3c-0.4-0.9-0.8-1.8-1.2-2.6c-0.5-1.1-2.6-5.2-5-9.8
				c-7.2-13.7-19.1-36.6-21.8-46.7c-0.4-1.7,0.5-3.4,2.2-3.8c1.7-0.4,3.4,0.5,3.8,2.2c2.5,9.4,14.3,32,21.3,45.4
				c3.1,5.9,4.7,9,5.2,10.3c0.3,0.7,0.7,1.5,1.1,2.4c2.6,5.7,6.2,13.6,2.2,18.7c-0.8,1-2.4,2.9-4.4,5.3
				c-6.4,7.6-19.6,23.4-21.5,27.7c-2.4,5.5-8.8,13.5-11.9,17.3c-0.5,0.6-0.9,1.1-1.1,1.4c-2.2,2.9-6.4,5.2-6.8,5.4
				C-1155.4-1654.8-1155.9-1654.7-1156.4-1654.7z"/>
		</g>
	</g>
</g>
<g>
	<g>
		<g>
			<path class="st1" d="M-1186.6-1188.2c0,0-0.1,0-0.1,0c-1.7-0.1-3.1-1.5-3-3.2c0.1-2.5-3.7-6-7.2-8.4l-7.2,7
				c-1.2,1.2-3.2,1.2-4.4-0.1c-1.2-1.2-1.2-3.2,0.1-4.4l9-8.7c1-1,2.5-1.2,3.7-0.5c0.1,0.1,3,1.7,5.9,4.2c4.3,3.7,6.5,7.4,6.3,11
				C-1183.5-1189.6-1184.9-1188.2-1186.6-1188.2z"/>
		</g>
	</g>
	<g>
		<g>
			<g>
				<path class="st1" d="M-1193-1181.4c-1.9,0-3.5-0.6-4.5-1.2l-0.3-0.2l-0.3-0.3c-7.1-7.1-18.5-17.6-21.9-18.8
					c-5.7-2-11.2-5.1-13.6-14.3c-2-8-10.9-27.7-13.7-30.2c-3.9-3.6-8.6-17.3-9.7-20.5l-20.3-43.6l-11.6-9l-22.2-13.8
					c-1.5-0.9-1.9-2.8-1-4.3c0.9-1.5,2.8-1.9,4.3-1l22.4,13.9l13.1,10.2l21.1,45.4c2.5,7.4,6.2,16.4,8.1,18.1
					c4.4,4,13.6,25.9,15.5,33.3c1.5,6.1,4.6,8.2,9.6,10c5.7,2,20.1,16.1,23.8,19.9c0.7,0.2,2.2,0.5,4.2-1.1c3-2.5,3.1-8.2,2.7-10.1
					c-0.3-1.3-0.5-4.5-0.5-6.5c-6.8-7.8-31.8-37.4-31.8-54.3c0-19.4,15.8-34.9,35.2-34.9c0,0,0.1,0,0.1,0c9.4,0,18.2,3.4,24.9,10.1
					c6.6,6.7,10.3,15.4,10.3,24.8c0,17.1-26,47.5-32.1,54.4c0.1,1.4,0.3,3.5,0.5,6.2c0.6,7.1,1.6,9.9,3.9,10.2
					c1.6,0.2,6.3-4.4,9.5-9.3l0.2-0.3l10.3-9.3c1.8-2.9,12.6-20.3,18.4-27.7c2.1-2.7,4-4.7,5.5-6.2c3-3.2,4-4.4,4.1-6.7
					c0.1-5.1-4.6-37.2-10.2-47.9c-1.8-3.4-2.8-7.7-4-12.2c-2-8.2-4.1-16.8-10.7-19.7c-1.5-0.7-5.8-2-10.7-3.5
					c-9.9-3.1-23.5-7.4-31.8-11.3c-5.5-2.7-12.8-5.2-19.2-7.5c-8.3-3-15-5.3-18.1-7.7c-8.5-5.7-19.8-16-20.3-16.4
					c-1.3-1.2-1.3-3.1-0.2-4.4c1.2-1.3,3.1-1.3,4.4-0.2c0.1,0.1,11.5,10.5,19.6,15.9l0.2,0.2c2.3,1.8,9.5,4.3,16.4,6.8
					c6.6,2.3,14,5,19.8,7.8c7.8,3.8,21.2,8,30.9,11c5.5,1.7,9.5,3,11.3,3.8c9.4,4.1,12,14.6,14.3,23.9c1,4.1,2,8,3.4,10.8
					c6.3,11.9,11,45.2,10.9,50.9c-0.1,4.9-2.6,7.5-5.7,10.9c-1.5,1.6-3.2,3.4-5.1,5.8c-6,7.6-18.1,27.3-18.3,27.5l-0.2,0.4
					l-10.4,9.4c-2.2,3.2-8.4,11.8-14.5,11.8c-0.3,0-0.6,0-0.9-0.1c-2.8-0.4-4.7-1.8-6.1-3.7c-0.6,0.9-1.3,1.7-2.2,2.4
					C-1188.4-1182.1-1190.9-1181.4-1193-1181.4z M-1184.3-1288.7c-16,0-28.9,12.8-29,28.8c0,12,17.2,35.2,28.9,48.8
					c11.2-12.9,29.1-36.6,29.1-48.7c0-7.7-3-14.9-8.4-20.4C-1169.2-1285.7-1176.5-1288.7-1184.3-1288.7
					C-1184.3-1288.7-1184.3-1288.7-1184.3-1288.7z"/>
			</g>
		</g>
		<g>
			<g>
				<path class="st1" d="M-1184.3-1248.7C-1184.3-1248.7-1184.3-1248.7-1184.3-1248.7c-7.6,0-13.8-6.3-13.8-13.9
					c0-3.7,1.5-7.3,4.1-9.9c2.6-2.6,6.1-4.2,9.7-4.2c0,0,0,0,0,0c3.7,0,7.2,1.6,9.8,4.2s4,6.1,4,9.8c0,3.7-1.5,7.3-4.1,9.9
					C-1177.2-1250.2-1180.6-1248.7-1184.3-1248.7z M-1184.3-1270.7c-2,0-3.9,1-5.4,2.4c-1.4,1.4-2.2,3.6-2.2,5.7
					c0,4.2,3.4,7.9,7.6,7.9c0,0,0,0,0,0c2,0,3.9-1,5.4-2.4c1.4-1.4,2.2-3.4,2.2-5.5c0-2-0.8-4.2-2.2-5.6
					C-1180.4-1269.6-1182.3-1270.7-1184.3-1270.7C-1184.3-1270.7-1184.3-1270.7-1184.3-1270.7z"/>
			</g>
		</g>
	</g>
	<g>
		<g>
			<path class="st1" d="M-1184.3-1141.7c-32.3,0-62.7-12.6-85.5-35.4c-22.8-22.8-35.4-53.2-35.4-85.5c0-16.5,3.3-32.5,9.7-47.6
				c0.7-1.6,2.5-2.3,4.1-1.6c1.6,0.7,2.3,2.5,1.6,4.1c-6.1,14.3-9.2,29.4-9.2,45.1c0,63.3,51.5,114.7,114.7,114.7
				s114.7-51.5,114.7-114.7s-51.5-114.7-114.7-114.7c-14.6,0-28.9,2.7-42.4,8.1c-1.6,0.6-3.4-0.1-4-1.7c-0.6-1.6,0.1-3.4,1.7-4
				c14.2-5.7,29.3-8.5,44.7-8.5c32.3,0,62.7,12.6,85.5,35.4c22.8,22.8,35.4,53.2,35.4,85.5c0,32.3-12.6,62.7-35.4,85.5
				C-1121.6-1154.3-1152-1141.7-1184.3-1141.7z"/>
		</g>
	</g>
	<g>
		<g>
			<path class="st1" d="M-1156.4-1183.7c-0.6,0-1.2-0.2-1.7-0.5c-0.3-0.2-6.6-4.6-6-14.2c0.1-1.7,1.6-3,3.3-2.9
				c1.7,0.1,3,1.6,2.9,3.3c-0.2,3.6,1,6,2,7.4c1.1-0.8,2.3-1.7,2.9-2.5c0.3-0.3,0.7-0.9,1.2-1.5c2.7-3.3,9-11.2,11-15.9
				c2.1-4.7,12.2-17,22.4-29.2c2-2.4,3.5-4.2,4.3-5.2c1.7-2.1-1.4-9-3-12.3c-0.4-0.9-0.8-1.8-1.2-2.6c-0.5-1.1-2.6-5.2-5-9.8
				c-7.2-13.7-19.1-36.6-21.8-46.7c-0.4-1.7,0.5-3.4,2.2-3.8c1.7-0.4,3.4,0.5,3.8,2.2c2.5,9.4,14.3,32,21.3,45.4
				c3.1,5.9,4.7,9,5.2,10.3c0.3,0.7,0.7,1.5,1.1,2.4c2.6,5.7,6.2,13.6,2.2,18.7c-0.8,1-2.4,2.9-4.4,5.3
				c-6.4,7.6-19.6,23.4-21.5,27.7c-2.4,5.5-8.8,13.5-11.9,17.3c-0.5,0.6-0.9,1.1-1.1,1.4c-2.2,2.9-6.4,5.2-6.8,5.4
				C-1155.4-1183.8-1155.9-1183.7-1156.4-1183.7z"/>
		</g>
	</g>
</g>
<g>
	<g>
		<path class="st5" d="M-1620.5-619.7c60.6,0,109.7,49.1,109.7,109.7s-49.1,109.7-109.7,109.7c-60.6,0-109.7-49.1-109.7-109.7
			S-1681.1-619.7-1620.5-619.7"/>
	</g>
	<g>
		<path class="st1" d="M-1575.5-532.8c-2.1,0-3.8-1.7-3.8-3.8v-12.7c0-11.8-9.6-21.4-21.4-21.4h-39.6c-11.8,0-21.4,9.6-21.4,21.4
			v12.7c0,2.1-1.7,3.8-3.8,3.8s-3.8-1.7-3.8-3.8v-12.7c0-16,13-29,29-29h39.6c16,0,29,13,29,29v12.7
			C-1571.7-534.5-1573.4-532.8-1575.5-532.8z"/>
	</g>
	<g>
		<path class="st1" d="M-1660-447.5c-2.1,0-3.8-1.7-3.8-3.8v-71.8c0-5.7-4.3-10.2-9.8-10.2c-5.5,0-9.8,4.5-9.8,10.2
			c0,5.7,4.4,10.2,9.9,10.2c2.1,0,3.8,1.7,3.8,3.8s-1.7,3.8-3.8,3.8c-9.7,0-17.6-8-17.6-17.9c0-10,7.7-17.9,17.5-17.9
			s17.5,7.8,17.5,17.8v71.8C-1656.2-449.2-1657.9-447.5-1660-447.5z"/>
	</g>
	<g>
		<path class="st1" d="M-1571.9-447.7h-97c-6.8,0-12.4-5.6-12.4-12.5v-46.1c0-2.1,1.7-3.8,3.8-3.8s3.8,1.7,3.8,3.8v46.1
			c0,2.6,2.1,4.8,4.7,4.8h97c2.6,0,4.7-2.2,4.7-4.8v-46.4c0-2.1,1.7-3.8,3.8-3.8s3.8,1.7,3.8,3.8v46.4
			C-1559.5-453.3-1565.1-447.7-1571.9-447.7z"/>
	</g>
	<g>
		<path class="st1" d="M-1582.2-502.4h-77.8c-2.1,0-3.8-1.7-3.8-3.8s1.7-3.8,3.8-3.8h77.8c2.1,0,3.8,1.7,3.8,3.8
			S-1580.1-502.4-1582.2-502.4z"/>
	</g>
	<g>
		<path class="st1" d="M-1581-448.5c-2.1,0-3.8-1.7-3.8-3.8v-71.8c0-9.8,8-17.8,17.8-17.8s17.8,8,17.8,17.9c0,9.9-8,17.9-17.8,17.9
			c-2.1,0-3.8-1.7-3.8-3.8s1.7-3.8,3.8-3.8c5.6,0,10.1-4.6,10.1-10.2c0-5.6-4.5-10.2-10.1-10.2s-10.1,4.6-10.1,10.2v71.8
			C-1577.1-450.2-1578.9-448.5-1581-448.5z"/>
	</g>
</g>
<g>
	<g>
		<circle class="st2" cx="-1620.5" cy="113" r="109.7"/>
	</g>
	<g>
		<g>
			<path class="st1" d="M-1582.6,175.4h-77.7c-1,0-2-0.4-2.7-1.1c-0.7-0.7-1.1-1.7-1.1-2.7l0.3-66h-13.6c-1.7,0-3.2-1.1-3.7-2.8
				l-9.9-33.9c-0.5-1.8,0.4-3.8,2.1-4.6l41-18.4c0.5-0.2,1-0.3,1.6-0.3h49.8c0.5,0,1.1,0.1,1.6,0.3l41,18.4c1.7,0.8,2.6,2.7,2.1,4.6
				l-9.9,33.9c-0.5,1.6-2,2.8-3.7,2.8h-13.6l0.3,66c0,1-0.4,2-1.1,2.7C-1580.6,175-1581.6,175.4-1582.6,175.4z M-1656.4,167.8h70
				l-0.3-66c0-1,0.4-2,1.1-2.7c0.7-0.7,1.7-1.1,2.7-1.1h14.6l8.2-28l-37.2-16.7h-48.2l-37.2,16.7l8.2,28h14.6c1,0,2,0.4,2.7,1.1
				c0.7,0.7,1.1,1.7,1.1,2.7L-1656.4,167.8z"/>
		</g>
		<g>
			<path class="st1" d="M-1621.4,71.3c-15.3,0-27.8-9.8-27.8-21.9c0-2.1,1.7-3.8,3.8-3.8s3.8,1.7,3.8,3.8c0,7.9,9,14.3,20.1,14.3
				s20.1-6.4,20.1-14.3c0-2.1,1.7-3.8,3.8-3.8s3.8,1.7,3.8,3.8C-1593.6,61.5-1606.1,71.3-1621.4,71.3z"/>
		</g>
	</g>
</g>
<g>
	<g>
		<circle class="st7" cx="-1001.2" cy="113" r="109.7"/>
	</g>
	<g>
		<g>
			<path class="st1" d="M-1001.6,181.7c-0.7,0-1.4-0.2-2-0.5c-1.2-0.7-2-2-2-3.5v-66.3c0-1.4,0.8-2.8,2-3.5l51-28.6
				c1.9-1.1,4.4-0.4,5.4,1.5c1.1,1.9,0.4,4.4-1.5,5.4l-49,27.5v57.1l43-24.1v-32.9c0-2.2,1.8-4,4-4s4,1.8,4,4v35.2
				c0,1.4-0.8,2.8-2,3.5l-51,28.6C-1000.3,181.5-1000.9,181.7-1001.6,181.7z"/>
		</g>
		<g>
			<path class="st1" d="M-1001.6,181.7c-0.7,0-1.3-0.2-1.9-0.5l-52-28.6c-1.3-0.7-2.1-2-2.1-3.5v-34.7c0-2.2,1.8-4,4-4s4,1.8,4,4
				v32.3l44,24.2v-57.2l-49.9-27.4c-1.9-1.1-2.6-3.5-1.6-5.4s3.5-2.6,5.4-1.6l52,28.6c1.3,0.7,2.1,2,2.1,3.5v66.3
				c0,1.4-0.7,2.7-2,3.4C-1000.2,181.5-1000.9,181.7-1001.6,181.7z"/>
		</g>
		<g>
			<path class="st1" d="M-1053.6,86.9c-1.4,0-2.8-0.8-3.5-2.1c-1-1.9-0.3-4.4,1.6-5.4l52-28.1c1.9-1,4.4-0.3,5.4,1.6
				c1,1.9,0.3,4.4-1.6,5.4l-52,28.1C-1052.3,86.7-1053,86.9-1053.6,86.9z"/>
		</g>
		<g>
			<path class="st1" d="M-1001.6,122.4c-2.2,0-4-1.8-4-4V54.8c0-2.2,1.8-4,4-4s4,1.8,4,4v63.6
				C-997.6,120.6-999.4,122.4-1001.6,122.4z"/>
		</g>
		<g>
			<g>
				<path class="st1" d="M-950.6,86.9c-0.7,0-1.3-0.2-1.9-0.5l-51-28.1c-1.6-0.9-2.4-2.7-1.9-4.5c0.5-1.8,2-3,3.9-3h30.7
					c2.2,0,4,1.8,4,4s-1.8,4-4,4H-986l37.4,20.6c1.9,1.1,2.6,3.5,1.6,5.4C-947.8,86.1-949.2,86.9-950.6,86.9z"/>
			</g>
			<g>
				<path class="st1" d="M-920,86.9c-0.7,0-1.3-0.2-1.9-0.5l-51-28.1c-1.9-1.1-2.6-3.5-1.6-5.4c1.1-1.9,3.5-2.6,5.4-1.6l51,28.1
					c1.9,1.1,2.6,3.5,1.6,5.4C-917.2,86.2-918.6,86.9-920,86.9z"/>
			</g>
			<g>
				<path class="st1" d="M-919.9,86.9h-30.7c-2.2,0-4-1.8-4-4s1.8-4,4-4h30.7c2.2,0,4,1.8,4,4S-917.7,86.9-919.9,86.9z"/>
			</g>
		</g>
		<g>
			<g>
				<path class="st1" d="M-1001.2,58.8h-30.7c-2.2,0-4-1.8-4-4s1.8-4,4-4h30.7c2.2,0,4,1.8,4,4S-998.9,58.8-1001.2,58.8z"/>
			</g>
			<g>
				<path class="st1" d="M-1082.8,86.9c-1.4,0-2.8-0.7-3.5-2.1c-1.1-1.9-0.4-4.4,1.6-5.4l51-28.1c1.9-1.1,4.4-0.4,5.4,1.6
					c1.1,1.9,0.4,4.4-1.6,5.4l-51,28.1C-1081.4,86.7-1082.1,86.9-1082.8,86.9z"/>
			</g>
			<g>
				<path class="st1" d="M-1053.6,86.9h-29.2c-2.2,0-4-1.8-4-4s1.8-4,4-4h29.2c2.2,0,4,1.8,4,4S-1051.4,86.9-1053.6,86.9z"/>
			</g>
		</g>
		<g>
			<path class="st1" d="M-1022.6,134.3c-0.7,0-1.3-0.2-1.9-0.5l-52-28.4c-1.1-0.6-1.9-1.8-2.1-3c-0.2-1.3,0.3-2.6,1.3-3.4l21-19.1
				c1.6-1.5,4.2-1.4,5.7,0.3c1.5,1.6,1.4,4.2-0.3,5.7l-16.8,15.3l44.6,24.3l18.9-17.2c1.6-1.5,4.2-1.4,5.7,0.3
				c1.5,1.6,1.4,4.2-0.3,5.7l-21,19.1C-1020.7,133.9-1021.6,134.3-1022.6,134.3z"/>
		</g>
		<g>
			<path class="st1" d="M-980.6,134.3c-1,0-1.9-0.4-2.7-1l-21-19.1c-1.6-1.5-1.8-4-0.3-5.7c1.5-1.6,4-1.8,5.7-0.3l18.9,17.2
				l44.6-24.3l-16.8-15.3c-1.6-1.5-1.8-4-0.3-5.7c1.5-1.6,4-1.8,5.7-0.3l21,19.1c1,0.9,1.4,2.2,1.3,3.4c-0.2,1.3-0.9,2.4-2.1,3
				l-52,28.4C-979.3,134.1-979.9,134.3-980.6,134.3z"/>
		</g>
	</g>
</g>
<g>
	<g>
		<circle class="st8" cx="-1318.3" cy="-197" r="109.7"/>
	</g>
	<g>
		<path class="st1" d="M-1262.8-151h-109.3c-6.9,0-12.5-5.6-12.5-12.5v-74.2c0-6.9,5.6-12.5,12.5-12.5h109.3
			c6.9,0,12.5,5.6,12.5,12.5v74.2C-1250.3-156.6-1255.9-151-1262.8-151z M-1372.1-242.2c-2.5,0-4.5,2-4.5,4.5v74.2
			c0,2.5,2,4.5,4.5,4.5h109.3c2.5,0,4.5-2,4.5-4.5v-74.2c0-2.5-2-4.5-4.5-4.5H-1372.1z"/>
	</g>
	<g>
		<path class="st1" d="M-1270.6-165.1h-93.7c-3.5,0-6.3-2.8-6.3-6.3v-58.4c0-3.5,2.8-6.3,6.3-6.3h93.7c3.5,0,6.3,2.8,6.3,6.3v58.4
			C-1264.3-167.9-1267.2-165.1-1270.6-165.1z M-1362.6-173.1h90.2v-55h-90.2V-173.1z"/>
	</g>
	<g>
		<path class="st1" d="M-1291.3-129h-52.4l0.2-4.2c0.6-13.9,12-24.8,26-24.8c14,0,25.4,10.9,26,24.8L-1291.3-129z M-1334.8-137h34.6
			c-2.2-7.6-9.1-13-17.3-13C-1325.7-150-1332.6-144.5-1334.8-137z"/>
	</g>
</g>
<g>
	<g>
		<circle class="st9" cx="-1001.2" cy="-510" r="109.7"/>
	</g>
	<g>
		<g>
			<path class="st1" d="M-1035.4-466.2h-13.7c-5,0-9-4-9-9V-560c0-5,4-9,9-9h13.7c5,0,9,4,9,9v84.8
				C-1026.4-470.2-1030.5-466.2-1035.4-466.2z M-1049.1-561.3c-0.7,0-1.3,0.6-1.3,1.3v84.8c0,0.7,0.6,1.3,1.3,1.3h13.7
				c0.7,0,1.3-0.6,1.3-1.3V-560c0-0.7-0.6-1.3-1.3-1.3H-1049.1z"/>
		</g>
		<g>
			<path class="st1" d="M-1031-545.6h-23c-2.2,0-4-1.8-4-4s1.8-4,4-4h23c2.2,0,4,1.8,4,4S-1028.8-545.6-1031-545.6z"/>
		</g>
		<g>
			<path class="st1" d="M-1031.1-481.6h-22.9c-2.2,0-4-1.8-4-4s1.8-4,4-4h22.9c2.2,0,4,1.8,4,4S-1028.9-481.6-1031.1-481.6z"/>
		</g>
	</g>
	<g>
		<g>
			<path class="st1" d="M-998.8-466.2h-13.7c-5,0-9-4-9-9V-551c0-5,4-9,9-9h13.7c5,0,9,4,9,9v75.8
				C-989.8-470.2-993.8-466.2-998.8-466.2z M-1012.4-552.3c-0.7,0-1.3,0.6-1.3,1.3v75.8c0,0.7,0.6,1.3,1.3,1.3h13.7
				c0.7,0,1.3-0.6,1.3-1.3V-551c0-0.7-0.6-1.3-1.3-1.3H-1012.4z"/>
		</g>
		<g>
			<path class="st1" d="M-994.3-536.6h-23c-2.2,0-4-1.8-4-4s1.8-4,4-4h23c2.2,0,4,1.8,4,4S-992.1-536.6-994.3-536.6z"/>
		</g>
		<g>
			<path class="st1" d="M-994.4-481.6h-22.9c-2.2,0-4-1.8-4-4s1.8-4,4-4h22.9c2.2,0,4,1.8,4,4S-992.2-481.6-994.4-481.6z"/>
		</g>
	</g>
	<g>
		<g>
			<path class="st1" d="M-950.4-466.2c-3.6,0-7.1-2.2-8.4-5.9l-26.4-71.1c-0.8-2.2-0.7-4.7,0.3-6.9c1-2.2,2.8-3.8,5-4.7l12.8-4.8
				c4.6-1.7,9.8,0.6,11.6,5.3l26.4,71.1c1.7,4.6-0.6,9.8-5.3,11.6l-12.8,4.8C-948.3-466.4-949.4-466.2-950.4-466.2z M-964.1-552.3
				c-0.2,0-0.3,0-0.5,0.1l-12.8,4.8c-0.4,0.2-0.7,0.5-0.7,0.7s-0.2,0.6,0,1l26.4,71.1c0.3,0.7,1,1,1.7,0.8l12.8-4.8
				c0.7-0.3,1-1,0.8-1.7l-26.4-71.1C-963-552-963.6-552.3-964.1-552.3z"/>
		</g>
		<g>
			<path class="st1" d="M-977.9-530.8c-1.6,0-3.2-1-3.7-2.6c-0.8-2.1,0.3-4.4,2.4-5.1l21.6-8c2.1-0.8,4.4,0.3,5.1,2.4
				c0.8,2.1-0.3,4.4-2.4,5.1l-21.6,8C-976.9-530.9-977.4-530.8-977.9-530.8z"/>
		</g>
		<g>
			<path class="st1" d="M-958.7-479.2c-1.6,0-3.2-1-3.7-2.6c-0.8-2.1,0.3-4.4,2.4-5.1l21.5-8c2.1-0.8,4.4,0.3,5.1,2.4
				c0.8,2.1-0.3,4.4-2.4,5.1l-21.5,8C-957.7-479.3-958.2-479.2-958.7-479.2z"/>
		</g>
	</g>
</g>
<g>
	<g>
		<circle class="st10" cx="-1620.5" cy="-196.6" r="109.7"/>
	</g>
	<g>
		<path class="st1" d="M-1562.3-226.8h-115c-2.2,0-4-1.8-4-4s1.8-4,4-4h115c2.2,0,4,1.8,4,4S-1560.1-226.8-1562.3-226.8z"/>
	</g>
	<g>
		<path class="st1" d="M-1603.8-238.8L-1603.8-238.8c-2.2,0-4.1-1.8-4.1-4.1l0,0c0-2.2,1.8-4.1,4.1-4.1l0,0c2.2,0,4.1,1.8,4.1,4.1
			l0,0C-1599.8-240.6-1601.6-238.8-1603.8-238.8z"/>
	</g>
	<g>
		<path class="st1" d="M-1591.4-238.8L-1591.4-238.8c-2.2,0-4.1-1.8-4.1-4.1l0,0c0-2.2,1.8-4.1,4.1-4.1l0,0c2.2,0,4.1,1.8,4.1,4.1
			l0,0C-1587.4-240.6-1589.2-238.8-1591.4-238.8z"/>
	</g>
	<g>
		<path class="st1" d="M-1579-238.8L-1579-238.8c-2.2,0-4.1-1.8-4.1-4.1l0,0c0-2.2,1.8-4.1,4.1-4.1l0,0c2.2,0,4.1,1.8,4.1,4.1l0,0
			C-1575-240.6-1576.8-238.8-1579-238.8z"/>
	</g>
	<g>
		<path class="st1" d="M-1570.9-133.9h-98.7c-7.3,0-13.3-6-13.3-13.3v-98.7c0-7.3,6-13.3,13.3-13.3h98.7c7.3,0,13.3,6,13.3,13.3
			v98.7C-1557.6-139.9-1563.6-133.9-1570.9-133.9z M-1669.6-251.2c-2.9,0-5.3,2.4-5.3,5.3v98.7c0,2.9,2.4,5.3,5.3,5.3h98.7
			c2.9,0,5.3-2.4,5.3-5.3v-98.7c0-2.9-2.4-5.3-5.3-5.3H-1669.6z"/>
	</g>
	<g>
		<path class="st1" d="M-1621.1-150.1c-18.8,0-34.1-15.3-34.1-34.1s15.3-34.1,34.1-34.1c18.8,0,34.1,15.3,34.1,34.1
			S-1602.3-150.1-1621.1-150.1z M-1621.1-210.4c-14.4,0-26.1,11.7-26.1,26.1s11.7,26.1,26.1,26.1c14.4,0,26.1-11.7,26.1-26.1
			S-1606.7-210.4-1621.1-210.4z"/>
	</g>
	<g>
		<path class="st1" d="M-1604.6-184.3c-2.2,0-4.2-1-5.6-2.5c-1.4,1.5-3.4,2.5-5.6,2.5s-4.2-1-5.6-2.5c-1.4,1.5-3.4,2.5-5.6,2.5
			c-2.2,0-4.2-1-5.6-2.5c-1.4,1.5-3.4,2.5-5.6,2.5c-2.2,0-4.2-0.9-5.6-2.4c-0.1,0.8-0.1,1.6-0.1,2.4c0,12.7,10.3,23,23,23
			c12.7,0,23-10.3,23-23c0-1.1-0.1-2.2-0.2-3.2C-1599.7-185.6-1602-184.3-1604.6-184.3z"/>
	</g>
</g>
<g>
	<g>
		<path class="st11" d="M-1318.3-619.7c60.6,0,109.7,49.1,109.7,109.7s-49.1,109.7-109.7,109.7c-60.6,0-109.7-49.1-109.7-109.7
			S-1378.9-619.7-1318.3-619.7"/>
	</g>
	<g>
		<g>
			<path class="st1" d="M-1261.8-462h-55.1c-8.2,0-14.8-6.6-14.8-14.8V-540c0-8.2,6.6-14.8,14.8-14.8h55.1c8.2,0,14.8,6.6,14.8,14.8
				v63.2C-1247-468.7-1253.6-462-1261.8-462z M-1316.8-546.8c-3.8,0-6.8,3.1-6.8,6.8v63.2c0,3.8,3.1,6.8,6.8,6.8h55.1
				c3.8,0,6.8-3.1,6.8-6.8V-540c0-3.8-3.1-6.8-6.8-6.8H-1316.8z"/>
		</g>
		<g>
			<path class="st1" d="M-1327.6-472.1c-0.8,0-1.6-0.2-2.3-0.7c-1.8-1.3-2.2-3.8-1-5.6l15.2-21.7c0.7-1,1.8-1.6,3.1-1.7
				c1.2-0.1,2.4,0.5,3.2,1.4l9.7,11.3l19.4-25.8c0.7-1,1.9-1.6,3.2-1.6c1.2,0,2.4,0.6,3.2,1.6l26.1,33.7c1.4,1.7,1,4.3-0.7,5.6
				c-1.7,1.4-4.3,1-5.6-0.7L-1277-506l-19.2,25.6c-0.7,1-1.9,1.6-3.1,1.6c-1.2,0-2.4-0.5-3.2-1.4l-9.6-11.2l-12.3,17.5
				C-1325.1-472.7-1326.4-472.1-1327.6-472.1z"/>
		</g>
		<g>
			<polygon class="st11" points="-1307.5,-508.6 -1380.9,-508.6 -1371,-565.6 -1317.4,-565.6 			"/>
			<path class="st1" d="M-1307.5-504.6h-73.4c-1.2,0-2.3-0.5-3.1-1.4c-0.8-0.9-1.1-2.1-0.9-3.3l9.9-57c0.3-1.9,2-3.3,3.9-3.3h53.6
				c1.9,0,3.6,1.4,3.9,3.3l9.9,57c0.2,1.2-0.1,2.4-0.9,3.3C-1305.2-505.1-1306.3-504.6-1307.5-504.6z M-1376.1-512.6h63.9l-8.5-49
				h-46.9L-1376.1-512.6z"/>
		</g>
		<g>
			<path class="st1" d="M-1344.2-449.1c-2.2,0-4-1.8-4-4V-508c0-2.2,1.8-4,4-4s4,1.8,4,4v54.9
				C-1340.2-450.9-1342-449.1-1344.2-449.1z"/>
		</g>
		<g>
			<path class="st1" d="M-1328.9-446.4h-30.6c-2.2,0-4-1.8-4-4s1.8-4,4-4h30.6c2.2,0,4,1.8,4,4S-1326.7-446.4-1328.9-446.4z"/>
		</g>
		<g>
			<path class="st1" d="M-1362-487.8c-2.2,0-4-1.8-4-4V-508c0-2.2,1.8-4,4-4s4,1.8,4,4v16.2C-1358-489.6-1359.8-487.8-1362-487.8z"
				/>
		</g>
		<g>
			<path class="st1" d="M-1362-473.8c-5.5,0-10-4.5-10-10s4.5-10,10-10s10,4.5,10,10S-1356.5-473.8-1362-473.8z M-1362-485.8
				c-1.1,0-2,0.9-2,2s0.9,2,2,2c1.1,0,2-0.9,2-2S-1360.9-485.8-1362-485.8z"/>
		</g>
	</g>
</g>
<g>
	<g>
		<circle class="st12" cx="-1001.2" cy="-196.6" r="109.7"/>
	</g>
	<g>
		<g>
			<path class="st1" d="M-936-150.7h-130.2l0.8-57.9c0-8.4,6.8-15.1,15.6-15.1h97.6c8.7,0,15.6,6.7,15.6,15.2L-936-150.7z
				 M-1058.1-158.7h114l-0.7-49.8c0-4.1-3.3-7.2-7.6-7.2h-97.6c-4.2,0-7.6,3.1-7.6,7.2L-1058.1-158.7z"/>
		</g>
		<g>
			<path class="st1" d="M-968.6-198.7h-66c-2.2,0-4-1.8-4-4s1.8-4,4-4h66c2.2,0,4,1.8,4,4S-966.4-198.7-968.6-198.7z"/>
		</g>
		<g>
			<g>
				<path class="st1" d="M-1035.6-139.7h-9c-2.2,0-4-1.8-4-4s1.8-4,4-4h9c2.2,0,4,1.8,4,4S-1033.4-139.7-1035.6-139.7z"/>
			</g>
			<g>
				<g>
					<path class="st1" d="M-958.6-139.7h-9c-2.2,0-4-1.8-4-4s1.8-4,4-4h9c2.2,0,4,1.8,4,4S-956.4-139.7-958.6-139.7z"/>
				</g>
			</g>
		</g>
		<g>
			<path class="st1" d="M-968.6-185.7h-66c-2.2,0-4-1.8-4-4s1.8-4,4-4h66c2.2,0,4,1.8,4,4S-966.4-185.7-968.6-185.7z"/>
		</g>
		<g>
			<g>
				<path class="st1" d="M-1033.2-215.6c-1.8,0-4-0.2-5.8-2c-2.2-2.1-2.4-5.4-2.4-7.6V-244c0-5.3,4.3-9.6,9.6-9.6h29.2
					c5.3,0,9.6,4.3,9.6,9.6v18.7c0,2.2-0.2,5.5-2.4,7.6c-2.1,2.1-4.7,2-6.6,2l-0.6,0h-29.2c-0.2,0-0.5,0-0.7,0
					C-1032.7-215.6-1033-215.6-1033.2-215.6z M-1033.3-223.6c0.2,0,0.5,0,0.7,0c0.3,0,0.5,0,0.8,0l29.9,0c0.3,0,0.6,0,0.8,0
					c0.1-0.3,0.1-0.9,0.1-1.6V-244c0-0.9-0.7-1.6-1.6-1.6h-29.2c-0.9,0-1.6,0.7-1.6,1.6v18.7
					C-1033.4-224.5-1033.4-223.9-1033.3-223.6z"/>
			</g>
			<g>
				<path class="st1" d="M-969.7-215.6c-0.1,0-0.2,0-0.3,0l-0.3,0h-21.1c-2.8,0-9.5,0-9.5-9.5v-10.8c0-5.2,4.3-9.5,9.5-9.5h21.1
					c5.2,0,9.5,4.3,9.5,9.5v10.8c0,2.2-0.2,5.3-2.4,7.4C-965.3-215.7-967.8-215.6-969.7-215.6z M-992.9-223.6c0.4,0,1,0,1.4,0
					l21.5,0c0.3,0,0.7,0,1,0c0-0.3,0.1-0.8,0.1-1.5v-10.8c0-0.8-0.7-1.5-1.5-1.5h-21.1c-0.8,0-1.5,0.7-1.5,1.5v10.8
					C-993-224.4-992.9-223.9-992.9-223.6z"/>
			</g>
		</g>
	</g>
	<g>
		<path class="st1" d="M-895.3-169.7c-3.3-2.9-7.8-4.2-12.2-3.4c-3.9,0.7-7,3-9.7,5c-1.5,1.1-2.9,2.1-4.3,2.8
			c-5.1,2.5-12.1,0.9-15.6-3.6c-1.3-1.8-3.9-2.1-5.6-0.7c-1.7,1.3-2.1,3.9-0.7,5.6c5.8,7.5,17,10.1,25.5,5.9c2-1,3.8-2.3,5.5-3.6
			c2.3-1.7,4.3-3.2,6.4-3.6c1.9-0.4,3.9,0.2,5.4,1.5c1.4,1.3,2.2,3.3,2.1,5.2c0,0.2,0,0.5,0,0.7c1.4-3.7,2.6-7.5,3.6-11.4
			C-895.1-169.4-895.2-169.6-895.3-169.7z"/>
	</g>
</g>
<g>
	<g>
		<circle class="st13" cx="-1318.3" cy="113" r="109.7"/>
	</g>
	<g>
		<g>
			<path class="st13" d="M-1258.2,115.1l-33.5-16.8h-26.6h-26.6l-33.5,16.8c-4.5,2.3-6.4,7.8-4.1,12.4l0,0c2.3,4.5,7.9,6.4,12.4,4.1
				l20.6-8.4l-1.7,16.8l-1.1,13.8h34h34l-1.1-13.8l-1.7-16.7l20.6,8.4c4.5,2.3,10.1,0.4,12.4-4.1l0,0
				C-1251.8,122.9-1253.7,117.4-1258.2,115.1z"/>
			<path class="st1" d="M-1284.3,157.8h-68.1c-1.1,0-2.2-0.5-2.9-1.3c-0.8-0.8-1.1-1.9-1-3l1.1-13.8l1.1-10.3l-14.3,5.8
				c-3.1,1.5-6.6,1.7-9.9,0.7c-3.4-1.1-6.1-3.5-7.7-6.6c-1.6-3.2-1.8-6.7-0.7-10.1c1.1-3.4,3.5-6.1,6.6-7.7l33.5-16.8
				c0.6-0.3,1.2-0.4,1.8-0.4h53.1c0.6,0,1.2,0.1,1.8,0.4l33.5,16.8c0,0,0,0,0,0c6.5,3.3,9.2,11.2,5.9,17.8c-3.2,6.5-11.1,9.1-17.6,6
				l-14.3-5.8l1,10.1l1.1,13.9c0.1,1.1-0.3,2.2-1,3C-1282.1,157.3-1283.2,157.8-1284.3,157.8z M-1348,149.8h59.4l-0.8-9.5l-1.7-16.7
				c-0.1-1.4,0.5-2.8,1.6-3.6c1.1-0.8,2.6-1,3.9-0.5l20.6,8.4c0.1,0,0.2,0.1,0.3,0.1c2.6,1.3,5.7,0.3,7-2.3c1.3-2.6,0.2-5.7-2.3-7
				l-32.7-16.3h-51.2l-32.7,16.3c-1.2,0.6-2.2,1.7-2.6,3c-0.4,1.3-0.3,2.7,0.3,4c0.6,1.2,1.7,2.2,3,2.6c1.3,0.4,2.8,0.3,4-0.3
				c0.1,0,0.2-0.1,0.3-0.1l20.6-8.4c1.3-0.5,2.8-0.3,3.9,0.5c1.1,0.8,1.7,2.2,1.6,3.6l-1.7,16.8L-1348,149.8z"/>
		</g>
		<g>
			<ellipse class="st13" cx="-1318.3" cy="150.5" rx="20.5" ry="24.5"/>
			<path class="st1" d="M-1318.3,179c-13.5,0-24.5-12.8-24.5-28.5c0-15.7,11-28.5,24.5-28.5c13.5,0,24.5,12.8,24.5,28.5
				C-1293.8,166.2-1304.8,179-1318.3,179z M-1318.3,130c-9.1,0-16.5,9.2-16.5,20.5c0,11.3,7.4,20.5,16.5,20.5s16.5-9.2,16.5-20.5
				C-1301.8,139.2-1309.2,130-1318.3,130z"/>
		</g>
		<g>
			<g>
				
					<ellipse transform="matrix(0.9979 -6.401407e-02 6.401407e-02 0.9979 -12.9844 -85.8212)" class="st13" cx="-1345.8" cy="159.7" rx="17.6" ry="20.9"/>
				<path class="st1" d="M-1345.4,184.6c-11.4,0-21.1-10.3-21.9-23.5c-0.9-13.7,8.1-25.4,19.9-26.2c11.9-0.7,22.2,9.8,23.1,23.4l0,0
					c0.9,13.7-8.1,25.4-19.9,26.2C-1344.6,184.6-1345,184.6-1345.4,184.6z M-1346.2,142.9c-0.2,0-0.5,0-0.7,0
					c-7.5,0.5-13.1,8.4-12.5,17.7c0.6,9.3,7.1,16.5,14.6,16c7.5-0.5,13.1-8.4,12.5-17.7l0,0C-1332.8,149.9-1339,142.9-1346.2,142.9z
					"/>
			</g>
			<g>
				
					<ellipse transform="matrix(-0.9979 -6.401407e-02 6.401407e-02 -0.9979 -2589.3025 236.4762)" class="st13" cx="-1290.9" cy="159.7" rx="17.6" ry="20.9"/>
				<path class="st1" d="M-1291.2,184.6c-0.4,0-0.8,0-1.2,0c-5.9-0.4-11.2-3.4-15-8.5c-3.6-4.9-5.4-11.2-5-17.7
					c0.9-13.7,11.2-24.2,23.1-23.4c5.9,0.4,11.2,3.4,15,8.5c3.6,4.9,5.4,11.2,5,17.7C-1270.2,174.3-1279.9,184.6-1291.2,184.6z
					 M-1290.5,142.9c-7.2,0-13.3,7-13.9,16c-0.3,4.6,0.9,9,3.4,12.4c2.3,3.2,5.6,5.1,9,5.3c7.5,0.5,14-6.7,14.6-16
					c0.3-4.6-0.9-9-3.4-12.4c-2.3-3.2-5.6-5.1-9-5.3C-1290,142.9-1290.3,142.9-1290.5,142.9z"/>
			</g>
		</g>
		<g>
			<circle class="st13" cx="-1318.3" cy="81.8" r="31.2"/>
			<path class="st1" d="M-1318.3,117c-19.4,0-35.2-15.8-35.2-35.2s15.8-35.2,35.2-35.2s35.2,15.8,35.2,35.2S-1298.9,117-1318.3,117z
				 M-1318.3,54.6c-15,0-27.2,12.2-27.2,27.2s12.2,27.2,27.2,27.2s27.2-12.2,27.2-27.2S-1303.3,54.6-1318.3,54.6z"/>
		</g>
		<g>
			<circle class="st13" cx="-1318.3" cy="96.1" r="17"/>
			<path class="st1" d="M-1318.3,117c-11.6,0-21-9.4-21-21c0-11.6,9.4-21,21-21s21,9.4,21,21C-1297.3,107.6-1306.8,117-1318.3,117z
				 M-1318.3,83.1c-7.2,0-13,5.8-13,13c0,7.2,5.8,13,13,13s13-5.8,13-13C-1305.3,88.9-1311.2,83.1-1318.3,83.1z"/>
		</g>
		<g>
			<circle class="st1" cx="-1318.3" cy="94" r="8"/>
		</g>
		<g>
			<g>
				<circle class="st1" cx="-1327.7" cy="70" r="4.1"/>
			</g>
			<g>
				<circle class="st1" cx="-1309" cy="70" r="4.1"/>
			</g>
		</g>
		<g>
			<g>
				<path class="st1" d="M-1352,75.8l-4.4-4.4c-6.1-6.1-6.1-16.1,0-22.3l3.2-3.2c6.1-6.1,16.1-6.1,22.3,0l4.4,4.4l-5.7,5.7l-4.4-4.4
					c-3-3-7.9-3-11,0l-3.2,3.2c-3,3-3,7.9,0,11l4.4,4.4L-1352,75.8z"/>
			</g>
			<g>
				<path class="st1" d="M-1284.7,75.8l-5.7-5.7l4.4-4.4c3-3,3-7.9,0-11l-3.2-3.2c-3-3-7.9-3-11,0l-4.4,4.4l-5.7-5.7l4.4-4.4
					c6.1-6.1,16.1-6.1,22.3,0l3.2,3.2c6.1,6.1,6.1,16.1,0,22.3L-1284.7,75.8z"/>
			</g>
		</g>
	</g>
</g>
<g>
	<g>
		<path class="st5" d="M-494.3-535.5c-2.1,0-3.8-1.7-3.8-3.8V-552c0-11.8-9.6-21.4-21.4-21.4H-559c-11.8,0-21.4,9.6-21.4,21.4v12.7
			c0,2.1-1.7,3.8-3.8,3.8s-3.8-1.7-3.8-3.8V-552c0-16,13-29,29-29h39.6c16,0,29,13,29,29v12.7C-490.5-537.2-492.2-535.5-494.3-535.5
			z"/>
	</g>
	<g>
		<path class="st5" d="M-578.8-450.2c-2.1,0-3.8-1.7-3.8-3.8v-71.8c0-5.7-4.3-10.2-9.8-10.2s-9.8,4.5-9.8,10.2
			c0,5.7,4.4,10.2,9.9,10.2c2.1,0,3.8,1.7,3.8,3.8s-1.7,3.8-3.8,3.8c-9.7,0-17.6-8-17.6-17.9c0-10,7.7-17.9,17.5-17.9
			s17.5,7.8,17.5,17.8v71.8C-575-451.9-576.7-450.2-578.8-450.2z"/>
	</g>
	<g>
		<path class="st5" d="M-490.7-450.4h-97c-6.8,0-12.4-5.6-12.4-12.5V-509c0-2.1,1.7-3.8,3.8-3.8s3.8,1.7,3.8,3.8v46.1
			c0,2.6,2.1,4.8,4.7,4.8h97c2.6,0,4.7-2.2,4.7-4.8v-46.4c0-2.1,1.7-3.8,3.8-3.8s3.8,1.7,3.8,3.8v46.4
			C-478.3-456-483.8-450.4-490.7-450.4z"/>
	</g>
	<g>
		<path class="st5" d="M-501-505.1h-77.8c-2.1,0-3.8-1.7-3.8-3.8s1.7-3.8,3.8-3.8h77.8c2.1,0,3.8,1.7,3.8,3.8
			S-498.9-505.1-501-505.1z"/>
	</g>
	<g>
		<path class="st5" d="M-499.7-451.2c-2.1,0-3.8-1.7-3.8-3.8v-71.8c0-9.8,8-17.8,17.8-17.8c9.8,0,17.8,8,17.8,17.9
			c0,9.9-8,17.9-17.8,17.9c-2.1,0-3.8-1.7-3.8-3.8s1.7-3.8,3.8-3.8c5.6,0,10.1-4.6,10.1-10.2c0-5.6-4.5-10.2-10.1-10.2
			c-5.6,0-10.1,4.6-10.1,10.2v71.8C-495.9-452.9-497.6-451.2-499.7-451.2z"/>
	</g>
</g>
<g>
	<g>
		<g>
			<path class="st2" d="M-502,175.4h-77.7c-1,0-2-0.4-2.7-1.1c-0.7-0.7-1.1-1.7-1.1-2.7l0.3-66h-13.6c-1.7,0-3.2-1.1-3.7-2.8
				l-9.9-33.9c-0.5-1.8,0.4-3.8,2.1-4.6l41-18.4c0.5-0.2,1-0.3,1.6-0.3h49.8c0.5,0,1.1,0.1,1.6,0.3l41,18.4c1.7,0.8,2.6,2.7,2.1,4.6
				l-9.9,33.9c-0.5,1.6-2,2.8-3.7,2.8h-13.6l0.3,66c0,1-0.4,2-1.1,2.7C-500,175-501,175.4-502,175.4z M-575.8,167.8h70l-0.3-66
				c0-1,0.4-2,1.1-2.7c0.7-0.7,1.7-1.1,2.7-1.1h14.6l8.2-28l-37.2-16.7h-48.2L-602.1,70l8.2,28h14.6c1,0,2,0.4,2.7,1.1
				c0.7,0.7,1.1,1.7,1.1,2.7L-575.8,167.8z"/>
		</g>
		<g>
			<path class="st2" d="M-540.8,71.3c-15.3,0-27.8-9.8-27.8-21.9c0-2.1,1.7-3.8,3.8-3.8s3.8,1.7,3.8,3.8c0,7.9,9,14.3,20.1,14.3
				s20.1-6.4,20.1-14.3c0-2.1,1.7-3.8,3.8-3.8s3.8,1.7,3.8,3.8C-513.1,61.5-525.5,71.3-540.8,71.3z"/>
		</g>
	</g>
</g>
<g>
	<g>
		<g>
			<path class="st7" d="M112.6,181.8c-0.7,0-1.4-0.2-2-0.5c-1.2-0.7-2-2-2-3.5v-66.3c0-1.4,0.8-2.8,2-3.5l51-28.6
				c1.9-1.1,4.4-0.4,5.4,1.5c1.1,1.9,0.4,4.4-1.5,5.4l-49,27.5V171l43-24.1V114c0-2.2,1.8-4,4-4s4,1.8,4,4v35.2c0,1.4-0.8,2.8-2,3.5
				l-51,28.6C113.9,181.6,113.3,181.8,112.6,181.8z"/>
		</g>
		<g>
			<path class="st7" d="M112.6,181.8c-0.7,0-1.3-0.2-1.9-0.5l-52-28.6c-1.3-0.7-2.1-2-2.1-3.5v-34.7c0-2.2,1.8-4,4-4s4,1.8,4,4v32.3
				l44,24.2v-57.2L58.7,86.4c-1.9-1.1-2.6-3.5-1.6-5.4c1.1-1.9,3.5-2.6,5.4-1.6l52,28.6c1.3,0.7,2.1,2,2.1,3.5v66.3
				c0,1.4-0.7,2.7-2,3.4C114,181.6,113.3,181.8,112.6,181.8z"/>
		</g>
		<g>
			<path class="st7" d="M60.6,86.9c-1.4,0-2.8-0.8-3.5-2.1c-1-1.9-0.3-4.4,1.6-5.4l52-28.1c1.9-1,4.4-0.3,5.4,1.6
				c1,1.9,0.3,4.4-1.6,5.4l-52,28.1C61.9,86.8,61.2,86.9,60.6,86.9z"/>
		</g>
		<g>
			<path class="st7" d="M112.6,122.5c-2.2,0-4-1.8-4-4V54.9c0-2.2,1.8-4,4-4s4,1.8,4,4v63.6C116.6,120.7,114.8,122.5,112.6,122.5z"
				/>
		</g>
		<g>
			<g>
				<path class="st7" d="M163.6,86.9c-0.7,0-1.3-0.2-1.9-0.5l-51-28.1c-1.6-0.9-2.4-2.7-1.9-4.5c0.5-1.8,2-3,3.9-3h30.7
					c2.2,0,4,1.8,4,4c0,2.2-1.8,4-4,4h-15.1l37.4,20.6c1.9,1.1,2.6,3.5,1.6,5.4C166.4,86.2,165,86.9,163.6,86.9z"/>
			</g>
			<g>
				<path class="st7" d="M194.2,87c-0.7,0-1.3-0.2-1.9-0.5l-51-28.1c-1.9-1.1-2.6-3.5-1.6-5.4c1.1-1.9,3.5-2.6,5.4-1.6l51,28.1
					c1.9,1.1,2.6,3.5,1.6,5.4C197,86.2,195.6,87,194.2,87z"/>
			</g>
			<g>
				<path class="st7" d="M194.3,87h-30.7c-2.2,0-4-1.8-4-4c0-2.2,1.8-4,4-4h30.7c2.2,0,4,1.8,4,4C198.3,85.2,196.5,87,194.3,87z"/>
			</g>
		</g>
		<g>
			<g>
				<path class="st7" d="M113,58.9H82.4c-2.2,0-4-1.8-4-4c0-2.2,1.8-4,4-4H113c2.2,0,4,1.8,4,4C117,57.1,115.3,58.9,113,58.9z"/>
			</g>
			<g>
				<path class="st7" d="M31.4,87c-1.4,0-2.8-0.7-3.5-2.1c-1.1-1.9-0.4-4.4,1.6-5.4l51-28.1c1.9-1.1,4.4-0.4,5.4,1.6
					c1.1,1.9,0.4,4.4-1.6,5.4l-51,28.1C32.8,86.8,32.1,87,31.4,87z"/>
			</g>
			<g>
				<path class="st7" d="M60.6,87H31.4c-2.2,0-4-1.8-4-4c0-2.2,1.8-4,4-4h29.2c2.2,0,4,1.8,4,4C64.6,85.2,62.8,87,60.6,87z"/>
			</g>
		</g>
		<g>
			<path class="st7" d="M91.6,134.3c-0.7,0-1.3-0.2-1.9-0.5l-52-28.4c-1.1-0.6-1.9-1.8-2.1-3s0.3-2.6,1.3-3.4l21-19.1
				c1.6-1.5,4.2-1.4,5.7,0.3c1.5,1.6,1.4,4.2-0.3,5.7l-16.8,15.3L91,125.5l18.9-17.2c1.6-1.5,4.2-1.4,5.7,0.3
				c1.5,1.6,1.4,4.2-0.3,5.7l-21,19.1C93.5,134,92.6,134.3,91.6,134.3z"/>
		</g>
		<g>
			<path class="st7" d="M133.6,134.3c-1,0-1.9-0.4-2.7-1l-21-19.1c-1.6-1.5-1.8-4-0.3-5.7c1.5-1.6,4-1.8,5.7-0.3l18.9,17.2
				l44.6-24.3l-16.8-15.3c-1.6-1.5-1.8-4-0.3-5.7c1.5-1.6,4-1.8,5.7-0.3l21,19.1c1,0.9,1.4,2.2,1.3,3.4s-0.9,2.4-2.1,3l-52,28.4
				C134.9,134.2,134.3,134.3,133.6,134.3z"/>
		</g>
	</g>
</g>
<g>
	<g>
		<path class="st8" d="M-154-141.3h-109.3c-6.9,0-12.5-5.6-12.5-12.5V-228c0-6.9,5.6-12.5,12.5-12.5H-154c6.9,0,12.5,5.6,12.5,12.5
			v74.2C-141.5-146.9-147.1-141.3-154-141.3z M-263.3-232.5c-2.5,0-4.5,2-4.5,4.5v74.2c0,2.5,2,4.5,4.5,4.5H-154
			c2.5,0,4.5-2,4.5-4.5V-228c0-2.5-2-4.5-4.5-4.5H-263.3z"/>
	</g>
	<g>
		<path class="st8" d="M-161.8-155.4h-93.7c-3.5,0-6.3-2.8-6.3-6.3v-58.4c0-3.5,2.8-6.3,6.3-6.3h93.7c3.5,0,6.3,2.8,6.3,6.3v58.4
			C-155.5-158.2-158.4-155.4-161.8-155.4z M-253.8-163.4h90.2v-55h-90.2V-163.4z"/>
	</g>
	<g>
		<path class="st8" d="M-182.5-119.3h-52.4l0.2-4.2c0.6-13.9,12-24.8,26-24.8c14,0,25.4,10.9,26,24.8L-182.5-119.3z M-226-127.3
			h34.6c-2.2-7.6-9.1-13-17.3-13C-216.9-140.3-223.8-134.9-226-127.3z"/>
	</g>
</g>
<g>
	<g>
		<g>
			<path class="st9" d="M83.2-467.6H69.5c-5,0-9-4-9-9v-84.8c0-5,4-9,9-9h13.7c5,0,9,4,9,9v84.8C92.2-471.7,88.2-467.6,83.2-467.6z
				 M69.5-562.8c-0.7,0-1.3,0.6-1.3,1.3v84.8c0,0.7,0.6,1.3,1.3,1.3h13.7c0.7,0,1.3-0.6,1.3-1.3v-84.8c0-0.7-0.6-1.3-1.3-1.3H69.5z"
				/>
		</g>
		<g>
			<path class="st9" d="M87.6-547h-23c-2.2,0-4-1.8-4-4s1.8-4,4-4h23c2.2,0,4,1.8,4,4S89.8-547,87.6-547z"/>
		</g>
		<g>
			<path class="st9" d="M87.6-483H64.6c-2.2,0-4-1.8-4-4s1.8-4,4-4h22.9c2.2,0,4,1.8,4,4S89.8-483,87.6-483z"/>
		</g>
	</g>
	<g>
		<g>
			<path class="st9" d="M119.9-467.6h-13.7c-5,0-9-4-9-9v-75.8c0-5,4-9,9-9h13.7c5,0,9,4,9,9v75.8
				C128.9-471.7,124.8-467.6,119.9-467.6z M106.2-553.8c-0.7,0-1.3,0.6-1.3,1.3v75.8c0,0.7,0.6,1.3,1.3,1.3h13.7
				c0.7,0,1.3-0.6,1.3-1.3v-75.8c0-0.7-0.6-1.3-1.3-1.3H106.2z"/>
		</g>
		<g>
			<path class="st9" d="M124.3-538h-23c-2.2,0-4-1.8-4-4s1.8-4,4-4h23c2.2,0,4,1.8,4,4S126.5-538,124.3-538z"/>
		</g>
		<g>
			<path class="st9" d="M124.2-483h-22.9c-2.2,0-4-1.8-4-4s1.8-4,4-4h22.9c2.2,0,4,1.8,4,4S126.4-483,124.2-483z"/>
		</g>
	</g>
	<g>
		<g>
			<path class="st9" d="M168.2-467.6c-3.6,0-7.1-2.2-8.4-5.9l-26.4-71.1c-1.7-4.6,0.6-9.8,5.3-11.6l12.8-4.8
				c4.6-1.7,9.8,0.6,11.6,5.3l26.4,71.1c1.7,4.6-0.6,9.8-5.3,11.6l-12.8,4.8C170.3-467.8,169.2-467.6,168.2-467.6z M154.5-553.8
				c-0.2,0-0.3,0-0.5,0.1l-12.8,4.8c-0.7,0.3-1,1-0.8,1.7l26.4,71.1c0.2,0.4,0.5,0.7,0.7,0.7c0.2,0.1,0.6,0.2,1,0l12.8-4.8l1.3,3.6
				l-1.3-3.6c0.7-0.3,1-1,0.8-1.7l-26.4-71.1C155.6-553.4,155.1-553.8,154.5-553.8z"/>
		</g>
		<g>
			<path class="st9" d="M140.8-532.2c-1.6,0-3.2-1-3.7-2.6c-0.8-2.1,0.3-4.4,2.4-5.1l21.6-8c2.1-0.8,4.4,0.3,5.1,2.4
				c0.8,2.1-0.3,4.4-2.4,5.1l-21.6,8C141.7-532.3,141.2-532.2,140.8-532.2z"/>
		</g>
		<g>
			<path class="st9" d="M160-480.7c-1.6,0-3.2-1-3.8-2.6c-0.8-2.1,0.3-4.4,2.4-5.1l21.5-8c2.1-0.8,4.4,0.3,5.1,2.4s-0.3,4.4-2.4,5.1
				l-21.5,8C160.9-480.8,160.4-480.7,160-480.7z"/>
		</g>
	</g>
</g>
<g>
	<g>
		<path class="st10" d="M-480.9-217.2h-115c-2.2,0-4-1.8-4-4s1.8-4,4-4h115c2.2,0,4,1.8,4,4S-478.7-217.2-480.9-217.2z"/>
	</g>
	<g>
		<path class="st10" d="M-522.5-229.2L-522.5-229.2c-2.2,0-4.1-1.8-4.1-4.1v0c0-2.2,1.8-4.1,4.1-4.1l0,0c2.2,0,4.1,1.8,4.1,4.1v0
			C-518.4-231-520.3-229.2-522.5-229.2z"/>
	</g>
	<g>
		<path class="st10" d="M-510.1-229.2L-510.1-229.2c-2.2,0-4.1-1.8-4.1-4.1v0c0-2.2,1.8-4.1,4.1-4.1l0,0c2.2,0,4.1,1.8,4.1,4.1v0
			C-506-231-507.9-229.2-510.1-229.2z"/>
	</g>
	<g>
		<path class="st10" d="M-497.7-229.2L-497.7-229.2c-2.2,0-4.1-1.8-4.1-4.1v0c0-2.2,1.8-4.1,4.1-4.1l0,0c2.2,0,4.1,1.8,4.1,4.1v0
			C-493.6-231-495.5-229.2-497.7-229.2z"/>
	</g>
	<g>
		<path class="st10" d="M-489.6-124.4h-98.7c-7.3,0-13.3-6-13.3-13.3v-98.7c0-7.3,6-13.3,13.3-13.3h98.7c7.3,0,13.3,6,13.3,13.3
			v98.7C-476.3-130.3-482.3-124.4-489.6-124.4z M-588.3-241.6c-2.9,0-5.3,2.4-5.3,5.3v98.7c0,2.9,2.4,5.3,5.3,5.3h98.7
			c2.9,0,5.3-2.4,5.3-5.3v-98.7c0-2.9-2.4-5.3-5.3-5.3H-588.3z"/>
	</g>
	<g>
		<path class="st10" d="M-539.8-140.6c-18.8,0-34.1-15.3-34.1-34.1s15.3-34.1,34.1-34.1s34.1,15.3,34.1,34.1
			S-520.9-140.6-539.8-140.6z M-539.8-200.9c-14.4,0-26.1,11.7-26.1,26.1s11.7,26.1,26.1,26.1s26.1-11.7,26.1-26.1
			S-525.3-200.9-539.8-200.9z"/>
	</g>
	<g>
		<path class="st10" d="M-523.3-174.7c-2.2,0-4.2-1-5.6-2.5c-1.4,1.5-3.4,2.5-5.6,2.5c-2.2,0-4.2-1-5.6-2.5
			c-1.4,1.5-3.4,2.5-5.6,2.5c-2.2,0-4.2-1-5.6-2.5c-1.4,1.5-3.4,2.5-5.6,2.5c-2.2,0-4.2-0.9-5.6-2.4c-0.1,0.8-0.1,1.6-0.1,2.4
			c0,12.7,10.3,23,23,23c12.7,0,23-10.3,23-23c0-1.1-0.1-2.2-0.2-3.2C-518.4-176-520.7-174.7-523.3-174.7z"/>
	</g>
</g>
<g>
	<g>
		<g>
			<path class="st11" d="M-159.1-465.1h-55.1c-8.2,0-14.8-6.6-14.8-14.8v-63.2c0-8.2,6.6-14.8,14.8-14.8h55.1
				c8.2,0,14.8,6.6,14.8,14.8v63.2C-144.3-471.7-150.9-465.1-159.1-465.1z M-214.2-549.9c-3.8,0-6.8,3.1-6.8,6.8v63.2
				c0,3.8,3.1,6.8,6.8,6.8h55.1c3.8,0,6.8-3.1,6.8-6.8v-63.2c0-3.8-3.1-6.8-6.8-6.8H-214.2z"/>
		</g>
		<g>
			<path class="st11" d="M-225-475.2c-0.8,0-1.6-0.2-2.3-0.7c-1.8-1.3-2.2-3.8-1-5.6l15.2-21.7c0.7-1,1.8-1.6,3.1-1.7
				c1.2,0,2.4,0.5,3.2,1.4l9.7,11.3l19.4-25.8c0.7-1,1.9-1.6,3.2-1.6c0,0,0,0,0,0c1.2,0,2.4,0.6,3.2,1.6l26.1,33.7
				c1.4,1.7,1,4.3-0.7,5.6c-1.7,1.4-4.3,1-5.6-0.7l-22.9-29.6l-19.2,25.6c-0.7,1-1.9,1.6-3.1,1.6c-1.2,0-2.4-0.5-3.2-1.4l-9.6-11.2
				l-12.3,17.5C-222.5-475.8-223.7-475.2-225-475.2z"/>
		</g>
		<g>
			<polygon class="st1" points="-204.8,-511.7 -278.2,-511.7 -268.3,-568.7 -214.7,-568.7 			"/>
			<path class="st11" d="M-204.8-507.7h-73.4c-1.2,0-2.3-0.5-3.1-1.4c-0.8-0.9-1.1-2.1-0.9-3.3l9.9-57c0.3-1.9,2-3.3,3.9-3.3h53.6
				c1.9,0,3.6,1.4,3.9,3.3l9.9,57c0.2,1.2-0.1,2.4-0.9,3.3C-202.5-508.2-203.6-507.7-204.8-507.7z M-273.4-515.7h63.9l-8.5-49h-46.9
				L-273.4-515.7z"/>
		</g>
		<g>
			<path class="st11" d="M-241.5-452.1c-2.2,0-4-1.8-4-4V-511c0-2.2,1.8-4,4-4c2.2,0,4,1.8,4,4v54.9
				C-237.5-453.9-239.3-452.1-241.5-452.1z"/>
		</g>
		<g>
			<path class="st11" d="M-226.2-449.4h-30.6c-2.2,0-4-1.8-4-4s1.8-4,4-4h30.6c2.2,0,4,1.8,4,4S-224-449.4-226.2-449.4z"/>
		</g>
		<g>
			<path class="st11" d="M-259.4-490.8c-2.2,0-4-1.8-4-4V-511c0-2.2,1.8-4,4-4c2.2,0,4,1.8,4,4v16.2
				C-255.4-492.6-257.1-490.8-259.4-490.8z"/>
		</g>
		<g>
			<path class="st11" d="M-259.4-476.9c-5.5,0-10-4.5-10-10s4.5-10,10-10c5.5,0,10,4.5,10,10S-253.9-476.9-259.4-476.9z
				 M-259.4-488.8c-1.1,0-2,0.9-2,2s0.9,2,2,2c1.1,0,2-0.9,2-2S-258.3-488.8-259.4-488.8z"/>
		</g>
	</g>
</g>
<g>
	<g>
		<g>
			<path class="st12" d="M178-141.2H47.7l0.8-57.9c0-8.4,6.8-15.1,15.6-15.1h97.6c8.7,0,15.6,6.7,15.6,15.2L178-141.2z M55.8-149.2
				h114l-0.7-49.8c0-4.1-3.3-7.2-7.6-7.2H64.1c-4.2,0-7.6,3.1-7.6,7.2L55.8-149.2z"/>
		</g>
		<g>
			<path class="st12" d="M145.1-189.2h-66c-2.2,0-4-1.8-4-4s1.8-4,4-4h66c2.2,0,4,1.8,4,4S147.3-189.2,145.1-189.2z"/>
		</g>
		<g>
			<g>
				<path class="st12" d="M78.1-130.2h-9c-2.2,0-4-1.8-4-4s1.8-4,4-4h9c2.2,0,4,1.8,4,4S80.3-130.2,78.1-130.2z"/>
			</g>
			<g>
				<g>
					<path class="st12" d="M155.1-130.2h-9c-2.2,0-4-1.8-4-4s1.8-4,4-4h9c2.2,0,4,1.8,4,4S157.3-130.2,155.1-130.2z"/>
				</g>
			</g>
		</g>
		<g>
			<path class="st12" d="M145.1-176.2h-66c-2.2,0-4-1.8-4-4c0-2.2,1.8-4,4-4h66c2.2,0,4,1.8,4,4
				C149.1-177.9,147.3-176.2,145.1-176.2z"/>
		</g>
		<g>
			<g>
				<path class="st12" d="M80.7-206c-1.8,0-4-0.2-5.8-2c-2.2-2.1-2.4-5.4-2.4-7.6v-18.7c0-5.3,4.3-9.6,9.6-9.6h29.2
					c5.3,0,9.6,4.3,9.6,9.6v18.7c0,2.2-0.2,5.5-2.4,7.6c-2.1,2.1-4.7,2-6.6,2l-0.6,0H82.1c-0.2,0-0.5,0-0.7,0
					C81.2-206,80.9-206,80.7-206z M80.6-214c0.2,0,0.5,0,0.7,0c0.3,0,0.5,0,0.8,0l29.9,0c0.3,0,0.6,0,0.8,0c0.1-0.3,0.1-0.9,0.1-1.6
					v-18.7c0-0.9-0.7-1.6-1.6-1.6H82.1c-0.9,0-1.6,0.7-1.6,1.6v18.7C80.5-214.9,80.5-214.4,80.6-214z"/>
			</g>
			<g>
				<path class="st12" d="M144.2-206c-0.1,0-0.2,0-0.3,0l-0.3,0h-21.1c-2.8,0-9.5,0-9.5-9.5v-10.8c0-5.2,4.3-9.5,9.5-9.5h21.1
					c5.2,0,9.5,4.3,9.5,9.5v10.8c0,2.2-0.2,5.3-2.4,7.4C148.6-206.1,146.1-206,144.2-206z M121-214.1c0.4,0,1,0,1.4,0l21.5,0
					c0.3,0,0.7,0,1,0c0-0.3,0.1-0.8,0.1-1.5v-10.8c0-0.8-0.7-1.5-1.5-1.5h-21.1c-0.8,0-1.5,0.7-1.5,1.5v10.8
					C120.9-214.8,121-214.4,121-214.1z"/>
			</g>
		</g>
	</g>
	<g>
		<path class="st12" d="M218.6-160.1c-3.3-2.9-7.8-4.2-12.2-3.4c-3.9,0.7-7,3-9.7,5c-1.5,1.1-2.9,2.1-4.3,2.8
			c-5.1,2.5-12.1,0.9-15.6-3.6c-1.3-1.8-3.9-2.1-5.6-0.7c-1.7,1.3-2.1,3.9-0.7,5.6c5.8,7.5,17,10.1,25.5,5.9c2-1,3.8-2.3,5.5-3.6
			c2.3-1.7,4.3-3.2,6.4-3.6c1.9-0.4,3.9,0.2,5.4,1.5c1.4,1.3,2.2,3.3,2.1,5.2c0,0.2,0,0.5,0,0.7c1.4-3.7,2.6-7.5,3.6-11.4
			C218.8-159.9,218.7-160,218.6-160.1z"/>
	</g>
</g>
<g>
	<g>
		<g>
			<path class="st1" d="M-140.7,115.1l-33.5-16.8h-26.6h-26.6l-33.5,16.8c-4.5,2.3-6.4,7.8-4.1,12.4l0,0c2.3,4.5,7.9,6.4,12.4,4.1
				l20.6-8.4l-1.7,16.8l-1.1,13.8h34h34l-1.1-13.8l-1.7-16.7l20.6,8.4c4.5,2.3,10.1,0.4,12.4-4.1l0,0
				C-134.3,122.9-136.2,117.4-140.7,115.1z"/>
			<path class="st13" d="M-166.8,157.8h-68.1c-1.1,0-2.2-0.5-2.9-1.3c-0.8-0.8-1.1-1.9-1-3l1.1-13.8l1.1-10.3l-14.3,5.8
				c-3.1,1.5-6.6,1.7-9.9,0.7c-3.4-1.1-6.1-3.5-7.7-6.6c-1.6-3.2-1.8-6.7-0.7-10.1c1.1-3.4,3.5-6.1,6.6-7.7l33.5-16.8
				c0.6-0.3,1.2-0.4,1.8-0.4h53.1c0.6,0,1.2,0.1,1.8,0.4l33.5,16.8c0,0,0,0,0,0c6.5,3.3,9.2,11.2,5.9,17.8c-3.2,6.5-11.1,9.1-17.6,6
				l-14.3-5.8l1,10.1l1.1,13.9c0.1,1.1-0.3,2.2-1,3C-164.6,157.3-165.7,157.8-166.8,157.8z M-230.5,149.8h59.4l-0.8-9.5l-1.7-16.7
				c-0.1-1.4,0.5-2.8,1.6-3.6c1.1-0.8,2.6-1,3.9-0.5l20.6,8.4c0.1,0,0.2,0.1,0.3,0.1c2.6,1.3,5.7,0.3,7-2.3c1.3-2.6,0.2-5.7-2.3-7
				l-32.7-16.3h-51.2l-32.7,16.3c-1.2,0.6-2.2,1.7-2.6,3c-0.4,1.3-0.3,2.7,0.3,4s1.7,2.2,3,2.6c1.3,0.4,2.8,0.3,4-0.3
				c0.1,0,0.2-0.1,0.3-0.1l20.6-8.4c1.3-0.5,2.8-0.3,3.9,0.5c1.1,0.8,1.7,2.2,1.6,3.6l-1.7,16.8L-230.5,149.8z"/>
		</g>
		<g>
			<ellipse class="st1" cx="-200.8" cy="150.5" rx="20.5" ry="24.5"/>
			<path class="st13" d="M-200.8,179c-13.5,0-24.5-12.8-24.5-28.5c0-15.7,11-28.5,24.5-28.5c13.5,0,24.5,12.8,24.5,28.5
				C-176.3,166.2-187.3,179-200.8,179z M-200.8,130c-9.1,0-16.5,9.2-16.5,20.5c0,11.3,7.4,20.5,16.5,20.5c9.1,0,16.5-9.2,16.5-20.5
				C-184.3,139.2-191.7,130-200.8,130z"/>
		</g>
		<g>
			<g>
				
					<ellipse transform="matrix(0.9979 -6.401407e-02 6.401407e-02 0.9979 -10.6924 -14.2856)" class="st1" cx="-228.3" cy="159.7" rx="17.6" ry="20.9"/>
				<path class="st13" d="M-227.9,184.6c-5.4,0-10.6-2.3-14.7-6.6c-4.2-4.4-6.8-10.4-7.2-16.9c-0.9-13.7,8.1-25.4,19.9-26.2
					c11.9-0.8,22.2,9.8,23.1,23.4l0,0c0.9,13.7-8.1,25.4-19.9,26.2C-227.1,184.6-227.5,184.6-227.9,184.6z M-228.7,142.9
					c-0.2,0-0.5,0-0.7,0c-7.5,0.5-13.1,8.4-12.5,17.7c0.3,4.6,2.1,8.8,5,11.9c2.7,2.9,6.2,4.3,9.6,4.1c7.5-0.5,13.1-8.4,12.5-17.7
					l0,0C-215.3,149.9-221.5,142.9-228.7,142.9z"/>
			</g>
			<g>
				
					<ellipse transform="matrix(-0.9979 -6.401407e-02 6.401407e-02 -0.9979 -356.5995 308.0117)" class="st1" cx="-173.4" cy="159.7" rx="17.6" ry="20.9"/>
				<path class="st13" d="M-173.7,184.6c-0.4,0-0.8,0-1.2,0c-11.9-0.8-20.8-12.5-19.9-26.2l0,0c0.9-13.7,11.3-24.2,23.1-23.4
					c11.9,0.8,20.8,12.5,19.9,26.2C-152.7,174.3-162.4,184.6-173.7,184.6z M-186.9,158.8c-0.6,9.3,5,17.2,12.5,17.7
					c7.5,0.5,14-6.7,14.6-16c0.6-9.3-5-17.2-12.5-17.7C-179.7,142.4-186.3,149.6-186.9,158.8L-186.9,158.8z"/>
			</g>
		</g>
		<g>
			<circle class="st1" cx="-200.8" cy="81.8" r="31.2"/>
			<path class="st13" d="M-200.8,117c-19.4,0-35.2-15.8-35.2-35.2s15.8-35.2,35.2-35.2s35.2,15.8,35.2,35.2S-181.4,117-200.8,117z
				 M-200.8,54.6c-15,0-27.2,12.2-27.2,27.2s12.2,27.2,27.2,27.2c15,0,27.2-12.2,27.2-27.2S-185.8,54.6-200.8,54.6z"/>
		</g>
		<g>
			<circle class="st1" cx="-200.8" cy="96.1" r="17"/>
			<path class="st13" d="M-200.8,117c-11.6,0-21-9.4-21-21c0-11.6,9.4-21,21-21c11.6,0,21,9.4,21,21
				C-179.8,107.6-189.3,117-200.8,117z M-200.8,83.1c-7.2,0-13,5.8-13,13c0,7.2,5.8,13,13,13c7.2,0,13-5.8,13-13
				C-187.8,88.9-193.7,83.1-200.8,83.1z"/>
		</g>
		<g>
			<circle class="st1" cx="-200.8" cy="94" r="8"/>
		</g>
		<g>
			<g>
				<circle class="st13" cx="-210.2" cy="70" r="4.1"/>
			</g>
			<g>
				<circle class="st13" cx="-191.5" cy="70" r="4.1"/>
			</g>
		</g>
		<g>
			<g>
				<path class="st13" d="M-234.5,75.8l-4.4-4.4c-6.1-6.1-6.1-16.1,0-22.3l3.2-3.2c6.1-6.1,16.1-6.1,22.3,0l4.4,4.4l-5.7,5.7
					l-4.4-4.4c-3-3-7.9-3-11,0l-3.2,3.2c-3,3-3,7.9,0,11l4.4,4.4L-234.5,75.8z"/>
			</g>
			<g>
				<path class="st13" d="M-167.2,75.8l-5.7-5.7l4.4-4.4c3-3,3-7.9,0-11l-3.2-3.2c-3-3-7.9-3-11,0L-187,56l-5.7-5.7l4.4-4.4
					c6.1-6.1,16.1-6.1,22.3,0l3.2,3.2c6.1,6.1,6.1,16.1,0,22.3L-167.2,75.8z"/>
			</g>
		</g>
	</g>
</g>
<g>
	<circle class="st14" cx="-539.2" cy="-513" r="109.7"/>
</g>
<g>
	<circle class="st15" cx="-215.5" cy="-513.3" r="109.7"/>
</g>
<g>
	<circle class="st16" cx="117.6" cy="-511.8" r="109.7"/>
</g>
<g>
	<circle class="st17" cx="112.9" cy="-187.3" r="109.7"/>
</g>
<g>
	<circle class="st18" cx="-209.4" cy="-187.6" r="109.7"/>
</g>
<g>
	<circle class="st19" cx="-539.1" cy="-187.3" r="109.7"/>
</g>
<g>
	<circle class="st20" cx="-539.8" cy="112.7" r="109.7"/>
</g>
<g>
	<circle class="st21" cx="-200.7" cy="112.7" r="109.7"/>
</g>
<g>
	<circle class="st22" cx="113.2" cy="112.8" r="109.7"/>
</g>
</svg>
