<?xml version="1.0" encoding="utf-8"?>
<!-- Generator: Adobe Illustrator 19.1.0, SVG Export Plug-In . SVG Version: 6.00 Build 0)  -->
<svg version="1.1" id="Calque_1" xmlns="http://www.w3.org/2000/svg" xmlns:xlink="http://www.w3.org/1999/xlink" x="0px" y="0px"
	 viewBox="0 0 226.1 226.1" style="enable-background:new 0 0 226.1 226.1;" xml:space="preserve">
<style type="text/css">
	.st0{fill-rule:evenodd;clip-rule:evenodd;fill:#FFFFFF;}
	.st1{fill:#FFFFFF;}
	.st2{fill:#ED6754;}
	.st3{fill-rule:evenodd;clip-rule:evenodd;fill:#8CC63F;}
	.st4{fill-rule:evenodd;clip-rule:evenodd;fill:#595959;}
	.st5{fill:#8CC63F;}
	.st6{fill:#595959;}
	.st7{fill:#999999;}
	.st8{fill:#29ABE2;}
	.st9{fill:#FBB07F;}
	.st10{fill:#0071BC;}
	.st11{fill:#CBE021;}
	.st12{fill:#00A99D;}
	.st13{fill:#FF99AC;}
</style>
<g>
	<g>
		<path class="st8" d="M168.6,159.1H59.3c-6.9,0-12.5-5.6-12.5-12.5V72.4c0-6.9,5.6-12.5,12.5-12.5h109.3c6.9,0,12.5,5.6,12.5,12.5
			v74.2C181.1,153.5,175.5,159.1,168.6,159.1z M59.3,67.9c-2.5,0-4.5,2-4.5,4.5v74.2c0,2.5,2,4.5,4.5,4.5h109.3c2.5,0,4.5-2,4.5-4.5
			V72.4c0-2.5-2-4.5-4.5-4.5H59.3z"/>
	</g>
	<g>
		<path class="st8" d="M160.8,145H67.1c-3.5,0-6.3-2.8-6.3-6.3V80.3c0-3.5,2.8-6.3,6.3-6.3h93.7c3.5,0,6.3,2.8,6.3,6.3v58.4
			C167.1,142.2,164.2,145,160.8,145z M68.8,137h90.2V82H68.8V137z"/>
	</g>
	<g>
		<path class="st8" d="M140.1,181.1H87.8l0.2-4.2c0.6-13.9,12-24.8,26-24.8c14,0,25.4,10.9,26,24.8L140.1,181.1z M96.6,173.1h34.6
			c-2.2-7.6-9.1-13-17.3-13C105.7,160.1,98.8,165.5,96.6,173.1z"/>
	</g>
</g>
</svg>
