<?xml version="1.0" encoding="utf-8"?>
<!-- Generator: Adobe Illustrator 19.1.0, SVG Export Plug-In . SVG Version: 6.00 Build 0)  -->
<svg version="1.1" id="Calque_1" xmlns="http://www.w3.org/2000/svg" xmlns:xlink="http://www.w3.org/1999/xlink" x="0px" y="0px"
	 viewBox="0 0 226.1 226.1" style="enable-background:new 0 0 226.1 226.1;" xml:space="preserve">
<style type="text/css">
	.st0{fill-rule:evenodd;clip-rule:evenodd;fill:#FFFFFF;}
	.st1{fill:#FFFFFF;}
	.st2{fill:#ED6754;}
	.st3{fill-rule:evenodd;clip-rule:evenodd;fill:#8CC63F;}
	.st4{fill-rule:evenodd;clip-rule:evenodd;fill:#595959;}
	.st5{fill:#8CC63F;}
	.st6{fill:#595959;}
	.st7{fill:#999999;}
	.st8{fill:#29ABE2;}
	.st9{fill:#FBB07F;}
	.st10{fill:#0071BC;}
	.st11{fill:#CBE021;}
	.st12{fill:#00A99D;}
	.st13{fill:#FF99AC;}
	.st14{fill:none;stroke:#8CC63F;stroke-width:5;stroke-miterlimit:10;}
	.st15{fill:none;stroke:#CBE021;stroke-width:5;stroke-miterlimit:10;}
	.st16{fill:none;stroke:#FBB07F;stroke-width:5;stroke-miterlimit:10;}
	.st17{fill:none;stroke:#00A99D;stroke-width:5;stroke-miterlimit:10;}
	.st18{fill:none;stroke:#29ABE2;stroke-width:5;stroke-miterlimit:10;}
	.st19{fill:none;stroke:#0071BC;stroke-width:5;stroke-miterlimit:10;}
	.st20{fill:none;stroke:#ED6754;stroke-width:5;stroke-miterlimit:10;}
	.st21{fill:none;stroke:#FF99AC;stroke-width:5;stroke-miterlimit:10;}
	.st22{fill:none;stroke:#999999;stroke-width:5;stroke-miterlimit:10;}
</style>
<g>
	<g>
		<g>
			<path class="st12" d="M178.2,158.9H48l0.8-57.9c0-8.4,6.8-15.1,15.6-15.1h97.6c8.7,0,15.6,6.7,15.6,15.2L178.2,158.9z
				 M56.1,150.9h114l-0.7-49.8c0-4.1-3.3-7.2-7.6-7.2H64.3c-4.2,0-7.6,3.1-7.6,7.2L56.1,150.9z"/>
		</g>
		<g>
			<path class="st12" d="M145.4,110.9h-66c-2.2,0-4-1.8-4-4c0-2.2,1.8-4,4-4h66c2.2,0,4,1.8,4,4
				C149.4,109.1,147.6,110.9,145.4,110.9z"/>
		</g>
		<g>
			<g>
				<path class="st12" d="M78.4,169.9h-9c-2.2,0-4-1.8-4-4c0-2.2,1.8-4,4-4h9c2.2,0,4,1.8,4,4C82.4,168.1,80.6,169.9,78.4,169.9z"/>
			</g>
			<g>
				<g>
					<path class="st12" d="M155.4,169.9h-9c-2.2,0-4-1.8-4-4c0-2.2,1.8-4,4-4h9c2.2,0,4,1.8,4,4
						C159.4,168.1,157.6,169.9,155.4,169.9z"/>
				</g>
			</g>
		</g>
		<g>
			<path class="st12" d="M145.4,123.9h-66c-2.2,0-4-1.8-4-4c0-2.2,1.8-4,4-4h66c2.2,0,4,1.8,4,4
				C149.4,122.1,147.6,123.9,145.4,123.9z"/>
		</g>
		<g>
			<g>
				<path class="st12" d="M81,94c-1.8,0-4-0.2-5.8-2c-2.2-2.1-2.4-5.4-2.4-7.6V65.6c0-5.3,4.3-9.6,9.6-9.6h29.2
					c5.3,0,9.6,4.3,9.6,9.6v18.7c0,2.2-0.2,5.5-2.4,7.6c-2.1,2.1-4.7,2-6.6,2l-0.6,0H82.4c-0.2,0-0.5,0-0.7,0C81.5,94,81.2,94,81,94
					z M80.9,86c0.2,0,0.5,0,0.7,0c0.3,0,0.5,0,0.8,0l29.9,0c0.3,0,0.6,0,0.8,0c0.1-0.3,0.1-0.9,0.1-1.6V65.6c0-0.9-0.7-1.6-1.6-1.6
					H82.4c-0.9,0-1.6,0.7-1.6,1.6v18.7C80.8,85.1,80.8,85.7,80.9,86z"/>
			</g>
			<g>
				<path class="st12" d="M144.5,94c-0.1,0-0.2,0-0.3,0l-0.3,0h-21.1c-2.8,0-9.5,0-9.5-9.5V73.7c0-5.2,4.3-9.5,9.5-9.5h21.1
					c5.2,0,9.5,4.3,9.5,9.5v10.8c0,2.2-0.2,5.3-2.4,7.4C148.9,93.9,146.4,94,144.5,94z M121.3,86c0.4,0,1,0,1.4,0l21.5,0
					c0.3,0,0.7,0,1,0c0-0.3,0.1-0.8,0.1-1.5V73.7c0-0.8-0.7-1.5-1.5-1.5h-21.1c-0.8,0-1.5,0.7-1.5,1.5v10.8
					C121.2,85.2,121.3,85.7,121.3,86z"/>
			</g>
		</g>
	</g>
	<g>
		<path class="st12" d="M218.9,139.9c-3.3-2.9-7.8-4.2-12.2-3.4c-3.9,0.7-7,3-9.7,5c-1.5,1.1-2.9,2.1-4.3,2.8
			c-5.1,2.5-12.1,0.9-15.6-3.6c-1.3-1.8-3.9-2.1-5.6-0.7c-1.7,1.3-2.1,3.9-0.7,5.6c5.8,7.5,17,10.1,25.5,5.9c2-1,3.8-2.3,5.5-3.6
			c2.3-1.7,4.3-3.2,6.4-3.6c1.9-0.4,3.9,0.2,5.4,1.5c1.4,1.3,2.2,3.3,2.1,5.2c0,0.2,0,0.5,0,0.7c1.4-3.7,2.6-7.5,3.6-11.4
			C219.1,140.2,219,140,218.9,139.9z"/>
	</g>
</g>
<g>
	<circle class="st17" cx="113.2" cy="112.8" r="109.7"/>
</g>
</svg>
