<?xml version="1.0" encoding="utf-8"?>
<!-- Generator: Adobe Illustrator 19.1.0, SVG Export Plug-In . SVG Version: 6.00 Build 0)  -->
<svg version="1.1" id="Calque_1" xmlns="http://www.w3.org/2000/svg" xmlns:xlink="http://www.w3.org/1999/xlink" x="0px" y="0px"
	 viewBox="0 0 173.3 168.4" style="enable-background:new 0 0 173.3 168.4;" xml:space="preserve">
<style type="text/css">
	.st0{fill-rule:evenodd;clip-rule:evenodd;fill:#FFFFFF;}
	.st1{fill:#FFFFFF;}
	.st2{fill:#ED6754;}
	.st3{fill-rule:evenodd;clip-rule:evenodd;fill:#8CC63F;}
	.st4{fill-rule:evenodd;clip-rule:evenodd;fill:#595959;}
	.st5{fill:#8CC63F;}
	.st6{fill:#595959;}
</style>
<g>
	<circle class="st5" cx="89" cy="84.2" r="84.2"/>
	<g>
		<path class="st1" d="M89,74.4C89,74.4,89,74.4,89,74.4c-2.8,0-5.4,0.8-7.4,2.7c-2,2-3.1,4.3-3.1,7.1c0,5.7,4.6,10.2,10.4,10.2
			c0,0,0,0,0,0c2.8,0,5.4-0.8,7.3-2.8c2-2,3.1-4.3,3.1-7.1c0-2.8-1.1-5.3-3-7.2C94.4,75.3,91.8,74.4,89,74.4z M92,87.3
			c-0.8,0.8-1.9,1.1-3,1.1c0,0,0,0,0,0c-2.4,0-4.3-1.7-4.3-4.1c0-1.2,0.5-2,1.3-2.8c0.8-0.8,1.9-1.1,3-1.1c0,0,0,0,0,0
			c1.2,0,2.2,0.2,3.1,1.1c0.8,0.8,1.3,1.7,1.3,2.9C93.3,85.5,92.8,86.5,92,87.3z"/>
		<path class="st1" d="M139.9,85.9c-0.3-0.6-0.5-1.2-0.7-1.6c-0.4-0.9-1.5-3.1-3.6-7.2c-4.3-8.2-12.1-23.2-14.3-30.1
			c-0.1-0.2-0.1-0.3-0.2-0.5c0-0.1-0.1-0.3-0.1-0.4c0,0,0-0.1,0-0.1c-1.5-4.7-3.9-9.3-8.8-11.4c-1.3-0.6-4.1-1.4-7.9-2.6
			c-6.7-2.1-15.8-4.9-21.1-7.5c-4.1-2-9.2-3.8-13.7-5.4c-4.5-1.6-9.6-3.4-11-4.5l-0.2-0.2C52.6,10.7,44.9,3.6,44.8,3.5
			c-1.2-1.1-3.2-1.1-4.3,0.2c-1.1,1.2-1.1,3.2,0.2,4.3c0.3,0.3,8.1,7.4,14,11.4c2.2,1.6,6.2,3.1,12.7,5.4c4.4,1.6,9.4,3.3,13.1,5.1
			c5.7,2.8,15.1,5.7,22,7.8c3.2,1,6.3,2,7.3,2.4c2.8,1.2,4.4,4.2,5.5,7.8c0.1,0.4,0.2,0.8,0.4,1.3c0.4,1.3,0.7,2.6,1,3.9
			c0.8,3.2,1.5,6.1,2.8,8.6c3.8,7.2,7,29,6.9,32.5c0,1.2-0.4,1.8-2.5,4c-1,1.1-2.3,2.5-3.8,4.4c-3.9,5-11.2,16.7-12.7,19l-7.1,6.4
			l-0.2,0.3c-1.9,2.9-4.6,5.7-5.8,6c-1-0.2-1.5-2.1-1.8-6.2c-0.1-1.6-0.2-2.9-0.3-3.9c1.9-2.1,6.2-7.2,10.5-13.3
			c7.6-10.6,11.4-18.7,11.5-24.3c0-13.8-11.2-25-25-25c0,0,0,0-0.1,0c-13.8,0-25.1,11.1-25.1,24.9c0,11.8,16.8,31.9,21.9,37.7
			c0,1.4,0.2,3.4,0.4,4.3c0.2,0.9,0.2,4.6-1.6,6c-0.9,0.7-1.5,0.7-1.8,0.7c-3.4-3.4-12.6-12.3-16.6-13.7c-3.3-1.2-5.1-2.4-6-6.2
			c-1.2-4.7-7.5-20.2-10.9-23.3c-1-0.9-3.5-6.6-5.3-12.1L29.3,48.2l-9.1-7L4.6,31.5c-1.4-0.9-3.3-0.4-4.2,1c-0.9,1.4-0.4,3.3,1,4.2
			l15.2,9.4l7.8,6l13.8,29.7c1,3,4.1,11.9,6.9,14.4c1.8,1.7,7.8,15.2,9.1,20.4c1.7,6.8,5.8,9,9.9,10.5c1.9,0.7,9.1,7.1,14.7,12.7
			l0.3,0.3l0.3,0.2c0.8,0.5,2.1,0.9,3.6,0.9c1.6,0,3.6-0.5,5.5-2.1c0.3-0.3,0.6-0.6,0.9-0.9c1,1,2.3,1.8,4,2
			c3.5,0.5,7.1-2.8,9.5-5.7c1,2.3,2.5,3.9,3.5,4.6c0.5,0.3,1.1,0.5,1.7,0.5c0.5,0,1-0.1,1.4-0.4c0.3-0.2,3.3-1.8,5-4
			c0.2-0.2,0.4-0.5,0.8-1c2.1-2.7,6.6-8.2,8.3-12.1c1.2-2.8,10.6-14,14.6-18.8c1.4-1.7,2.5-3,3-3.7
			C144.4,95.8,141.7,89.9,139.9,85.9z M88.9,118.4c-7.6-9-19-24.4-19-32.1c0-10.5,8.6-18.9,19-18.9c0,0,0,0,0,0c10.5,0,19,8.5,19,19
			C108,93.7,97.3,108.6,88.9,118.4z M136.6,96c-0.5,0.7-1.6,1.9-2.9,3.5c-7.1,8.4-14.1,16.9-15.5,20.3c-1.4,3.1-5.6,8.5-7.5,10.7
			c-0.4,0.5-0.7,0.8-0.9,1.1c-0.2,0.3-0.6,0.7-1.1,1c-0.4-0.8-0.8-2-0.7-3.6l4-3.6l0.2-0.4c0.1-0.1,8.4-13.6,12.5-18.8
			c1.3-1.7,2.5-2.9,3.5-3.9c2.2-2.3,4.1-4.4,4.2-8.1c0-1.7-0.6-7.1-1.6-13.2c1.4,2.7,2.6,5,2.9,5.6c0.2,0.5,0.5,1.2,0.8,1.8
			C136.4,92.7,137.1,95.3,136.6,96z"/>
	</g>
</g>
</svg>
