<?xml version="1.0" encoding="utf-8"?>
<!-- Generator: Adobe Illustrator 19.1.0, SVG Export Plug-In . SVG Version: 6.00 Build 0)  -->
<svg version="1.1" id="Calque_1" xmlns="http://www.w3.org/2000/svg" xmlns:xlink="http://www.w3.org/1999/xlink" x="0px" y="0px"
	 viewBox="0 0 226.1 226.1" style="enable-background:new 0 0 226.1 226.1;" xml:space="preserve">
<style type="text/css">
	.st0{fill-rule:evenodd;clip-rule:evenodd;fill:#FFFFFF;}
	.st1{fill:#FFFFFF;}
	.st2{fill:#ED6754;}
	.st3{fill-rule:evenodd;clip-rule:evenodd;fill:#8CC63F;}
	.st4{fill-rule:evenodd;clip-rule:evenodd;fill:#595959;}
	.st5{fill:#8CC63F;}
	.st6{fill:#595959;}
	.st7{fill:#999999;}
	.st8{fill:#29ABE2;}
	.st9{fill:#FBB07F;}
	.st10{fill:#0071BC;}
	.st11{fill:#CBE021;}
	.st12{fill:#00A99D;}
	.st13{fill:#FF99AC;}
	.st14{fill:none;stroke:#8CC63F;stroke-width:5;stroke-miterlimit:10;}
	.st15{fill:none;stroke:#CBE021;stroke-width:5;stroke-miterlimit:10;}
	.st16{fill:none;stroke:#FBB07F;stroke-width:5;stroke-miterlimit:10;}
	.st17{fill:none;stroke:#00A99D;stroke-width:5;stroke-miterlimit:10;}
	.st18{fill:none;stroke:#29ABE2;stroke-width:5;stroke-miterlimit:10;}
	.st19{fill:none;stroke:#0071BC;stroke-width:5;stroke-miterlimit:10;}
	.st20{fill:none;stroke:#ED6754;stroke-width:5;stroke-miterlimit:10;}
	.st21{fill:none;stroke:#FF99AC;stroke-width:5;stroke-miterlimit:10;}
	.st22{fill:none;stroke:#999999;stroke-width:5;stroke-miterlimit:10;}
</style>
<g>
	<g>
		<path class="st5" d="M158,90.3c-2.1,0-3.8-1.7-3.8-3.8V73.8c0-11.8-9.6-21.4-21.4-21.4H93.3c-11.8,0-21.4,9.6-21.4,21.4v12.7
			c0,2.1-1.7,3.8-3.8,3.8c-2.1,0-3.8-1.7-3.8-3.8V73.8c0-16,13-29,29-29h39.6c16,0,29,13,29,29v12.7C161.9,88.6,160.1,90.3,158,90.3
			z"/>
	</g>
	<g>
		<path class="st5" d="M73.5,175.5c-2.1,0-3.8-1.7-3.8-3.8V99.9c0-5.7-4.3-10.2-9.8-10.2S50,94.2,50,99.9c0,5.7,4.4,10.2,9.9,10.2
			c2.1,0,3.8,1.7,3.8,3.8s-1.7,3.8-3.8,3.8c-9.7,0-17.6-8-17.6-17.9c0-10,7.7-17.9,17.5-17.9s17.5,7.8,17.5,17.8v71.8
			C77.3,173.8,75.6,175.5,73.5,175.5z"/>
	</g>
	<g>
		<path class="st5" d="M161.6,175.4h-97c-6.8,0-12.4-5.6-12.4-12.5v-46.1c0-2.1,1.7-3.8,3.8-3.8c2.1,0,3.8,1.7,3.8,3.8v46.1
			c0,2.6,2.1,4.8,4.7,4.8h97c2.6,0,4.7-2.2,4.7-4.8v-46.4c0-2.1,1.7-3.8,3.8-3.8c2.1,0,3.8,1.7,3.8,3.8v46.4
			C174,169.8,168.5,175.4,161.6,175.4z"/>
	</g>
	<g>
		<path class="st5" d="M151.3,120.7H73.5c-2.1,0-3.8-1.7-3.8-3.8c0-2.1,1.7-3.8,3.8-3.8h77.8c2.1,0,3.8,1.7,3.8,3.8
			C155.1,119,153.4,120.7,151.3,120.7z"/>
	</g>
	<g>
		<path class="st5" d="M152.6,174.5c-2.1,0-3.8-1.7-3.8-3.8V98.9c0-9.8,8-17.8,17.8-17.8s17.8,8,17.8,17.9c0,9.9-8,17.9-17.8,17.9
			c-2.1,0-3.8-1.7-3.8-3.8s1.7-3.8,3.8-3.8c5.6,0,10.1-4.6,10.1-10.2c0-5.6-4.5-10.2-10.1-10.2c-5.6,0-10.1,4.6-10.1,10.2v71.8
			C156.4,172.8,154.7,174.5,152.6,174.5z"/>
	</g>
</g>
<g>
	<circle class="st14" cx="113.2" cy="112.8" r="109.7"/>
</g>
</svg>
