<?xml version="1.0" encoding="utf-8"?>
<!-- Generator: Adobe Illustrator 19.1.0, SVG Export Plug-In . SVG Version: 6.00 Build 0)  -->
<svg version="1.1" id="Calque_1" xmlns="http://www.w3.org/2000/svg" xmlns:xlink="http://www.w3.org/1999/xlink" x="0px" y="0px"
	 viewBox="0 0 219.3 219.3" style="enable-background:new 0 0 219.3 219.3;" xml:space="preserve">
<style type="text/css">
	.st0{fill-rule:evenodd;clip-rule:evenodd;fill:#FFFFFF;}
	.st1{fill:#FFFFFF;}
	.st2{fill:#ED6754;}
	.st3{fill-rule:evenodd;clip-rule:evenodd;fill:#8CC63F;}
	.st4{fill-rule:evenodd;clip-rule:evenodd;fill:#595959;}
	.st5{fill:#8CC63F;}
	.st6{fill:#595959;}
	.st7{fill:#999999;}
	.st8{fill:#29ABE2;}
	.st9{fill:#FBB07F;}
	.st10{fill:#0071BC;}
	.st11{fill:#CBE021;}
	.st12{fill:#00A99D;}
	.st13{fill:#FF99AC;}
</style>
<g>
	<g>
		<circle class="st9" cx="109.7" cy="109.7" r="109.7"/>
	</g>
	<g>
		<g>
			<path class="st1" d="M75.4,153.5H61.7c-5,0-9-4-9-9V59.7c0-5,4-9,9-9h13.7c5,0,9,4,9,9v84.8C84.4,149.5,80.4,153.5,75.4,153.5z
				 M61.7,58.4c-0.7,0-1.3,0.6-1.3,1.3v84.8c0,0.7,0.6,1.3,1.3,1.3h13.7c0.7,0,1.3-0.6,1.3-1.3V59.7c0-0.7-0.6-1.3-1.3-1.3H61.7z"/>
		</g>
		<g>
			<path class="st1" d="M79.8,74.1h-23c-2.2,0-4-1.8-4-4s1.8-4,4-4h23c2.2,0,4,1.8,4,4S82,74.1,79.8,74.1z"/>
		</g>
		<g>
			<path class="st1" d="M79.7,138.1H56.8c-2.2,0-4-1.8-4-4s1.8-4,4-4h22.9c2.2,0,4,1.8,4,4S82,138.1,79.7,138.1z"/>
		</g>
	</g>
	<g>
		<g>
			<path class="st1" d="M112.1,153.5H98.4c-5,0-9-4-9-9V68.7c0-5,4-9,9-9h13.7c5,0,9,4,9,9v75.8C121.1,149.5,117,153.5,112.1,153.5z
				 M98.4,67.4c-0.7,0-1.3,0.6-1.3,1.3v75.8c0,0.7,0.6,1.3,1.3,1.3h13.7c0.7,0,1.3-0.6,1.3-1.3V68.7c0-0.7-0.6-1.3-1.3-1.3H98.4z"/>
		</g>
		<g>
			<path class="st1" d="M116.5,83.1h-23c-2.2,0-4-1.8-4-4s1.8-4,4-4h23c2.2,0,4,1.8,4,4S118.7,83.1,116.5,83.1z"/>
		</g>
		<g>
			<path class="st1" d="M116.4,138.1H93.5c-2.2,0-4-1.8-4-4s1.8-4,4-4h22.9c2.2,0,4,1.8,4,4S118.6,138.1,116.4,138.1z"/>
		</g>
	</g>
	<g>
		<g>
			<path class="st1" d="M160.4,153.5c-3.6,0-7.1-2.2-8.4-5.9l-26.4-71.1c-0.8-2.2-0.7-4.7,0.3-6.9c1-2.2,2.8-3.8,5-4.7l12.8-4.8
				c4.6-1.7,9.8,0.6,11.6,5.3l26.4,71.1c1.7,4.6-0.6,9.8-5.3,11.6l-12.8,4.8C162.5,153.3,161.4,153.5,160.4,153.5z M146.7,67.4
				c-0.2,0-0.3,0-0.5,0.1l-12.8,4.8c-0.4,0.2-0.7,0.5-0.7,0.7s-0.2,0.6,0,1l26.4,71.1c0.3,0.7,1,1,1.7,0.8l12.8-4.8
				c0.7-0.3,1-1,0.8-1.7L148,68.2C147.8,67.7,147.3,67.4,146.7,67.4z"/>
		</g>
		<g>
			<path class="st1" d="M133,88.9c-1.6,0-3.2-1-3.7-2.6c-0.8-2.1,0.3-4.4,2.4-5.1l21.6-8c2.1-0.8,4.4,0.3,5.1,2.4
				c0.8,2.1-0.3,4.4-2.4,5.1l-21.6,8C133.9,88.8,133.4,88.9,133,88.9z"/>
		</g>
		<g>
			<path class="st1" d="M152.1,140.5c-1.6,0-3.2-1-3.7-2.6c-0.8-2.1,0.3-4.4,2.4-5.1l21.5-8c2.1-0.8,4.4,0.3,5.1,2.4
				c0.8,2.1-0.3,4.4-2.4,5.1l-21.5,8C153.1,140.4,152.6,140.5,152.1,140.5z"/>
		</g>
	</g>
</g>
</svg>
