<?xml version="1.0" encoding="utf-8"?>
<!-- Generator: Adobe Illustrator 19.1.0, SVG Export Plug-In . SVG Version: 6.00 Build 0)  -->
<svg version="1.1" id="Calque_1" xmlns="http://www.w3.org/2000/svg" xmlns:xlink="http://www.w3.org/1999/xlink" x="0px" y="0px"
	 viewBox="0 0 219.3 219.3" style="enable-background:new 0 0 219.3 219.3;" xml:space="preserve">
<style type="text/css">
	.st0{fill-rule:evenodd;clip-rule:evenodd;fill:#FFFFFF;}
	.st1{fill:#FFFFFF;}
	.st2{fill:#ED6754;}
	.st3{fill-rule:evenodd;clip-rule:evenodd;fill:#8CC63F;}
	.st4{fill-rule:evenodd;clip-rule:evenodd;fill:#595959;}
	.st5{fill:#8CC63F;}
	.st6{fill:#595959;}
	.st7{fill:#999999;}
	.st8{fill:#29ABE2;}
	.st9{fill:#FBB07F;}
	.st10{fill:#0071BC;}
	.st11{fill:#CBE021;}
	.st12{fill:#00A99D;}
	.st13{fill:#FF99AC;}
</style>
<g>
	<g>
		<circle class="st10" cx="109.7" cy="109.7" r="109.7"/>
	</g>
	<g>
		<path class="st1" d="M167.9,79.4h-115c-2.2,0-4-1.8-4-4s1.8-4,4-4h115c2.2,0,4,1.8,4,4S170.1,79.4,167.9,79.4z"/>
	</g>
	<g>
		<path class="st1" d="M126.4,67.5L126.4,67.5c-2.2,0-4.1-1.8-4.1-4.1v0c0-2.2,1.8-4.1,4.1-4.1h0c2.2,0,4.1,1.8,4.1,4.1v0
			C130.4,65.6,128.6,67.5,126.4,67.5z"/>
	</g>
	<g>
		<path class="st1" d="M138.8,67.5L138.8,67.5c-2.2,0-4.1-1.8-4.1-4.1v0c0-2.2,1.8-4.1,4.1-4.1h0c2.2,0,4.1,1.8,4.1,4.1v0
			C142.8,65.6,141,67.5,138.8,67.5z"/>
	</g>
	<g>
		<path class="st1" d="M151.2,67.5L151.2,67.5c-2.2,0-4.1-1.8-4.1-4.1v0c0-2.2,1.8-4.1,4.1-4.1h0c2.2,0,4.1,1.8,4.1,4.1v0
			C155.2,65.6,153.4,67.5,151.2,67.5z"/>
	</g>
	<g>
		<path class="st1" d="M159.2,172.3H60.6c-7.3,0-13.3-6-13.3-13.3V60.3c0-7.3,6-13.3,13.3-13.3h98.7c7.3,0,13.3,6,13.3,13.3V159
			C172.5,166.3,166.6,172.3,159.2,172.3z M60.6,55c-2.9,0-5.3,2.4-5.3,5.3V159c0,2.9,2.4,5.3,5.3,5.3h98.7c2.9,0,5.3-2.4,5.3-5.3
			V60.3c0-2.9-2.4-5.3-5.3-5.3H60.6z"/>
	</g>
	<g>
		<path class="st1" d="M109.1,156.1C90.3,156.1,75,140.8,75,122s15.3-34.1,34.1-34.1c18.8,0,34.1,15.3,34.1,34.1
			S127.9,156.1,109.1,156.1z M109.1,95.8C94.7,95.8,83,107.5,83,122s11.7,26.1,26.1,26.1c14.4,0,26.1-11.7,26.1-26.1
			S123.5,95.8,109.1,95.8z"/>
	</g>
	<g>
		<path class="st1" d="M125.6,122c-2.2,0-4.2-1-5.6-2.5c-1.4,1.5-3.4,2.5-5.6,2.5c-2.2,0-4.2-1-5.6-2.5c-1.4,1.5-3.4,2.5-5.6,2.5
			c-2.2,0-4.2-1-5.6-2.5c-1.4,1.5-3.4,2.5-5.6,2.5c-2.2,0-4.2-0.9-5.6-2.4c-0.1,0.8-0.1,1.6-0.1,2.4c0,12.7,10.3,23,23,23
			s23-10.3,23-23c0-1.1-0.1-2.2-0.2-3.2C130.4,120.7,128.2,122,125.6,122z"/>
	</g>
</g>
</svg>
