<?xml version="1.0" encoding="utf-8"?>
<!-- Generator: Adobe Illustrator 19.1.0, SVG Export Plug-In . SVG Version: 6.00 Build 0)  -->
<svg version="1.1" id="Calque_1" xmlns="http://www.w3.org/2000/svg" xmlns:xlink="http://www.w3.org/1999/xlink" x="0px" y="0px"
	 viewBox="0 0 226.1 226.1" style="enable-background:new 0 0 226.1 226.1;" xml:space="preserve">
<style type="text/css">
	.st0{fill-rule:evenodd;clip-rule:evenodd;fill:#FFFFFF;}
	.st1{fill:#FFFFFF;}
	.st2{fill:#ED6754;}
	.st3{fill-rule:evenodd;clip-rule:evenodd;fill:#8CC63F;}
	.st4{fill-rule:evenodd;clip-rule:evenodd;fill:#595959;}
	.st5{fill:#8CC63F;}
	.st6{fill:#595959;}
	.st7{fill:#999999;}
	.st8{fill:#29ABE2;}
	.st9{fill:#FBB07F;}
	.st10{fill:#0071BC;}
	.st11{fill:#CBE021;}
	.st12{fill:#00A99D;}
	.st13{fill:#FF99AC;}
	.st14{fill:none;stroke:#8CC63F;stroke-width:5;stroke-miterlimit:10;}
	.st15{fill:none;stroke:#CBE021;stroke-width:5;stroke-miterlimit:10;}
	.st16{fill:none;stroke:#FBB07F;stroke-width:5;stroke-miterlimit:10;}
	.st17{fill:none;stroke:#00A99D;stroke-width:5;stroke-miterlimit:10;}
	.st18{fill:none;stroke:#29ABE2;stroke-width:5;stroke-miterlimit:10;}
	.st19{fill:none;stroke:#0071BC;stroke-width:5;stroke-miterlimit:10;}
	.st20{fill:none;stroke:#ED6754;stroke-width:5;stroke-miterlimit:10;}
	.st21{fill:none;stroke:#FF99AC;stroke-width:5;stroke-miterlimit:10;}
	.st22{fill:none;stroke:#999999;stroke-width:5;stroke-miterlimit:10;}
</style>
<g>
	<g>
		<g>
			<path class="st9" d="M78.8,156.9H65.1c-5,0-9-4-9-9V63.1c0-5,4-9,9-9h13.7c5,0,9,4,9,9v84.8C87.8,152.8,83.7,156.9,78.8,156.9z
				 M65.1,61.7c-0.7,0-1.3,0.6-1.3,1.3v84.8c0,0.7,0.6,1.3,1.3,1.3h13.7c0.7,0,1.3-0.6,1.3-1.3V63.1c0-0.7-0.6-1.3-1.3-1.3H65.1z"/>
		</g>
		<g>
			<path class="st9" d="M83.2,77.5h-23c-2.2,0-4-1.8-4-4c0-2.2,1.8-4,4-4h23c2.2,0,4,1.8,4,4C87.2,75.7,85.4,77.5,83.2,77.5z"/>
		</g>
		<g>
			<path class="st9" d="M83.1,141.5H60.2c-2.2,0-4-1.8-4-4c0-2.2,1.8-4,4-4h22.9c2.2,0,4,1.8,4,4C87.1,139.7,85.3,141.5,83.1,141.5z
				"/>
		</g>
	</g>
	<g>
		<g>
			<path class="st9" d="M115.4,156.9h-13.7c-5,0-9-4-9-9V72.1c0-5,4-9,9-9h13.7c5,0,9,4,9,9v75.8
				C124.4,152.8,120.4,156.9,115.4,156.9z M101.8,70.7c-0.7,0-1.3,0.6-1.3,1.3v75.8c0,0.7,0.6,1.3,1.3,1.3h13.7
				c0.7,0,1.3-0.6,1.3-1.3V72.1c0-0.7-0.6-1.3-1.3-1.3H101.8z"/>
		</g>
		<g>
			<path class="st9" d="M119.9,86.5h-23c-2.2,0-4-1.8-4-4s1.8-4,4-4h23c2.2,0,4,1.8,4,4S122.1,86.5,119.9,86.5z"/>
		</g>
		<g>
			<path class="st9" d="M119.8,141.5H96.9c-2.2,0-4-1.8-4-4c0-2.2,1.8-4,4-4h22.9c2.2,0,4,1.8,4,4
				C123.8,139.7,122,141.5,119.8,141.5z"/>
		</g>
	</g>
	<g>
		<g>
			<path class="st9" d="M163.8,156.9c-3.6,0-7.1-2.2-8.4-5.9L128.9,80c-1.7-4.6,0.6-9.8,5.3-11.6l12.8-4.8c4.6-1.7,9.8,0.6,11.6,5.3
				L185,140c1.7,4.6-0.6,9.8-5.3,11.6l-12.8,4.8C165.9,156.7,164.8,156.9,163.8,156.9z M150.1,70.7c-0.2,0-0.3,0-0.5,0.1l-12.8,4.8
				c-0.7,0.3-1,1-0.8,1.7l26.4,71.1c0.2,0.4,0.5,0.7,0.7,0.7c0.2,0.1,0.6,0.2,1,0l12.8-4.8l1.3,3.6l-1.3-3.6c0.7-0.3,1-1,0.8-1.7
				l-26.4-71.1C151.2,71.1,150.6,70.7,150.1,70.7z"/>
		</g>
		<g>
			<path class="st9" d="M136.3,92.3c-1.6,0-3.2-1-3.8-2.6c-0.8-2.1,0.3-4.4,2.4-5.1l21.6-8c2.1-0.8,4.4,0.3,5.1,2.4
				c0.8,2.1-0.3,4.4-2.4,5.1l-21.6,8C137.3,92.2,136.8,92.3,136.3,92.3z"/>
		</g>
		<g>
			<path class="st9" d="M155.5,143.8c-1.6,0-3.2-1-3.7-2.6c-0.8-2.1,0.3-4.4,2.4-5.1l21.5-8c2.1-0.8,4.4,0.3,5.1,2.4
				s-0.3,4.4-2.4,5.1l-21.5,8C156.5,143.7,156,143.8,155.5,143.8z"/>
		</g>
	</g>
</g>
<g>
	<circle class="st16" cx="113.2" cy="112.8" r="109.7"/>
</g>
</svg>
