<?xml version="1.0" encoding="utf-8"?>
<!-- Generator: Adobe Illustrator 19.1.0, SVG Export Plug-In . SVG Version: 6.00 Build 0)  -->
<svg version="1.1" id="Calque_1" xmlns="http://www.w3.org/2000/svg" xmlns:xlink="http://www.w3.org/1999/xlink" x="0px" y="0px"
	 viewBox="0 0 156.5 156.5" style="enable-background:new 0 0 156.5 156.5;" xml:space="preserve">
<style type="text/css">
	.st0{fill-rule:evenodd;clip-rule:evenodd;fill:#FFFFFF;}
	.st1{fill:#FFFFFF;}
	.st2{fill:#ED6754;}
	.st3{fill-rule:evenodd;clip-rule:evenodd;fill:#8CC63F;}
	.st4{fill-rule:evenodd;clip-rule:evenodd;fill:#595959;}
	.st5{fill:#8CC63F;}
	.st6{fill:#595959;}
	.st7{fill:#999999;}
	.st8{fill:#29ABE2;}
	.st9{fill:#FBB07F;}
	.st10{fill:#0071BC;}
	.st11{fill:#CBE021;}
	.st12{fill:#00A99D;}
	.st13{fill:#FF99AC;}
	.st14{fill:none;stroke:#8CC63F;stroke-width:5;stroke-miterlimit:10;}
	.st15{fill:none;stroke:#CBE021;stroke-width:5;stroke-miterlimit:10;}
	.st16{fill:none;stroke:#FBB07F;stroke-width:5;stroke-miterlimit:10;}
	.st17{fill:none;stroke:#00A99D;stroke-width:5;stroke-miterlimit:10;}
	.st18{fill:none;stroke:#29ABE2;stroke-width:5;stroke-miterlimit:10;}
	.st19{fill:none;stroke:#0071BC;stroke-width:5;stroke-miterlimit:10;}
	.st20{fill:none;stroke:#ED6754;stroke-width:5;stroke-miterlimit:10;}
	.st21{fill:none;stroke:#FF99AC;stroke-width:5;stroke-miterlimit:10;}
	.st22{fill:none;stroke:#999999;stroke-width:5;stroke-miterlimit:10;}
</style>
<g id="location_-_pin_map_9_">
	<g>
		<path class="st0" d="M50.9,106.8l6.6-22h-4.4l-8.8,26.4h26.4l-4.4-4.4H50.9z M79.5,54c-6.1,0-11,4.9-11,11s4.9,11,11,11
			c6.1,0,11-4.9,11-11S85.6,54,79.5,54z M79.5,71.6c-3.6,0-6.6-3-6.6-6.6c0-3.6,3-6.6,6.6-6.6c3.6,0,6.6,3,6.6,6.6
			C86.1,68.7,83.2,71.6,79.5,71.6z M79.5,40.8c-14.6,0-26.4,11.8-26.4,26.4c0,14.6,26.4,44,26.4,44s26.4-29.4,26.4-44
			C105.9,52.7,94.1,40.8,79.5,40.8z M57.5,67.5c0-12.3,9.8-22.3,22-22.3c12.1,0,22,10,22,22.3c0,12.3-22,37.1-22,37.1
			S57.5,79.8,57.5,67.5z M105.9,84.8h-4.4l6.6,22H92.7l-4.4,4.4h26.4L105.9,84.8z"/>
	</g>
</g>
<g>
	<path class="st1" d="M78.2,156.5C35.1,156.5,0,121.4,0,78.2S35.1,0,78.2,0s78.2,35.1,78.2,78.2S121.4,156.5,78.2,156.5z M78.2,5
		C37.9,5,5,37.9,5,78.2c0,40.4,32.9,73.2,73.2,73.2s73.2-32.9,73.2-73.2C151.5,37.9,118.6,5,78.2,5z"/>
</g>
</svg>
