<?xml version="1.0" encoding="utf-8"?>
<!-- Generator: Adobe Illustrator 19.1.0, SVG Export Plug-In . SVG Version: 6.00 Build 0)  -->
<svg version="1.1" id="Calque_1" xmlns="http://www.w3.org/2000/svg" xmlns:xlink="http://www.w3.org/1999/xlink" x="0px" y="0px"
	 viewBox="0 0 226.1 226.1" style="enable-background:new 0 0 226.1 226.1;" xml:space="preserve">
<style type="text/css">
	.st0{fill-rule:evenodd;clip-rule:evenodd;fill:#FFFFFF;}
	.st1{fill:#FFFFFF;}
	.st2{fill:#ED6754;}
	.st3{fill-rule:evenodd;clip-rule:evenodd;fill:#8CC63F;}
	.st4{fill-rule:evenodd;clip-rule:evenodd;fill:#595959;}
	.st5{fill:#8CC63F;}
	.st6{fill:#595959;}
	.st7{fill:#999999;}
	.st8{fill:#29ABE2;}
	.st9{fill:#FBB07F;}
	.st10{fill:#0071BC;}
	.st11{fill:#CBE021;}
	.st12{fill:#00A99D;}
	.st13{fill:#FF99AC;}
	.st14{fill:none;stroke:#8CC63F;stroke-width:5;stroke-miterlimit:10;}
	.st15{fill:none;stroke:#CBE021;stroke-width:5;stroke-miterlimit:10;}
	.st16{fill:none;stroke:#FBB07F;stroke-width:5;stroke-miterlimit:10;}
	.st17{fill:none;stroke:#00A99D;stroke-width:5;stroke-miterlimit:10;}
	.st18{fill:none;stroke:#29ABE2;stroke-width:5;stroke-miterlimit:10;}
	.st19{fill:none;stroke:#0071BC;stroke-width:5;stroke-miterlimit:10;}
	.st20{fill:none;stroke:#ED6754;stroke-width:5;stroke-miterlimit:10;}
	.st21{fill:none;stroke:#FF99AC;stroke-width:5;stroke-miterlimit:10;}
	.st22{fill:none;stroke:#999999;stroke-width:5;stroke-miterlimit:10;}
</style>
<g>
	<g>
		<path class="st10" d="M171.3,82.8h-115c-2.2,0-4-1.8-4-4c0-2.2,1.8-4,4-4h115c2.2,0,4,1.8,4,4C175.3,81,173.5,82.8,171.3,82.8z"/>
	</g>
	<g>
		<path class="st10" d="M129.7,70.8L129.7,70.8c-2.2,0-4.1-1.8-4.1-4.1v0c0-2.2,1.8-4.1,4.1-4.1l0,0c2.2,0,4.1,1.8,4.1,4.1v0
			C133.8,69,131.9,70.8,129.7,70.8z"/>
	</g>
	<g>
		<path class="st10" d="M142.1,70.8L142.1,70.8c-2.2,0-4.1-1.8-4.1-4.1v0c0-2.2,1.8-4.1,4.1-4.1l0,0c2.2,0,4.1,1.8,4.1,4.1v0
			C146.2,69,144.4,70.8,142.1,70.8z"/>
	</g>
	<g>
		<path class="st10" d="M154.5,70.8L154.5,70.8c-2.2,0-4.1-1.8-4.1-4.1v0c0-2.2,1.8-4.1,4.1-4.1l0,0c2.2,0,4.1,1.8,4.1,4.1v0
			C158.6,69,156.8,70.8,154.5,70.8z"/>
	</g>
	<g>
		<path class="st10" d="M162.6,175.7H63.9c-7.3,0-13.3-6-13.3-13.3V63.7c0-7.3,6-13.3,13.3-13.3h98.7c7.3,0,13.3,6,13.3,13.3v98.7
			C175.9,169.7,169.9,175.7,162.6,175.7z M63.9,58.4c-2.9,0-5.3,2.4-5.3,5.3v98.7c0,2.9,2.4,5.3,5.3,5.3h98.7c2.9,0,5.3-2.4,5.3-5.3
			V63.7c0-2.9-2.4-5.3-5.3-5.3H63.9z"/>
	</g>
	<g>
		<path class="st10" d="M112.5,159.5c-18.8,0-34.1-15.3-34.1-34.1s15.3-34.1,34.1-34.1s34.1,15.3,34.1,34.1S131.3,159.5,112.5,159.5
			z M112.5,99.2c-14.4,0-26.1,11.7-26.1,26.1s11.7,26.1,26.1,26.1s26.1-11.7,26.1-26.1S126.9,99.2,112.5,99.2z"/>
	</g>
	<g>
		<path class="st10" d="M129,125.3c-2.2,0-4.2-1-5.6-2.5c-1.4,1.5-3.4,2.5-5.6,2.5c-2.2,0-4.2-1-5.6-2.5c-1.4,1.5-3.4,2.5-5.6,2.5
			c-2.2,0-4.2-1-5.6-2.5c-1.4,1.5-3.4,2.5-5.6,2.5c-2.2,0-4.2-0.9-5.6-2.4c-0.1,0.8-0.1,1.6-0.1,2.4c0,12.7,10.3,23,23,23
			s23-10.3,23-23c0-1.1-0.1-2.2-0.2-3.2C133.8,124,131.5,125.3,129,125.3z"/>
	</g>
</g>
<g>
	<circle class="st19" cx="113.2" cy="112.8" r="109.7"/>
</g>
</svg>
