<?xml version="1.0" encoding="utf-8"?>
<!-- Generator: Adobe Illustrator 19.1.0, SVG Export Plug-In . SVG Version: 6.00 Build 0)  -->
<svg version="1.1" id="Calque_1" xmlns="http://www.w3.org/2000/svg" xmlns:xlink="http://www.w3.org/1999/xlink" x="0px" y="0px"
	 viewBox="0 0 219.3 219.3" style="enable-background:new 0 0 219.3 219.3;" xml:space="preserve">
<style type="text/css">
	.st0{fill-rule:evenodd;clip-rule:evenodd;fill:#FFFFFF;}
	.st1{fill:#FFFFFF;}
	.st2{fill:#ED6754;}
	.st3{fill-rule:evenodd;clip-rule:evenodd;fill:#8CC63F;}
	.st4{fill-rule:evenodd;clip-rule:evenodd;fill:#595959;}
	.st5{fill:#8CC63F;}
	.st6{fill:#595959;}
	.st7{fill:#999999;}
	.st8{fill:#29ABE2;}
	.st9{fill:#FBB07F;}
	.st10{fill:#0071BC;}
	.st11{fill:#CBE021;}
	.st12{fill:#00A99D;}
	.st13{fill:#FF99AC;}
	.st14{fill:none;stroke:#8CC63F;stroke-width:5;stroke-miterlimit:10;}
	.st15{fill:none;stroke:#CBE021;stroke-width:5;stroke-miterlimit:10;}
	.st16{fill:none;stroke:#FBB07F;stroke-width:5;stroke-miterlimit:10;}
	.st17{fill:none;stroke:#00A99D;stroke-width:5;stroke-miterlimit:10;}
	.st18{fill:none;stroke:#29ABE2;stroke-width:5;stroke-miterlimit:10;}
	.st19{fill:none;stroke:#0071BC;stroke-width:5;stroke-miterlimit:10;}
	.st20{fill:none;stroke:#ED6754;stroke-width:5;stroke-miterlimit:10;}
	.st21{fill:none;stroke:#FF99AC;stroke-width:5;stroke-miterlimit:10;}
	.st22{fill:none;stroke:#999999;stroke-width:5;stroke-miterlimit:10;}
</style>
<g>
	<g>
		<circle class="st7" cx="109.7" cy="109.7" r="109.7"/>
	</g>
	<g>
		<g>
			<path class="st1" d="M109.2,178.4c-0.7,0-1.4-0.2-2-0.5c-1.2-0.7-2-2-2-3.5v-66.3c0-1.4,0.8-2.8,2-3.5l51-28.6
				c1.9-1.1,4.4-0.4,5.4,1.5c1.1,1.9,0.4,4.4-1.5,5.4l-49,27.5v57.1l43-24.1v-32.9c0-2.2,1.8-4,4-4s4,1.8,4,4v35.2
				c0,1.4-0.8,2.8-2,3.5l-51,28.6C110.6,178.3,109.9,178.4,109.2,178.4z"/>
		</g>
		<g>
			<path class="st1" d="M109.2,178.4c-0.7,0-1.3-0.2-1.9-0.5l-52-28.6c-1.3-0.7-2.1-2-2.1-3.5v-34.7c0-2.2,1.8-4,4-4s4,1.8,4,4v32.3
				l44,24.2v-57.2L55.3,83c-1.9-1.1-2.6-3.5-1.6-5.4s3.5-2.6,5.4-1.6l52,28.6c1.3,0.7,2.1,2,2.1,3.5v66.3c0,1.4-0.7,2.7-2,3.4
				C110.6,178.2,109.9,178.4,109.2,178.4z"/>
		</g>
		<g>
			<path class="st1" d="M57.2,83.6c-1.4,0-2.8-0.8-3.5-2.1c-1-1.9-0.3-4.4,1.6-5.4l52-28.1c1.9-1,4.4-0.3,5.4,1.6
				c1,1.9,0.3,4.4-1.6,5.4l-52,28.1C58.5,83.4,57.9,83.6,57.2,83.6z"/>
		</g>
		<g>
			<path class="st1" d="M109.2,119.1c-2.2,0-4-1.8-4-4V51.5c0-2.2,1.8-4,4-4s4,1.8,4,4v63.6C113.2,117.3,111.4,119.1,109.2,119.1z"
				/>
		</g>
		<g>
			<g>
				<path class="st1" d="M160.2,83.6c-0.7,0-1.3-0.2-1.9-0.5l-51-28.1c-1.6-0.9-2.4-2.7-1.9-4.5c0.5-1.8,2-3,3.9-3h30.7
					c2.2,0,4,1.8,4,4s-1.8,4-4,4h-15.1l37.4,20.6c1.9,1.1,2.6,3.5,1.6,5.4C163,82.8,161.6,83.6,160.2,83.6z"/>
			</g>
			<g>
				<path class="st1" d="M190.8,83.6c-0.7,0-1.3-0.2-1.9-0.5l-51-28.1c-1.9-1.1-2.6-3.5-1.6-5.4c1.1-1.9,3.5-2.6,5.4-1.6l51,28.1
					c1.9,1.1,2.6,3.5,1.6,5.4C193.6,82.9,192.2,83.6,190.8,83.6z"/>
			</g>
			<g>
				<path class="st1" d="M190.9,83.6h-30.7c-2.2,0-4-1.8-4-4s1.8-4,4-4h30.7c2.2,0,4,1.8,4,4S193.1,83.6,190.9,83.6z"/>
			</g>
		</g>
		<g>
			<g>
				<path class="st1" d="M109.7,55.5H79c-2.2,0-4-1.8-4-4s1.8-4,4-4h30.7c2.2,0,4,1.8,4,4S111.9,55.5,109.7,55.5z"/>
			</g>
			<g>
				<path class="st1" d="M28.1,83.6c-1.4,0-2.8-0.7-3.5-2.1c-1.1-1.9-0.4-4.4,1.6-5.4l51-28.1c1.9-1.1,4.4-0.4,5.4,1.6
					c1.1,1.9,0.4,4.4-1.6,5.4L30,83.1C29.4,83.4,28.7,83.6,28.1,83.6z"/>
			</g>
			<g>
				<path class="st1" d="M57.2,83.6H28.1c-2.2,0-4-1.8-4-4s1.8-4,4-4h29.2c2.2,0,4,1.8,4,4S59.4,83.6,57.2,83.6z"/>
			</g>
		</g>
		<g>
			<path class="st1" d="M88.2,131c-0.7,0-1.3-0.2-1.9-0.5l-52-28.4c-1.1-0.6-1.9-1.8-2.1-3c-0.2-1.3,0.3-2.6,1.3-3.4l21-19.1
				c1.6-1.5,4.2-1.4,5.7,0.3c1.5,1.6,1.4,4.2-0.3,5.7L43.1,97.8l44.6,24.3l18.9-17.2c1.6-1.5,4.2-1.4,5.7,0.3
				c1.5,1.6,1.4,4.2-0.3,5.7l-21,19.1C90.2,130.6,89.2,131,88.2,131z"/>
		</g>
		<g>
			<path class="st1" d="M130.2,131c-1,0-1.9-0.4-2.7-1l-21-19.1c-1.6-1.5-1.8-4-0.3-5.7c1.5-1.6,4-1.8,5.7-0.3l18.9,17.2l44.6-24.3
				l-16.8-15.3c-1.6-1.5-1.8-4-0.3-5.7c1.5-1.6,4-1.8,5.7-0.3l21,19.1c1,0.9,1.4,2.2,1.3,3.4c-0.2,1.3-0.9,2.4-2.1,3l-52,28.4
				C131.5,130.8,130.9,131,130.2,131z"/>
		</g>
	</g>
</g>
</svg>
