<?xml version="1.0" encoding="utf-8"?>
<!-- Generator: Adobe Illustrator 19.1.0, SVG Export Plug-In . SVG Version: 6.00 Build 0)  -->
<svg version="1.1" id="Calque_1" xmlns="http://www.w3.org/2000/svg" xmlns:xlink="http://www.w3.org/1999/xlink" x="0px" y="0px"
	 viewBox="0 0 226.1 226.1" style="enable-background:new 0 0 226.1 226.1;" xml:space="preserve">
<style type="text/css">
	.st0{fill-rule:evenodd;clip-rule:evenodd;fill:#FFFFFF;}
	.st1{fill:#FFFFFF;}
	.st2{fill:#ED6754;}
	.st3{fill-rule:evenodd;clip-rule:evenodd;fill:#8CC63F;}
	.st4{fill-rule:evenodd;clip-rule:evenodd;fill:#595959;}
	.st5{fill:#8CC63F;}
	.st6{fill:#595959;}
	.st7{fill:#999999;}
	.st8{fill:#29ABE2;}
	.st9{fill:#FBB07F;}
	.st10{fill:#0071BC;}
	.st11{fill:#CBE021;}
	.st12{fill:#00A99D;}
	.st13{fill:#FF99AC;}
</style>
<g>
	<g>
		<g>
			<path class="st11" d="M169.6,161h-55.1c-8.2,0-14.8-6.6-14.8-14.8V83c0-8.2,6.6-14.8,14.8-14.8h55.1c8.2,0,14.8,6.6,14.8,14.8
				v63.2C184.4,154.4,177.8,161,169.6,161z M114.5,76.2c-3.8,0-6.8,3.1-6.8,6.8v63.2c0,3.8,3.1,6.8,6.8,6.8h55.1
				c3.8,0,6.8-3.1,6.8-6.8V83c0-3.8-3.1-6.8-6.8-6.8H114.5z"/>
		</g>
		<g>
			<path class="st11" d="M103.7,150.9c-0.8,0-1.6-0.2-2.3-0.7c-1.8-1.3-2.2-3.8-1-5.6l15.2-21.7c0.7-1,1.8-1.6,3.1-1.7
				c1.2,0,2.4,0.5,3.2,1.4l9.7,11.3l19.4-25.8c0.7-1,1.9-1.6,3.2-1.6c0,0,0,0,0,0c1.2,0,2.4,0.6,3.2,1.6l26.1,33.7
				c1.4,1.7,1,4.3-0.7,5.6c-1.7,1.4-4.3,1-5.6-0.7l-22.9-29.6l-19.2,25.6c-0.7,1-1.9,1.6-3.1,1.6c-1.2,0-2.4-0.5-3.2-1.4l-9.6-11.2
				L107,149.2C106.2,150.3,105,150.9,103.7,150.9z"/>
		</g>
		<g>
			<polygon class="st1" points="123.9,114.4 50.5,114.4 60.4,57.4 114,57.4 			"/>
			<path class="st11" d="M123.9,118.4H50.5c-1.2,0-2.3-0.5-3.1-1.4c-0.8-0.9-1.1-2.1-0.9-3.3l9.9-57c0.3-1.9,2-3.3,3.9-3.3H114
				c1.9,0,3.6,1.4,3.9,3.3l9.9,57c0.2,1.2-0.1,2.4-0.9,3.3C126.2,117.9,125.1,118.4,123.9,118.4z M55.2,110.4h63.9l-8.5-49H63.8
				L55.2,110.4z"/>
		</g>
		<g>
			<path class="st11" d="M87.2,174c-2.2,0-4-1.8-4-4V115c0-2.2,1.8-4,4-4s4,1.8,4,4V170C91.2,172.2,89.4,174,87.2,174z"/>
		</g>
		<g>
			<path class="st11" d="M102.5,176.7H71.9c-2.2,0-4-1.8-4-4c0-2.2,1.8-4,4-4h30.6c2.2,0,4,1.8,4,4
				C106.5,174.9,104.7,176.7,102.5,176.7z"/>
		</g>
		<g>
			<path class="st11" d="M69.3,135.3c-2.2,0-4-1.8-4-4V115c0-2.2,1.8-4,4-4s4,1.8,4,4v16.2C73.3,133.5,71.5,135.3,69.3,135.3z"/>
		</g>
		<g>
			<path class="st11" d="M69.3,149.2c-5.5,0-10-4.5-10-10c0-5.5,4.5-10,10-10s10,4.5,10,10C79.3,144.7,74.8,149.2,69.3,149.2z
				 M69.3,137.3c-1.1,0-2,0.9-2,2s0.9,2,2,2s2-0.9,2-2S70.4,137.3,69.3,137.3z"/>
		</g>
	</g>
</g>
</svg>
