<?xml version="1.0" encoding="utf-8"?>
<!-- Generator: Adobe Illustrator 19.1.0, SVG Export Plug-In . SVG Version: 6.00 Build 0)  -->
<svg version="1.1" id="Calque_1" xmlns="http://www.w3.org/2000/svg" xmlns:xlink="http://www.w3.org/1999/xlink" x="0px" y="0px"
	 viewBox="0 0 282.2 282.2" style="enable-background:new 0 0 282.2 282.2;" xml:space="preserve">
<style type="text/css">
	.st0{fill-rule:evenodd;clip-rule:evenodd;fill:#FFFFFF;}
	.st1{fill:#FFFFFF;}
	.st2{fill:#ED6754;}
	.st3{fill-rule:evenodd;clip-rule:evenodd;fill:#8CC63F;}
	.st4{fill-rule:evenodd;clip-rule:evenodd;fill:#595959;}
	.st5{fill:#8CC63F;}
	.st6{fill:#595959;}
	.st7{fill:#999999;}
	.st8{fill:#29ABE2;}
	.st9{fill:#FBB07F;}
	.st10{fill:#0071BC;}
	.st11{fill:#CBE021;}
	.st12{fill:#00A99D;}
	.st13{fill:#FF99AC;}
</style>
<path class="st1" d="M141.1,0C63.3,0,0,63.3,0,141.1s63.3,141.1,141.1,141.1s141.1-63.3,141.1-141.1S218.9,0,141.1,0z"/>
<g>
	<path class="st2" d="M94.9,90.4c0.8,2.2,2.9,3.8,5.3,3.8c0.6,0,1.3-0.1,1.9-0.3c1.4-0.5,2.6-1.5,3.2-2.9c0.6-1.4,0.7-2.9,0.2-4.3
		l-7.1-19.9c-0.5-1.4-1.5-2.6-2.9-3.2c-1.4-0.6-2.9-0.7-4.3-0.2c-2.9,1-4.5,4.3-3.4,7.2L94.9,90.4z"/>
	<path class="st2" d="M141,87L141,87c3.1,0,5.6-2.5,5.6-5.6l0-21.2c0-3.1-2.5-5.6-5.6-5.6c-3.1,0-5.6,2.5-5.6,5.6l0,21.2
		C135.4,84.5,137.9,87,141,87z"/>
	<path class="st2" d="M180,93.9L180,93.9c0.6,0,1.3,0.3,1.9,0.3c2.4,0,4.5-1.5,5.3-3.8l7.1-19.9c1-2.9-0.5-6.2-3.4-7.2
		c-2.9-1-6.2,0.5-7.2,3.4l-7.1,19.9C175.5,89.6,177,92.9,180,93.9z"/>
	<path class="st2" d="M234.7,89c-1.2-1-2.6-1.4-4.1-1.2c-1.5,0.2-2.9,0.9-3.8,2.1l-13.3,16.3c-1,1.2-1.4,2.6-1.2,4.1
		c0.2,1.5,0.9,2.9,2.1,3.8c1,0.8,2.3,1.3,3.6,1.3c1.7,0,3.3-0.8,4.4-2.1l13.3-16.3C237.5,94.5,237.1,91,234.7,89z"/>
	<path class="st2" d="M64.2,115.3c1.3,0,2.5-0.4,3.6-1.3c1.2-1,1.9-2.3,2.1-3.8c0.2-1.5-0.3-3-1.2-4.1L55.3,89.7
		c-0.9-1.2-2.3-1.9-3.8-2.1c-1.5-0.2-3,0.3-4.2,1.2c-2.4,2-2.8,5.5-0.8,7.9l13.3,16.3C60.9,114.5,62.5,115.3,64.2,115.3z"/>
	<path class="st2" d="M140.8,101c-50.9,0-80,33.6-90.2,48.1c-3.8,5.4-3.8,12.7,0,18.1c10.2,14.5,39.4,48.1,90.2,48.1
		c51.3,0,80.2-33.6,90.3-48.1c3.8-5.5,3.8-12.5,0-18C220.9,134.6,191.8,101,140.8,101z M221.8,160.6c-9.1,13-35.1,43.3-81,43.3
		c-45.5,0-71.8-30.3-81-43.3c-1.1-1.5-1.1-3.5,0-5.1c9.2-13,35.4-43.3,81-43.3c45.8,0,71.9,30.3,81,43.3
		C222.8,157.1,222.8,159.1,221.8,160.6z"/>
	<path class="st2" d="M140.9,126.7c-17.3,0-31.4,14.1-31.4,31.4s14.1,31.4,31.4,31.4c17.3,0,31.4-14.1,31.4-31.4
		S158.2,126.7,140.9,126.7z M161,158.1c0,11.1-9,20.1-20.1,20.1c-11.1,0-20.1-9-20.1-20.1c0-11.1,9-20.1,20.1-20.1
		C152,138,161,147,161,158.1z"/>
</g>
</svg>
