<?xml version="1.0" encoding="utf-8"?>
<!-- Generator: Adobe Illustrator 19.1.0, SVG Export Plug-In . SVG Version: 6.00 Build 0)  -->
<svg version="1.1" id="Calque_1" xmlns="http://www.w3.org/2000/svg" xmlns:xlink="http://www.w3.org/1999/xlink" x="0px" y="0px"
	 viewBox="0 0 219.3 219.3" style="enable-background:new 0 0 219.3 219.3;" xml:space="preserve">
<style type="text/css">
	.st0{fill-rule:evenodd;clip-rule:evenodd;fill:#FFFFFF;}
	.st1{fill:#FFFFFF;}
	.st2{fill:#ED6754;}
	.st3{fill-rule:evenodd;clip-rule:evenodd;fill:#8CC63F;}
	.st4{fill-rule:evenodd;clip-rule:evenodd;fill:#595959;}
	.st5{fill:#8CC63F;}
	.st6{fill:#595959;}
	.st7{fill:#999999;}
	.st8{fill:#29ABE2;}
	.st9{fill:#FBB07F;}
	.st10{fill:#0071BC;}
	.st11{fill:#CBE021;}
	.st12{fill:#00A99D;}
	.st13{fill:#FF99AC;}
	.st14{fill:none;stroke:#8CC63F;stroke-width:5;stroke-miterlimit:10;}
	.st15{fill:none;stroke:#CBE021;stroke-width:5;stroke-miterlimit:10;}
	.st16{fill:none;stroke:#FBB07F;stroke-width:5;stroke-miterlimit:10;}
	.st17{fill:none;stroke:#00A99D;stroke-width:5;stroke-miterlimit:10;}
	.st18{fill:none;stroke:#29ABE2;stroke-width:5;stroke-miterlimit:10;}
	.st19{fill:none;stroke:#0071BC;stroke-width:5;stroke-miterlimit:10;}
	.st20{fill:none;stroke:#ED6754;stroke-width:5;stroke-miterlimit:10;}
	.st21{fill:none;stroke:#FF99AC;stroke-width:5;stroke-miterlimit:10;}
	.st22{fill:none;stroke:#999999;stroke-width:5;stroke-miterlimit:10;}
</style>
<g>
	<g>
		<circle class="st13" cx="109.7" cy="109.7" r="109.7"/>
	</g>
	<g>
		<g>
			<path class="st13" d="M169.8,111.8L136.2,95h-26.6H83.1l-33.5,16.8c-4.5,2.3-6.4,7.8-4.1,12.4l0,0c2.3,4.5,7.9,6.4,12.4,4.1
				l20.6-8.4l-1.7,16.8l-1.1,13.8h34h34l-1.1-13.8l-1.7-16.7l20.6,8.4c4.5,2.3,10.1,0.4,12.4-4.1l0,0
				C176.2,119.6,174.3,114.1,169.8,111.8z"/>
			<path class="st1" d="M143.7,154.5H75.6c-1.1,0-2.2-0.5-2.9-1.3c-0.8-0.8-1.1-1.9-1-3l1.1-13.8l1.1-10.3l-14.3,5.8
				c-3.1,1.5-6.6,1.7-9.9,0.7c-3.4-1.1-6.1-3.5-7.7-6.6c-1.6-3.2-1.8-6.7-0.7-10.1c1.1-3.4,3.5-6.1,6.6-7.7l33.5-16.8
				c0.6-0.3,1.2-0.4,1.8-0.4h53.1c0.6,0,1.2,0.1,1.8,0.4l33.5,16.8c0,0,0,0,0,0c6.5,3.3,9.2,11.2,5.9,17.8c-3.2,6.5-11.1,9.1-17.6,6
				l-14.3-5.8l1,10.1l1.1,13.9c0.1,1.1-0.3,2.2-1,3C145.9,154,144.8,154.5,143.7,154.5z M79.9,146.5h59.4l-0.8-9.5l-1.7-16.7
				c-0.1-1.4,0.5-2.8,1.6-3.6c1.1-0.8,2.6-1,3.9-0.5l20.6,8.4c0.1,0,0.2,0.1,0.3,0.1c2.6,1.3,5.7,0.3,7-2.3s0.2-5.7-2.3-7L135.3,99
				H84l-32.7,16.3c-1.2,0.6-2.2,1.7-2.6,3c-0.4,1.3-0.3,2.7,0.3,4c0.6,1.2,1.7,2.2,3,2.6c1.3,0.4,2.8,0.3,4-0.3
				c0.1,0,0.2-0.1,0.3-0.1l20.6-8.4c1.3-0.5,2.8-0.3,3.9,0.5c1.1,0.8,1.7,2.2,1.6,3.6l-1.7,16.8L79.9,146.5z"/>
		</g>
		<g>
			<ellipse class="st13" cx="109.7" cy="147.2" rx="20.5" ry="24.5"/>
			<path class="st1" d="M109.7,175.7c-13.5,0-24.5-12.8-24.5-28.5c0-15.7,11-28.5,24.5-28.5c13.5,0,24.5,12.8,24.5,28.5
				C134.2,162.9,123.2,175.7,109.7,175.7z M109.7,126.7c-9.1,0-16.5,9.2-16.5,20.5c0,11.3,7.4,20.5,16.5,20.5s16.5-9.2,16.5-20.5
				C126.2,135.9,118.8,126.7,109.7,126.7z"/>
		</g>
		<g>
			<g>
				
					<ellipse transform="matrix(0.9979 -6.401407e-02 6.401407e-02 0.9979 -9.8451 5.5824)" class="st13" cx="82.2" cy="156.4" rx="17.6" ry="20.9"/>
				<path class="st1" d="M82.6,181.3c-11.4,0-21.1-10.3-21.9-23.5c-0.9-13.7,8.1-25.4,19.9-26.2c11.9-0.7,22.2,9.8,23.1,23.4l0,0
					c0.9,13.7-8.1,25.4-19.9,26.2C83.4,181.3,83,181.3,82.6,181.3z M81.8,139.6c-0.2,0-0.5,0-0.7,0c-7.5,0.5-13.1,8.4-12.5,17.7
					c0.6,9.3,7.1,16.5,14.6,16c7.5-0.5,13.1-8.4,12.5-17.7l0,0C95.2,146.6,89,139.6,81.8,139.6z"/>
			</g>
			<g>
				
					<ellipse transform="matrix(-0.9979 -6.401407e-02 6.401407e-02 -0.9979 263.9243 321.3135)" class="st13" cx="137.1" cy="156.4" rx="17.6" ry="20.9"/>
				<path class="st1" d="M136.7,181.3c-0.4,0-0.8,0-1.2,0c-5.9-0.4-11.2-3.4-15-8.5c-3.6-4.9-5.4-11.2-5-17.7
					c0.9-13.7,11.2-24.2,23.1-23.4c5.9,0.4,11.2,3.4,15,8.5c3.6,4.9,5.4,11.2,5,17.7C157.8,171,148.1,181.3,136.7,181.3z
					 M137.5,139.6c-7.2,0-13.3,7-13.9,16c-0.3,4.6,0.9,9,3.4,12.4c2.3,3.2,5.6,5.1,9,5.3c7.5,0.5,14-6.7,14.6-16
					c0.3-4.6-0.9-9-3.4-12.4c-2.3-3.2-5.6-5.1-9-5.3C138,139.6,137.7,139.6,137.5,139.6z"/>
			</g>
		</g>
		<g>
			<circle class="st13" cx="109.7" cy="78.5" r="31.2"/>
			<path class="st1" d="M109.7,113.8c-19.4,0-35.2-15.8-35.2-35.2s15.8-35.2,35.2-35.2s35.2,15.8,35.2,35.2S129.1,113.8,109.7,113.8
				z M109.7,51.3c-15,0-27.2,12.2-27.2,27.2s12.2,27.2,27.2,27.2s27.2-12.2,27.2-27.2S124.7,51.3,109.7,51.3z"/>
		</g>
		<g>
			<circle class="st13" cx="109.7" cy="92.8" r="17"/>
			<path class="st1" d="M109.7,113.8c-11.6,0-21-9.4-21-21c0-11.6,9.4-21,21-21s21,9.4,21,21C130.6,104.3,121.2,113.8,109.7,113.8z
				 M109.7,79.8c-7.2,0-13,5.8-13,13c0,7.2,5.8,13,13,13s13-5.8,13-13C122.6,85.6,116.8,79.8,109.7,79.8z"/>
		</g>
		<g>
			<circle class="st1" cx="109.7" cy="90.8" r="8"/>
		</g>
		<g>
			<g>
				<circle class="st1" cx="100.3" cy="66.7" r="4.1"/>
			</g>
			<g>
				<circle class="st1" cx="119" cy="66.7" r="4.1"/>
			</g>
		</g>
		<g>
			<g>
				<path class="st1" d="M76,72.6l-4.4-4.4c-6.1-6.1-6.1-16.1,0-22.3l3.2-3.2c6.1-6.1,16.1-6.1,22.3,0l4.4,4.4l-5.7,5.7l-4.4-4.4
					c-3-3-7.9-3-11,0l-3.2,3.2c-3,3-3,7.9,0,11l4.4,4.4L76,72.6z"/>
			</g>
			<g>
				<path class="st1" d="M143.3,72.6l-5.7-5.7l4.4-4.4c3-3,3-7.9,0-11l-3.2-3.2c-3-3-7.9-3-11,0l-4.4,4.4l-5.7-5.7l4.4-4.4
					c6.1-6.1,16.1-6.1,22.3,0l3.2,3.2c6.1,6.1,6.1,16.1,0,22.3L143.3,72.6z"/>
			</g>
		</g>
	</g>
</g>
</svg>
