<?xml version="1.0" encoding="utf-8"?>
<!-- Generator: Adobe Illustrator 19.1.0, SVG Export Plug-In . SVG Version: 6.00 Build 0)  -->
<svg version="1.1" id="Calque_1" xmlns="http://www.w3.org/2000/svg" xmlns:xlink="http://www.w3.org/1999/xlink" x="0px" y="0px"
	 viewBox="0 0 226.1 226.1" style="enable-background:new 0 0 226.1 226.1;" xml:space="preserve">
<style type="text/css">
	.st0{fill-rule:evenodd;clip-rule:evenodd;fill:#FFFFFF;}
	.st1{fill:#FFFFFF;}
	.st2{fill:#ED6754;}
	.st3{fill-rule:evenodd;clip-rule:evenodd;fill:#8CC63F;}
	.st4{fill-rule:evenodd;clip-rule:evenodd;fill:#595959;}
	.st5{fill:#8CC63F;}
	.st6{fill:#595959;}
	.st7{fill:#999999;}
	.st8{fill:#29ABE2;}
	.st9{fill:#FBB07F;}
	.st10{fill:#0071BC;}
	.st11{fill:#CBE021;}
	.st12{fill:#00A99D;}
	.st13{fill:#FF99AC;}
	.st14{fill:none;stroke:#8CC63F;stroke-width:5;stroke-miterlimit:10;}
	.st15{fill:none;stroke:#CBE021;stroke-width:5;stroke-miterlimit:10;}
	.st16{fill:none;stroke:#FBB07F;stroke-width:5;stroke-miterlimit:10;}
	.st17{fill:none;stroke:#00A99D;stroke-width:5;stroke-miterlimit:10;}
	.st18{fill:none;stroke:#29ABE2;stroke-width:5;stroke-miterlimit:10;}
	.st19{fill:none;stroke:#0071BC;stroke-width:5;stroke-miterlimit:10;}
	.st20{fill:none;stroke:#ED6754;stroke-width:5;stroke-miterlimit:10;}
	.st21{fill:none;stroke:#FF99AC;stroke-width:5;stroke-miterlimit:10;}
	.st22{fill:none;stroke:#999999;stroke-width:5;stroke-miterlimit:10;}
</style>
<g>
	<g>
		<g>
			<path class="st2" d="M151,175.5H73.3c-1,0-2-0.4-2.7-1.1c-0.7-0.7-1.1-1.7-1.1-2.7l0.3-66H56.1c-1.7,0-3.2-1.1-3.7-2.8L42.5,69
				c-0.5-1.8,0.4-3.8,2.1-4.6l41-18.4c0.5-0.2,1-0.3,1.6-0.3H137c0.5,0,1.1,0.1,1.6,0.3l41,18.4c1.7,0.8,2.6,2.7,2.1,4.6l-9.9,33.9
				c-0.5,1.6-2,2.8-3.7,2.8h-13.6l0.3,66c0,1-0.4,2-1.1,2.7C153,175.1,152,175.5,151,175.5z M77.1,167.9h70l-0.3-66
				c0-1,0.4-2,1.1-2.7c0.7-0.7,1.7-1.1,2.7-1.1h14.6l8.2-28l-37.2-16.7H88L50.8,70L59,98h14.6c1,0,2,0.4,2.7,1.1
				c0.7,0.7,1.1,1.7,1.1,2.7L77.1,167.9z"/>
		</g>
		<g>
			<path class="st2" d="M112.1,71.4c-15.3,0-27.8-9.8-27.8-21.9c0-2.1,1.7-3.8,3.8-3.8c2.1,0,3.8,1.7,3.8,3.8
				c0,7.9,9,14.3,20.1,14.3s20.1-6.4,20.1-14.3c0-2.1,1.7-3.8,3.8-3.8c2.1,0,3.8,1.7,3.8,3.8C139.9,61.6,127.4,71.4,112.1,71.4z"/>
		</g>
	</g>
</g>
<g>
	<circle class="st20" cx="113.2" cy="112.8" r="109.7"/>
</g>
</svg>
