<?xml version="1.0" encoding="utf-8"?>
<!-- Generator: Adobe Illustrator 19.1.0, SVG Export Plug-In . SVG Version: 6.00 Build 0)  -->
<svg version="1.1" id="Calque_1" xmlns="http://www.w3.org/2000/svg" xmlns:xlink="http://www.w3.org/1999/xlink" x="0px" y="0px"
	 viewBox="0 0 156.5 156.5" style="enable-background:new 0 0 156.5 156.5;" xml:space="preserve">
<style type="text/css">
	.st0{fill-rule:evenodd;clip-rule:evenodd;fill:#FFFFFF;}
	.st1{fill:#FFFFFF;}
	.st2{fill:#ED6754;}
	.st3{fill-rule:evenodd;clip-rule:evenodd;fill:#8CC63F;}
	.st4{fill-rule:evenodd;clip-rule:evenodd;fill:#595959;}
	.st5{fill:#8CC63F;}
	.st6{fill:#595959;}
	.st7{fill:#999999;}
	.st8{fill:#29ABE2;}
	.st9{fill:#FBB07F;}
	.st10{fill:#0071BC;}
	.st11{fill:#CBE021;}
	.st12{fill:#00A99D;}
	.st13{fill:#FF99AC;}
	.st14{fill:none;stroke:#8CC63F;stroke-width:5;stroke-miterlimit:10;}
	.st15{fill:none;stroke:#CBE021;stroke-width:5;stroke-miterlimit:10;}
	.st16{fill:none;stroke:#FBB07F;stroke-width:5;stroke-miterlimit:10;}
	.st17{fill:none;stroke:#00A99D;stroke-width:5;stroke-miterlimit:10;}
	.st18{fill:none;stroke:#29ABE2;stroke-width:5;stroke-miterlimit:10;}
	.st19{fill:none;stroke:#0071BC;stroke-width:5;stroke-miterlimit:10;}
	.st20{fill:none;stroke:#ED6754;stroke-width:5;stroke-miterlimit:10;}
	.st21{fill:none;stroke:#FF99AC;stroke-width:5;stroke-miterlimit:10;}
	.st22{fill:none;stroke:#999999;stroke-width:5;stroke-miterlimit:10;}
</style>
<g>
	<path class="st1" d="M78.2,156.5C35.1,156.5,0,121.4,0,78.2C0,35.1,35.1,0,78.2,0s78.2,35.1,78.2,78.2
		C156.5,121.4,121.4,156.5,78.2,156.5z M78.2,5C37.9,5,5,37.9,5,78.2c0,40.4,32.9,73.2,73.2,73.2s73.2-32.9,73.2-73.2
		C151.5,37.9,118.6,5,78.2,5z"/>
</g>
<g id="interface_-_bell_notification_8_">
	<g>
		<path class="st0" d="M87,43.8c-11.9-3.1-24.1,3.8-27.3,15.5c0,0-0.8,3-1.9,7.1l-0.4,1.3l0,0c-0.7,2.6-1.5,5.4-2.2,8.2
			c-1.8,6.7-13.3,14.9-13.3,14.9l25.3,6.7c-0.7,1.5-1.1,3.1-1.1,4.8c0,6.1,4.9,11,11,11c5.8,0,10.6-4.6,11-10.3l14,3.7
			c0,0-5.8-12.6-4-19.3c0.8-2.8,1.6-5.8,2.3-8.4l0,0l1.2-4.2l0,0c0.7-2.6,1.2-4.2,1.2-4.2C106,59,98.9,46.9,87,43.8z M77.2,109
			c-3.6,0-6.6-3-6.6-6.6c0-1.4,0.4-2.6,1.1-3.7l12.1,3.2c0,0.2,0,0.3,0,0.5C83.8,106.1,80.8,109,77.2,109z M51.7,89
			c0,0,5.8-5,7.8-11.6l34.4,9.1c-1.8,6.7,0.8,13.8,0.8,13.8L51.7,89z M95,82.2l-34.4-9.1c0.4-1.5,0.8-2.9,1.2-4.2L96.2,78
			C95.8,79.3,95.4,80.8,95,82.2z M62.9,64.7c0.7-2.6,1.2-4.2,1.2-4.2c2.5-9.4,12.3-14.9,21.8-12.4c9.5,2.5,15.1,12.1,12.6,21.5
			c0,0-0.5,1.7-1.2,4.2L62.9,64.7z"/>
	</g>
</g>
</svg>
