<?xml version="1.0" encoding="utf-8"?>
<!-- Generator: Adobe Illustrator 19.1.0, SVG Export Plug-In . SVG Version: 6.00 Build 0)  -->
<svg version="1.1" id="Calque_1" xmlns="http://www.w3.org/2000/svg" xmlns:xlink="http://www.w3.org/1999/xlink" x="0px" y="0px"
	 viewBox="0 0 226.1 226.1" style="enable-background:new 0 0 226.1 226.1;" xml:space="preserve">
<style type="text/css">
	.st0{fill-rule:evenodd;clip-rule:evenodd;fill:#FFFFFF;}
	.st1{fill:#FFFFFF;}
	.st2{fill:#ED6754;}
	.st3{fill-rule:evenodd;clip-rule:evenodd;fill:#8CC63F;}
	.st4{fill-rule:evenodd;clip-rule:evenodd;fill:#595959;}
	.st5{fill:#8CC63F;}
	.st6{fill:#595959;}
	.st7{fill:#999999;}
	.st8{fill:#29ABE2;}
	.st9{fill:#FBB07F;}
	.st10{fill:#0071BC;}
	.st11{fill:#CBE021;}
	.st12{fill:#00A99D;}
	.st13{fill:#FF99AC;}
</style>
<g>
	<g>
		<g>
			<path class="st1" d="M173.1,115.2l-33.5-16.8H113H86.5l-33.5,16.8c-4.5,2.3-6.4,7.8-4.1,12.4l0,0c2.3,4.5,7.9,6.4,12.4,4.1
				l20.6-8.4L80.1,140L79,153.8h34h34L146,140l-1.7-16.7l20.6,8.4c4.5,2.3,10.1,0.4,12.4-4.1l0,0C179.5,123,177.7,117.4,173.1,115.2
				z"/>
			<path class="st13" d="M147.1,157.8H79c-1.1,0-2.2-0.5-2.9-1.3c-0.8-0.8-1.1-1.9-1-3l1.1-13.8l1.1-10.3l-14.3,5.8
				c-3.1,1.5-6.6,1.7-9.9,0.7c-3.4-1.1-6.1-3.5-7.7-6.6c-1.6-3.2-1.8-6.7-0.7-10.1c1.1-3.4,3.5-6.1,6.6-7.7l33.5-16.8
				c0.6-0.3,1.2-0.4,1.8-0.4h53.1c0.6,0,1.2,0.1,1.8,0.4l33.5,16.8c0,0,0,0,0,0c6.5,3.3,9.2,11.2,5.9,17.8c-3.2,6.5-11.1,9.1-17.6,6
				l-14.3-5.8l1,10.1l1.1,13.9c0.1,1.1-0.3,2.2-1,3C149.2,157.4,148.2,157.8,147.1,157.8z M83.3,149.8h59.4l-0.8-9.5l-1.7-16.7
				c-0.1-1.4,0.5-2.8,1.6-3.6c1.1-0.8,2.6-1,3.9-0.5l20.6,8.4c0.1,0,0.2,0.1,0.3,0.1c2.6,1.3,5.7,0.3,7-2.3c1.3-2.6,0.2-5.7-2.3-7
				l-32.7-16.3H87.4l-32.7,16.3c-1.2,0.6-2.2,1.7-2.6,3c-0.4,1.3-0.3,2.7,0.3,4c0.6,1.2,1.7,2.2,3,2.6c1.3,0.4,2.8,0.3,4-0.3
				c0.1,0,0.2-0.1,0.3-0.1l20.6-8.4c1.3-0.5,2.8-0.3,3.9,0.5c1.1,0.8,1.7,2.2,1.6,3.6l-1.7,16.8L83.3,149.8z"/>
		</g>
		<g>
			<ellipse class="st1" cx="113" cy="150.6" rx="20.5" ry="24.5"/>
			<path class="st13" d="M113,179.1c-13.5,0-24.5-12.8-24.5-28.5c0-15.7,11-28.5,24.5-28.5c13.5,0,24.5,12.8,24.5,28.5
				C137.5,166.3,126.5,179.1,113,179.1z M113,130.1c-9.1,0-16.5,9.2-16.5,20.5c0,11.3,7.4,20.5,16.5,20.5c9.1,0,16.5-9.2,16.5-20.5
				C129.5,139.3,122.1,130.1,113,130.1z"/>
		</g>
		<g>
			<g>
				
					<ellipse transform="matrix(0.9979 -6.401407e-02 6.401407e-02 0.9979 -10.0538 5.8049)" class="st1" cx="85.6" cy="159.8" rx="17.6" ry="20.9"/>
				<path class="st13" d="M85.9,184.7c-5.4,0-10.6-2.3-14.7-6.6c-4.2-4.4-6.8-10.4-7.2-16.9c-0.9-13.7,8.1-25.4,19.9-26.2
					c11.9-0.8,22.2,9.8,23.1,23.4l0,0c0.9,13.7-8.1,25.4-19.9,26.2C86.7,184.6,86.3,184.7,85.9,184.7z M85.2,142.9
					c-0.2,0-0.5,0-0.7,0c-7.5,0.5-13.1,8.4-12.5,17.7c0.3,4.6,2.1,8.8,5,11.9c2.7,2.9,6.2,4.3,9.6,4.1c7.5-0.5,13.1-8.4,12.5-17.7
					l0,0C98.5,149.9,92.4,142.9,85.2,142.9z"/>
			</g>
			<g>
				
					<ellipse transform="matrix(-0.9979 -6.401407e-02 6.401407e-02 -0.9979 270.4383 328.2587)" class="st1" cx="140.5" cy="159.8" rx="17.6" ry="20.9"/>
				<path class="st13" d="M140.1,184.7c-0.4,0-0.8,0-1.2,0c-11.9-0.8-20.8-12.5-19.9-26.2l0,0c0.9-13.7,11.3-24.2,23.1-23.4
					c11.9,0.8,20.8,12.5,19.9,26.2C161.2,174.4,151.5,184.7,140.1,184.7z M126.9,158.9c-0.6,9.3,5,17.2,12.5,17.7
					c7.5,0.5,14-6.7,14.6-16c0.6-9.3-5-17.2-12.5-17.7C134.1,142.5,127.5,149.6,126.9,158.9L126.9,158.9z"/>
			</g>
		</g>
		<g>
			<circle class="st1" cx="113" cy="81.9" r="31.2"/>
			<path class="st13" d="M113,117.1c-19.4,0-35.2-15.8-35.2-35.2S93.6,46.7,113,46.7s35.2,15.8,35.2,35.2S132.4,117.1,113,117.1z
				 M113,54.7c-15,0-27.2,12.2-27.2,27.2S98,109.1,113,109.1s27.2-12.2,27.2-27.2S128,54.7,113,54.7z"/>
		</g>
		<g>
			<circle class="st1" cx="113" cy="96.1" r="17"/>
			<path class="st13" d="M113,117.1c-11.6,0-21-9.4-21-21c0-11.6,9.4-21,21-21c11.6,0,21,9.4,21,21C134,107.7,124.6,117.1,113,117.1
				z M113,83.2c-7.2,0-13,5.8-13,13c0,7.2,5.8,13,13,13c7.2,0,13-5.8,13-13C126,89,120.2,83.2,113,83.2z"/>
		</g>
		<g>
			<circle class="st1" cx="113" cy="94.1" r="8"/>
		</g>
		<g>
			<g>
				<circle class="st13" cx="103.7" cy="70.1" r="4.1"/>
			</g>
			<g>
				<circle class="st13" cx="122.4" cy="70.1" r="4.1"/>
			</g>
		</g>
		<g>
			<g>
				<path class="st13" d="M79.4,75.9l-4.4-4.4c-6.1-6.1-6.1-16.1,0-22.3l3.2-3.2c6.1-6.1,16.1-6.1,22.3,0l4.4,4.4l-5.7,5.7l-4.4-4.4
					c-3-3-7.9-3-11,0l-3.2,3.2c-3,3-3,7.9,0,11l4.4,4.4L79.4,75.9z"/>
			</g>
			<g>
				<path class="st13" d="M146.7,75.9l-5.7-5.7l4.4-4.4c3-3,3-7.9,0-11l-3.2-3.2c-3-3-7.9-3-11,0l-4.4,4.4l-5.7-5.7l4.4-4.4
					c6.1-6.1,16.1-6.1,22.3,0l3.2,3.2c6.1,6.1,6.1,16.1,0,22.3L146.7,75.9z"/>
			</g>
		</g>
	</g>
</g>
</svg>
