<?xml version="1.0" encoding="utf-8"?>
<!-- Generator: Adobe Illustrator 19.1.0, SVG Export Plug-In . SVG Version: 6.00 Build 0)  -->
<svg version="1.1" id="Calque_1" xmlns="http://www.w3.org/2000/svg" xmlns:xlink="http://www.w3.org/1999/xlink" x="0px" y="0px"
	 viewBox="0 0 156.5 156.5" style="enable-background:new 0 0 156.5 156.5;" xml:space="preserve">
<style type="text/css">
	.st0{fill-rule:evenodd;clip-rule:evenodd;fill:#FFFFFF;}
	.st1{fill:#FFFFFF;}
	.st2{fill:#ED6754;}
	.st3{fill-rule:evenodd;clip-rule:evenodd;fill:#8CC63F;}
	.st4{fill-rule:evenodd;clip-rule:evenodd;fill:#595959;}
	.st5{fill:#8CC63F;}
	.st6{fill:#595959;}
	.st7{fill:#999999;}
	.st8{fill:#29ABE2;}
	.st9{fill:#FBB07F;}
	.st10{fill:#0071BC;}
	.st11{fill:#CBE021;}
	.st12{fill:#00A99D;}
	.st13{fill:#FF99AC;}
	.st14{fill:none;stroke:#8CC63F;stroke-width:5;stroke-miterlimit:10;}
	.st15{fill:none;stroke:#CBE021;stroke-width:5;stroke-miterlimit:10;}
	.st16{fill:none;stroke:#FBB07F;stroke-width:5;stroke-miterlimit:10;}
	.st17{fill:none;stroke:#00A99D;stroke-width:5;stroke-miterlimit:10;}
	.st18{fill:none;stroke:#29ABE2;stroke-width:5;stroke-miterlimit:10;}
	.st19{fill:none;stroke:#0071BC;stroke-width:5;stroke-miterlimit:10;}
	.st20{fill:none;stroke:#ED6754;stroke-width:5;stroke-miterlimit:10;}
	.st21{fill:none;stroke:#FF99AC;stroke-width:5;stroke-miterlimit:10;}
	.st22{fill:none;stroke:#999999;stroke-width:5;stroke-miterlimit:10;}
</style>
<g>
	<path class="st1" d="M78.2,156.5C35.1,156.5,0,121.4,0,78.2S35.1,0,78.2,0s78.2,35.1,78.2,78.2S121.4,156.5,78.2,156.5z M78.2,5
		C37.9,5,5,37.9,5,78.2c0,40.4,32.9,73.2,73.2,73.2s73.2-32.9,73.2-73.2C151.5,37.9,118.6,5,78.2,5z"/>
</g>
<g id="user_-_single_4_">
	<g>
		<path class="st1" d="M88.6,82c6.4-3.6,10.7-10.5,10.7-18.3c0-11.6-9.4-21-21-21c-11.6,0-21,9.4-21,21c0,7.9,4.3,14.7,10.7,18.3
			C57.6,86.1,50.2,96.2,50.2,108v4.7h4.7V108c0-12.9,10.5-23.4,23.4-23.4c12.9,0,23.4,10.5,23.4,23.4v4.7h4.7V108
			C106.3,96.2,99,86.1,88.6,82z M61.9,63.6c0-9,7.3-16.4,16.4-16.4c9,0,16.4,7.3,16.4,16.4c0,9-7.3,16.4-16.4,16.4
			C69.2,80,61.9,72.7,61.9,63.6z"/>
	</g>
</g>
<rect x="50.2" y="108" class="st1" width="56.1" height="4.7"/>
</svg>
