<?xml version="1.0" encoding="utf-8"?>
<!-- Generator: Adobe Illustrator 19.1.0, SVG Export Plug-In . SVG Version: 6.00 Build 0)  -->
<svg version="1.1" id="Calque_1" xmlns="http://www.w3.org/2000/svg" xmlns:xlink="http://www.w3.org/1999/xlink" x="0px" y="0px"
	 viewBox="0 0 48 44" style="enable-background:new 0 0 48 44;" xml:space="preserve">
<style type="text/css">
	.st0{fill-rule:evenodd;clip-rule:evenodd;fill:#FFFFFF;}
	.st1{fill:#FFFFFF;}
	.st2{fill:#ED6754;}
	.st3{fill-rule:evenodd;clip-rule:evenodd;fill:#8CC63F;}
	.st4{fill-rule:evenodd;clip-rule:evenodd;fill:#595959;}
	.st5{fill:#8CC63F;}
	.st6{fill:#595959;}
</style>
<g id="interface_-_arrow_left_1_">
	<g>
		<path class="st3" d="M46,20H7.1L25.4,3.3c0.8-0.8,0.8-2,0-2.8c-0.8-0.8-2-0.8-2.8,0L1.1,20.2c-0.2,0.1-0.3,0.2-0.5,0.3
			C0.2,21,0,21.5,0,22c0,0,0,0,0,0c0,0,0,0,0,0c0,0.5,0.2,1,0.6,1.4c0.1,0.1,0.3,0.3,0.5,0.3l21.6,19.7c0.8,0.8,2,0.8,2.8,0
			c0.8-0.8,0.8-2,0-2.8L7.1,24H46c1.1,0,2-0.9,2-2C48,20.9,47.1,20,46,20z"/>
	</g>
</g>
</svg>
