<?xml version="1.0" encoding="utf-8"?>
<!-- Generator: Adobe Illustrator 19.1.0, SVG Export Plug-In . SVG Version: 6.00 Build 0)  -->
<svg version="1.1" id="Calque_1" xmlns="http://www.w3.org/2000/svg" xmlns:xlink="http://www.w3.org/1999/xlink" x="0px" y="0px"
	 viewBox="0 0 48.1 48.1" style="enable-background:new 0 0 48.1 48.1;" xml:space="preserve">
<style type="text/css">
	.st0{fill-rule:evenodd;clip-rule:evenodd;fill:#FFFFFF;}
	.st1{fill:#FFFFFF;}
	.st2{fill:#ED6754;}
	.st3{fill-rule:evenodd;clip-rule:evenodd;fill:#8CC63F;}
	.st4{fill-rule:evenodd;clip-rule:evenodd;fill:#595959;}
	.st5{fill:#8CC63F;}
	.st6{fill:#595959;}
	.st7{fill:#999999;}
	.st8{fill:#29ABE2;}
	.st9{fill:#FBB07F;}
	.st10{fill:#0071BC;}
	.st11{fill:#CBE021;}
	.st12{fill:#00A99D;}
	.st13{fill:#FF99AC;}
</style>
<g id="interface_-_clock_time_7_">
	<g>
		<path class="st4" d="M24,0C10.8,0,0,10.8,0,24c0,13.3,10.8,24,24,24c13.3,0,24-10.8,24-24C48.1,10.8,37.3,0,24,0z M24,45.1
			c-11.6,0-21-9.4-21-21C3,12.4,12.4,3,24,3c11.6,0,21,9.4,21,21C45.1,35.6,35.6,45.1,24,45.1z M36,24H24V12c0-0.8-0.7-1.5-1.5-1.5
			c-0.8,0-1.5,0.7-1.5,1.5v13.5c0,0,0,0,0,0.1c0,0.3,0.1,0.6,0.3,0.8c0.3,0.4,0.7,0.7,1.2,0.7c0,0,0.1,0,0.1,0H36
			c0.8,0,1.5-0.7,1.5-1.5C37.6,24.7,36.9,24,36,24z"/>
	</g>
</g>
</svg>
