<?xml version="1.0" encoding="utf-8"?>
<!-- Generator: Adobe Illustrator 19.1.0, SVG Export Plug-In . SVG Version: 6.00 Build 0)  -->
<svg version="1.1" id="Calque_1" xmlns="http://www.w3.org/2000/svg" xmlns:xlink="http://www.w3.org/1999/xlink" x="0px" y="0px"
	 viewBox="0 0 219.3 219.3" style="enable-background:new 0 0 219.3 219.3;" xml:space="preserve">
<style type="text/css">
	.st0{fill-rule:evenodd;clip-rule:evenodd;fill:#FFFFFF;}
	.st1{fill:#FFFFFF;}
	.st2{fill:#ED6754;}
	.st3{fill-rule:evenodd;clip-rule:evenodd;fill:#8CC63F;}
	.st4{fill-rule:evenodd;clip-rule:evenodd;fill:#595959;}
	.st5{fill:#8CC63F;}
	.st6{fill:#595959;}
	.st7{fill:#999999;}
	.st8{fill:#29ABE2;}
	.st9{fill:#FBB07F;}
	.st10{fill:#0071BC;}
	.st11{fill:#CBE021;}
	.st12{fill:#00A99D;}
	.st13{fill:#FF99AC;}
	.st14{fill:none;stroke:#8CC63F;stroke-width:5;stroke-miterlimit:10;}
	.st15{fill:none;stroke:#CBE021;stroke-width:5;stroke-miterlimit:10;}
	.st16{fill:none;stroke:#FBB07F;stroke-width:5;stroke-miterlimit:10;}
	.st17{fill:none;stroke:#00A99D;stroke-width:5;stroke-miterlimit:10;}
	.st18{fill:none;stroke:#29ABE2;stroke-width:5;stroke-miterlimit:10;}
	.st19{fill:none;stroke:#0071BC;stroke-width:5;stroke-miterlimit:10;}
	.st20{fill:none;stroke:#ED6754;stroke-width:5;stroke-miterlimit:10;}
	.st21{fill:none;stroke:#FF99AC;stroke-width:5;stroke-miterlimit:10;}
	.st22{fill:none;stroke:#999999;stroke-width:5;stroke-miterlimit:10;}
</style>
<g>
	<g>
		<circle class="st12" cx="109.7" cy="109.7" r="109.7"/>
	</g>
	<g>
		<g>
			<path class="st1" d="M174.9,155.6H44.6l0.8-57.9c0-8.4,6.8-15.1,15.6-15.1h97.6c8.7,0,15.6,6.7,15.6,15.2L174.9,155.6z
				 M52.7,147.6h114l-0.7-49.8c0-4.1-3.3-7.2-7.6-7.2H61c-4.2,0-7.6,3.1-7.6,7.2L52.7,147.6z"/>
		</g>
		<g>
			<path class="st1" d="M142.2,107.6h-66c-2.2,0-4-1.8-4-4s1.8-4,4-4h66c2.2,0,4,1.8,4,4S144.5,107.6,142.2,107.6z"/>
		</g>
		<g>
			<g>
				<path class="st1" d="M75.2,166.6h-9c-2.2,0-4-1.8-4-4s1.8-4,4-4h9c2.2,0,4,1.8,4,4S77.5,166.6,75.2,166.6z"/>
			</g>
			<g>
				<g>
					<path class="st1" d="M152.2,166.6h-9c-2.2,0-4-1.8-4-4s1.8-4,4-4h9c2.2,0,4,1.8,4,4S154.5,166.6,152.2,166.6z"/>
				</g>
			</g>
		</g>
		<g>
			<path class="st1" d="M142.2,120.6h-66c-2.2,0-4-1.8-4-4s1.8-4,4-4h66c2.2,0,4,1.8,4,4S144.5,120.6,142.2,120.6z"/>
		</g>
		<g>
			<g>
				<path class="st1" d="M77.6,90.6c-1.8,0-4-0.2-5.8-2c-2.2-2.1-2.4-5.4-2.4-7.6V62.3c0-5.3,4.3-9.6,9.6-9.6h29.2
					c5.3,0,9.6,4.3,9.6,9.6V81c0,2.2-0.2,5.5-2.4,7.6c-2.1,2.1-4.7,2-6.6,2l-0.6,0H79c-0.2,0-0.5,0-0.7,0
					C78.1,90.6,77.8,90.6,77.6,90.6z M77.5,82.6c0.2,0,0.5,0,0.7,0c0.3,0,0.5,0,0.8,0l29.9,0c0.3,0,0.6,0,0.8,0
					c0.1-0.3,0.1-0.9,0.1-1.6V62.3c0-0.9-0.7-1.6-1.6-1.6H79c-0.9,0-1.6,0.7-1.6,1.6V81C77.4,81.8,77.5,82.3,77.5,82.6z"/>
			</g>
			<g>
				<path class="st1" d="M141.1,90.6c-0.1,0-0.2,0-0.3,0l-0.3,0h-21.1c-2.8,0-9.5,0-9.5-9.5V70.3c0-5.2,4.3-9.5,9.5-9.5h21.1
					c5.2,0,9.5,4.3,9.5,9.5v10.8c0,2.2-0.2,5.3-2.4,7.4C145.6,90.5,143,90.6,141.1,90.6z M118,82.6c0.4,0,1,0,1.4,0l21.5,0
					c0.3,0,0.7,0,1,0c0-0.3,0.1-0.8,0.1-1.5V70.3c0-0.8-0.7-1.5-1.5-1.5h-21.1c-0.8,0-1.5,0.7-1.5,1.5v10.8
					C117.8,81.8,117.9,82.3,118,82.6z"/>
			</g>
		</g>
	</g>
	<g>
		<path class="st1" d="M215.5,136.5c-3.3-2.9-7.8-4.2-12.2-3.4c-3.9,0.7-7,3-9.7,5c-1.5,1.1-2.9,2.1-4.3,2.8
			c-5.1,2.5-12.1,0.9-15.6-3.6c-1.3-1.8-3.9-2.1-5.6-0.7c-1.7,1.3-2.1,3.9-0.7,5.6c5.8,7.5,17,10.1,25.5,5.9c2-1,3.8-2.3,5.5-3.6
			c2.3-1.7,4.3-3.2,6.4-3.6c1.9-0.4,3.9,0.2,5.4,1.5c1.4,1.3,2.2,3.3,2.1,5.2c0,0.2,0,0.5,0,0.7c1.4-3.7,2.6-7.5,3.6-11.4
			C215.8,136.8,215.6,136.7,215.5,136.5z"/>
	</g>
</g>
</svg>
