<?xml version="1.0" encoding="utf-8"?>
<!-- Generator: Adobe Illustrator 19.1.0, SVG Export Plug-In . SVG Version: 6.00 Build 0)  -->
<svg version="1.1" id="Calque_1" xmlns="http://www.w3.org/2000/svg" xmlns:xlink="http://www.w3.org/1999/xlink" x="0px" y="0px"
	 viewBox="0 0 298.4 358.4" style="enable-background:new 0 0 298.4 358.4;" xml:space="preserve">
<style type="text/css">
	.st0{fill-rule:evenodd;clip-rule:evenodd;fill:#FFFFFF;}
	.st1{fill:#FFFFFF;}
	.st2{fill:#ED6754;}
	.st3{fill-rule:evenodd;clip-rule:evenodd;fill:#8CC63F;}
	.st4{fill-rule:evenodd;clip-rule:evenodd;fill:#595959;}
	.st5{fill:#8CC63F;}
	.st6{fill:#595959;}
</style>
<g>
	<g>
		<g>
			<path class="st1" d="M145,195.3c0,0-0.1,0-0.1,0c-1.7-0.1-3.1-1.5-3-3.2c0.1-2.5-3.7-6-7.2-8.4l-7.2,7c-1.2,1.2-3.2,1.2-4.4-0.1
				c-1.2-1.2-1.2-3.2,0.1-4.4l9-8.7c1-1,2.5-1.2,3.7-0.5c0.1,0.1,3,1.7,5.9,4.2c4.3,3.7,6.5,7.4,6.3,11
				C148,194,146.6,195.3,145,195.3z"/>
		</g>
	</g>
	<g>
		<g>
			<g>
				<path class="st1" d="M138.5,202.2c-1.9,0-3.5-0.6-4.5-1.2l-0.3-0.2l-0.3-0.3c-7.1-7.1-18.5-17.6-21.9-18.8
					c-5.7-2-11.2-5.1-13.6-14.3c-2-8-10.9-27.7-13.7-30.2c-3.9-3.6-8.6-17.3-9.7-20.5L54.3,73.1l-11.6-9L20.5,50.3
					c-1.5-0.9-1.9-2.8-1-4.3s2.8-1.9,4.3-1L46.3,59l13.1,10.2l21.1,45.4c2.5,7.4,6.2,16.4,8.1,18.1c4.4,4,13.6,25.9,15.5,33.3
					c1.5,6.1,4.6,8.2,9.6,10c5.7,2,20.1,16.1,23.8,19.9c0.7,0.2,2.2,0.5,4.2-1.1c3-2.5,3.1-8.2,2.7-10.1c-0.3-1.3-0.5-4.5-0.5-6.5
					c-6.8-7.8-31.8-37.4-31.8-54.3c0-19.4,15.8-34.9,35.2-34.9c0,0,0.1,0,0.1,0c9.4,0,18.2,3.4,24.9,10.1
					c6.6,6.7,10.3,15.4,10.3,24.8c0,17.1-26,47.5-32.1,54.4c0.1,1.4,0.3,3.5,0.5,6.2c0.6,7.1,1.6,9.9,3.9,10.2
					c1.6,0.2,6.3-4.4,9.5-9.3l0.2-0.3l10.3-9.3c1.8-2.9,12.6-20.3,18.4-27.7c2.1-2.7,4-4.7,5.5-6.2c3-3.2,4-4.4,4.1-6.7
					c0.1-5.1-4.6-37.2-10.2-47.9c-1.8-3.4-2.8-7.7-4-12.2c-2-8.2-4.1-16.8-10.7-19.7c-1.5-0.7-5.8-2-10.7-3.5
					c-9.9-3.1-23.5-7.4-31.8-11.3c-5.5-2.7-12.8-5.2-19.2-7.5c-8.3-3-15-5.3-18.1-7.7c-8.5-5.7-19.8-16-20.3-16.4
					c-1.3-1.2-1.3-3.1-0.2-4.4C78.8,3.1,80.8,3,82,4.2c0.1,0.1,11.5,10.5,19.6,15.9l0.2,0.2c2.3,1.8,9.5,4.3,16.4,6.8
					c6.6,2.3,14,5,19.8,7.8c7.8,3.8,21.2,8,30.9,11c5.5,1.7,9.5,3,11.3,3.8c9.4,4.1,12,14.6,14.3,23.9c1,4.1,2,8,3.4,10.8
					c6.3,11.9,11,45.2,10.9,50.9c-0.1,4.9-2.6,7.5-5.7,10.9c-1.5,1.6-3.2,3.4-5.1,5.8c-6,7.6-18.1,27.3-18.3,27.5l-0.2,0.4
					l-10.4,9.4c-2.2,3.2-8.4,11.8-14.5,11.8c-0.3,0-0.6,0-0.9-0.1c-2.8-0.4-4.7-1.8-6.1-3.7c-0.6,0.9-1.3,1.7-2.2,2.4
					C143.1,201.5,140.6,202.2,138.5,202.2z M147.2,94.9c-16,0-28.9,12.8-29,28.8c0,12,17.2,35.2,28.9,48.8
					c11.2-12.9,29.1-36.6,29.1-48.7c0-7.7-3-14.9-8.4-20.4C162.3,97.9,155,94.9,147.2,94.9C147.3,94.9,147.2,94.9,147.2,94.9z"/>
			</g>
		</g>
		<g>
			<g>
				<path class="st1" d="M147.2,134.9C147.2,134.9,147.2,134.9,147.2,134.9c-7.6,0-13.8-6.3-13.8-13.9c0-3.7,1.5-7.3,4.1-9.9
					c2.6-2.6,6.1-4.2,9.7-4.2c0,0,0,0,0,0c3.7,0,7.2,1.6,9.8,4.2c2.6,2.6,4,6.1,4,9.8c0,3.7-1.5,7.3-4.1,9.9
					C154.4,133.4,150.9,134.9,147.2,134.9z M147.2,112.9c-2,0-3.9,1-5.4,2.4c-1.4,1.4-2.2,3.6-2.2,5.7c0,4.2,3.4,7.9,7.6,7.9
					c0,0,0,0,0,0c2,0,3.9-1,5.4-2.4c1.4-1.4,2.2-3.4,2.2-5.5c0-2-0.8-4.2-2.2-5.6C151.2,114,149.3,112.9,147.2,112.9
					C147.2,112.9,147.2,112.9,147.2,112.9z"/>
			</g>
		</g>
	</g>
	<g>
		<g>
			<path class="st1" d="M147.2,241.9c-32.3,0-62.7-12.6-85.5-35.4c-22.8-22.8-35.4-53.2-35.4-85.5c0-16.5,3.3-32.5,9.7-47.6
				c0.7-1.6,2.5-2.3,4.1-1.6c1.6,0.7,2.3,2.5,1.6,4.1c-6.1,14.3-9.2,29.4-9.2,45.1c0,63.3,51.5,114.7,114.7,114.7
				S261.9,184.2,261.9,121S210.5,6.2,147.2,6.2c-14.6,0-28.9,2.7-42.4,8.1c-1.6,0.6-3.4-0.1-4-1.7c-0.6-1.6,0.1-3.4,1.7-4
				C116.7,2.9,131.8,0,147.2,0c32.3,0,62.7,12.6,85.5,35.4c22.8,22.8,35.4,53.2,35.4,85.5c0,32.3-12.6,62.7-35.4,85.5
				C209.9,229.3,179.5,241.9,147.2,241.9z"/>
		</g>
	</g>
	<g>
		<g>
			<path class="st1" d="M175.1,199.9c-0.6,0-1.2-0.2-1.7-0.5c-0.3-0.2-6.6-4.6-6-14.2c0.1-1.7,1.6-3,3.3-2.9c1.7,0.1,3,1.6,2.9,3.3
				c-0.2,3.6,1,6,2,7.4c1.1-0.8,2.3-1.7,2.9-2.5c0.3-0.3,0.7-0.9,1.2-1.5c2.7-3.3,9-11.2,11-15.9c2.1-4.7,12.2-17,22.4-29.2
				c2-2.4,3.5-4.2,4.3-5.2c1.7-2.1-1.4-9-3-12.3c-0.4-0.9-0.8-1.8-1.2-2.6c-0.5-1.1-2.6-5.2-5-9.8c-7.2-13.7-19.1-36.6-21.8-46.7
				c-0.4-1.7,0.5-3.4,2.2-3.8c1.7-0.4,3.4,0.5,3.8,2.2c2.5,9.4,14.3,32,21.3,45.4c3.1,5.9,4.7,9,5.2,10.3c0.3,0.7,0.7,1.5,1.1,2.4
				c2.6,5.7,6.2,13.6,2.2,18.7c-0.8,1-2.4,2.9-4.4,5.3c-6.4,7.6-19.6,23.4-21.5,27.7c-2.4,5.5-8.8,13.5-11.9,17.3
				c-0.5,0.6-0.9,1.1-1.1,1.4c-2.2,2.9-6.4,5.2-6.8,5.4C176.1,199.8,175.6,199.9,175.1,199.9z"/>
		</g>
	</g>
	<g>
		<path class="st1" d="M0,283c0-1.7,0.9-2.7,2.6-2.7h2.1c1.7,0,2.7,1,2.7,2.7v24.6c0,2.5-0.4,4.5-0.4,4.5h0.2
			c0,0,4.8-11.3,18.9-11.3c14.7,0,23.9,11.8,23.9,28.7c0,17.5-10.4,28.8-24.8,28.8c-13.3,0-18.4-11.5-18.4-11.5H6.7
			c0,0,0.4,1.6,0.4,4v3.6c0,1.5-1,2.5-2.7,2.5H2.6c-1.7,0-2.6-1-2.6-2.7V283z M24.6,351.8c9.8,0,17.8-8.1,17.8-22.1
			c0-13.4-7.2-22.1-17.4-22.1c-9.2,0-17.8,6.6-17.8,22.1C7.2,340.9,12.9,351.8,24.6,351.8z"/>
		<path class="st1" d="M59.4,304.9c0-1.7,0.9-2.7,2.6-2.7h2.1c1.7,0,2.7,1,2.7,2.7v30.3c0,8.6,1.3,16.3,11.9,16.3
			c12.6,0,20.3-11,20.3-22.9v-23.6c0-1.7,1-2.7,2.7-2.7h2.1c1.7,0,2.6,1,2.6,2.7v49.5c0,1.7-0.9,2.7-2.6,2.7h-2
			c-1.7,0-2.6-1-2.6-2.7V348c0-2.2,0.3-3.9,0.3-3.9h-0.2c-2.1,5.4-9.5,14.3-21.6,14.3c-13,0-18.4-7-18.4-21.3V304.9z"/>
		<path class="st1" d="M120.3,283c0-1.7,0.9-2.7,2.6-2.7h2.1c1.7,0,2.7,1,2.7,2.7v59.8c0,6.9,3.3,7.6,5.7,8c1.3,0.1,2.3,0.8,2.3,2.4
			v1.6c0,1.6-0.8,2.7-2.8,2.7c-4.5,0-12.6-1.4-12.6-13.4V283z"/>
		<path class="st1" d="M144.8,283c0-1.7,0.9-2.7,2.6-2.7h2.1c1.7,0,2.7,1,2.7,2.7v40.1h8.8l15.2-19.3c0.9-1.1,1.9-1.6,3.3-1.6h2.7
			c2.2,0,3,1.5,1.5,3.3l-16.6,20.6v0.2l19,27.5c1.2,1.9,0.4,3.3-1.9,3.3h-2.8c-1.5,0-2.4-0.5-3.2-1.9l-17.2-25.6h-9v24.7
			c0,1.7-1,2.7-2.7,2.7h-2.1c-1.7,0-2.6-1-2.6-2.7V283z"/>
		<path class="st1" d="M218.2,300.8c14.6,0,22.9,10.6,22.9,26.2c0,1.5-1.2,2.7-2.8,2.7h-39.5c0.3,14,9.9,22,21.3,22
			c6.9,0,11.9-3.1,14.4-5c1.5-1,2.7-0.8,3.6,0.7l0.9,1.3c0.8,1.3,0.5,2.6-0.8,3.6c-3,2.2-9.5,6.1-18.4,6.1
			c-16.4,0-28.7-11.8-28.7-28.7C191.1,311.7,203.3,300.8,218.2,300.8z M233.6,324.2c-0.4-11.6-7.4-17.3-15.6-17.3
			c-9.2,0-17.2,6.1-18.9,17.3H233.6z"/>
		<path class="st1" d="M275.4,300.8c14.6,0,22.9,10.6,22.9,26.2c0,1.5-1.2,2.7-2.8,2.7H256c0.3,14,9.9,22,21.3,22
			c6.9,0,11.9-3.1,14.4-5c1.5-1,2.7-0.8,3.6,0.7l0.9,1.3c0.8,1.3,0.5,2.6-0.8,3.6c-2.9,2.2-9.5,6.1-18.4,6.1
			c-16.4,0-28.7-11.8-28.7-28.7C248.3,311.7,260.6,300.8,275.4,300.8z M290.8,324.2c-0.4-11.6-7.4-17.3-15.6-17.3
			c-9.2,0-17.2,6.1-18.9,17.3H290.8z"/>
	</g>
</g>
</svg>
