<?xml version="1.0" encoding="utf-8"?>
<!-- Generator: Adobe Illustrator 19.1.0, SVG Export Plug-In . SVG Version: 6.00 Build 0)  -->
<svg version="1.1" id="Calque_1" xmlns="http://www.w3.org/2000/svg" xmlns:xlink="http://www.w3.org/1999/xlink" x="0px" y="0px"
	 viewBox="0 0 156.5 156.5" style="enable-background:new 0 0 156.5 156.5;" xml:space="preserve">
<style type="text/css">
	.st0{fill-rule:evenodd;clip-rule:evenodd;fill:#FFFFFF;}
	.st1{fill:#FFFFFF;}
	.st2{fill:#ED6754;}
	.st3{fill-rule:evenodd;clip-rule:evenodd;fill:#8CC63F;}
	.st4{fill-rule:evenodd;clip-rule:evenodd;fill:#595959;}
	.st5{fill:#8CC63F;}
	.st6{fill:#595959;}
	.st7{fill:#999999;}
	.st8{fill:#29ABE2;}
	.st9{fill:#FBB07F;}
	.st10{fill:#0071BC;}
	.st11{fill:#CBE021;}
	.st12{fill:#00A99D;}
	.st13{fill:#FF99AC;}
</style>
<g>
	<path class="st1" d="M78.2,156.5C35.1,156.5,0,121.4,0,78.2S35.1,0,78.2,0s78.2,35.1,78.2,78.2S121.4,156.5,78.2,156.5z M78.2,5
		C37.9,5,5,37.9,5,78.2c0,40.4,32.9,73.2,73.2,73.2s73.2-32.9,73.2-73.2C151.5,37.9,118.6,5,78.2,5z"/>
</g>
<g id="setting_-_gear_9_">
	<g>
		<path class="st0" d="M78.7,65c-7.3,0-13.2,5.9-13.2,13.2c0,7.3,5.9,13.2,13.2,13.2c7.3,0,13.2-5.9,13.2-13.2
			C91.9,70.9,86,65,78.7,65z M78.7,87c-4.9,0-8.8-3.9-8.8-8.8c0-4.9,4-8.8,8.8-8.8c4.9,0,8.8,4,8.8,8.8C87.5,83.1,83.6,87,78.7,87z
			 M114,78.2c0-4.6-3.5-8.4-8-8.8c-0.5-1.5-1.1-2.9-1.8-4.3c2.9-3.5,2.7-8.6-0.6-11.9c-3.2-3.2-8.4-3.4-11.9-0.6
			c-1.4-0.7-2.8-1.3-4.3-1.8c-0.4-4.5-4.2-8-8.8-8c-4.6,0-8.4,3.5-8.8,8c-1.5,0.5-2.9,1.1-4.3,1.8c-3.5-2.9-8.6-2.7-11.9,0.6
			c-3.2,3.2-3.4,8.4-0.6,11.9c-0.7,1.4-1.3,2.8-1.8,4.3c-4.5,0.4-8,4.2-8,8.8c0,4.6,3.5,8.4,8,8.8c0.5,1.5,1.1,2.9,1.8,4.3
			c-2.9,3.5-2.7,8.6,0.6,11.9c3.2,3.2,8.4,3.4,11.9,0.6c1.4,0.7,2.8,1.3,4.3,1.8c0.4,4.5,4.2,8,8.8,8c4.6,0,8.4-3.5,8.8-8
			c1.5-0.5,2.9-1.1,4.3-1.8c3.5,2.9,8.6,2.7,11.9-0.6c3.2-3.3,3.4-8.4,0.6-11.9c0.7-1.4,1.3-2.8,1.8-4.3
			C110.5,86.6,114,82.8,114,78.2z M102.5,82.6c-0.6,3.4-2,6.6-3.9,9.3l1.9,1.9c1.7,1.7,1.7,4.5,0,6.2c-1.7,1.7-4.5,1.7-6.2,0
			l-1.9-1.9c-2.8,1.9-5.9,3.3-9.3,3.9v2.6c0,2.4-2,4.4-4.4,4.4c-2.4,0-4.4-2-4.4-4.4v-2.6c-3.4-0.6-6.6-2-9.3-3.9l-1.9,1.9
			c-1.7,1.7-4.5,1.7-6.2,0c-1.7-1.7-1.7-4.5,0-6.2l1.9-1.9c-1.9-2.8-3.3-5.9-3.9-9.3h-2.6c-2.4,0-4.4-2-4.4-4.4c0-2.4,2-4.4,4.4-4.4
			h2.6c0.6-3.4,2-6.6,3.9-9.3l-1.9-1.9c-1.7-1.7-1.7-4.5,0-6.2c1.7-1.7,4.5-1.7,6.2,0l1.9,1.9c2.8-1.9,5.9-3.3,9.3-3.9v-2.6
			c0-2.4,2-4.4,4.4-4.4c2.4,0,4.4,2,4.4,4.4v2.6c3.4,0.6,6.6,2,9.3,3.9l1.9-1.9c1.7-1.7,4.5-1.7,6.2,0c1.7,1.7,1.7,4.5,0,6.2
			l-1.9,1.9c1.9,2.8,3.3,5.9,3.9,9.3h2.6c2.4,0,4.4,2,4.4,4.4c0,2.4-2,4.4-4.4,4.4H102.5z"/>
	</g>
</g>
</svg>
